<?xml version="1.0" encoding="utf-8"?>
<!-- Generator: Adobe Illustrator 17.0.0, SVG Export Plug-In . SVG Version: 6.00 Build 0)  -->
<!DOCTYPE svg PUBLIC "-//W3C//DTD SVG 1.1//EN" "http://www.w3.org/Graphics/SVG/1.1/DTD/svg11.dtd">
<svg version="1.1" id="Calque_1" xmlns="http://www.w3.org/2000/svg" xmlns:xlink="http://www.w3.org/1999/xlink" x="0px" y="0px"
	 width="500px" height="500px" viewBox="0 0 500 500" enable-background="new 0 0 500 500" xml:space="preserve">
<g>
	<g>
		<g id="XMLID_3_">
			<g>
				<path fill="#B7897C" d="M434.225,189.24c2.52,2.31,3.33,5.53,2.8,8.85c-0.65,4.08-4.67,6.69-8.26,7.99
					c-2.95,1.07-5.96,1.32-9,1.33c-0.05,0-0.1-0.01-0.15,0c-0.41-0.02-0.88-0.03-1.41-0.05c-0.05,0-0.09,0-0.14,0
					c-0.2-0.01-0.41-0.02-0.63-0.02c-0.01,0-0.01,0-0.02,0c-0.68-0.02-1.43-0.05-2.26-0.07c-0.05,0-0.11,0-0.16,0
					c-4.86-0.14-12.17-0.35-21.39-0.58v0.04c-6.46-0.17-12.93-0.32-19.39-0.46c-2.59-0.06-5.19-0.12-7.78-0.16v-0.04
					c-1.05-0.02-2.12-0.04-3.2-0.07c-0.09,0-0.17,0-0.25,0c-1.02-0.02-2.04-0.04-3.07-0.06c-0.12-0.01-0.24-0.01-0.36-0.01
					c-2.19-0.04-4.42-0.09-6.68-0.13c-0.09,0-0.18,0-0.26-0.01c-4.74-0.08-9.64-0.17-14.69-0.26v0.03
					c-7.73-0.14-15.47-0.25-23.2-0.35v-0.02h-0.01c-2.3-0.03-4.61-0.06-6.94-0.09c-0.03,0-0.06,0-0.09,0
					c-7.01-0.08-14.15-0.16-21.39-0.21c-0.02,0-0.04,0-0.05,0v0.01c-7.77-0.06-15.54-0.11-23.32-0.13v-0.02
					c-4.42-0.01-8.85-0.02-13.27-0.02c-5.01,0-10.01,0.01-15,0.03c-0.03,0-0.07,0-0.1,0c-4.51,0.01-9.02,0.03-13.54,0.06
					c-3.23,0.02-6.45,0.04-9.68,0.08c-17.17,0.13-34.35,0.36-51.52,0.67c-4.75,0.08-9.51,0.17-14.26,0.26
					c-21.82,0.43-43.65,0.92-65.47,1.62c-0.18,0-0.36-0.01-0.54-0.02c-0.33-0.02-0.66-0.04-0.98-0.07l0.01,0.09
					c-5.01-0.18-10.72-1.76-13.92-5.78c-1.89-2.39-2.36-6.28-1.22-9.13c1.69-4.19,6.54-6.38,10.67-7.28
					c0.62-0.13,1.25-0.25,1.89-0.33l0.02,0.2c0.42-0.08,0.85-0.15,1.29-0.21c0.18-0.03,0.37-0.05,0.55-0.07
					c0.33-0.03,0.65-0.07,0.98-0.09c0.17-0.01,0.34-0.03,0.51-0.04c0.49-0.02,0.99-0.04,1.5-0.04c0,0,0.19-0.01,0.52-0.02
					c0.25-0.01,0.59-0.02,1.03-0.03c0.04,0,0.09-0.01,0.14-0.01c1.31-0.04,3.38-0.1,6.13-0.18c0.02,0,0.04,0,0.05,0
					c3.94-0.12,9.25-0.27,15.7-0.44v-0.03c8.42-0.22,16.84-0.42,25.26-0.6v0.02c6.47-0.14,13.43-0.29,20.79-0.42
					c0.06-0.01,0.12-0.01,0.18-0.01c1.18-0.02,2.36-0.04,3.56-0.06c0.04-0.01,0.09-0.01,0.13-0.01c1.23-0.02,2.48-0.04,3.73-0.07
					v-0.02c6.39-0.11,12.77-0.22,19.15-0.31c1.46-0.02,2.92-0.04,4.38-0.06v0.02c0,0,0.01,0,0.02,0c2.27-0.03,4.56-0.06,6.86-0.09
					c0.05,0,0.1,0,0.15,0c6.95-0.09,14.06-0.17,21.28-0.23c0.02,0,0.04,0,0.05,0v-0.01c15.03-0.13,30.05-0.19,45.08-0.17
					c25.95,0.04,51.9,0.31,77.84,0.73c24.08,0.39,48.15,0.9,72.22,1.55c5.12,0.14,10.23,0.32,15.35,0.45
					C425.245,184.68,430.595,185.92,434.225,189.24z"/>
				<path fill="#B7897C" d="M414.425,160.2c7.01,0.71,12.19,5.93,11.57,11.65l-1.42,12.99c-0.46-0.05-0.92-0.09-1.39-0.12
					c-0.49-0.03-0.98-0.04-1.48-0.04c0,0-0.17-0.01-0.49-0.02c-0.27-0.01-0.65-0.02-1.15-0.03c-0.08-0.01-0.17-0.01-0.25-0.01
					c-0.21-0.01-0.42-0.02-0.66-0.02c-0.08,0-0.16-0.01-0.25-0.01c-0.69-0.02-1.5-0.04-2.42-0.07c-0.01,0-0.02,0-0.04,0
					c-1.93-0.06-4.37-0.13-7.26-0.21c-0.02,0-0.04,0-0.06,0c-1.43-0.04-2.98-0.08-4.64-0.13c-0.05,0-0.1,0-0.15,0
					c-0.78-0.02-1.58-0.04-2.41-0.06c-0.05,0-0.1-0.01-0.15-0.01c-1.75-0.04-3.6-0.09-5.54-0.14c-0.03,0-0.06,0-0.1,0l1.64-14.98
					c0.62-5.72,6.81-9.78,13.83-9.07L414.425,160.2z"/>
				<path fill="#B7897C" d="M422.055,207.46l-6.83,61.07c-0.05,0.41-0.12,2.87-0.23,5.5c-0.63-0.16-1.26-0.31-1.9-0.46
					c-0.61-0.15-1.23-0.3-1.85-0.44c-1.9-0.45-3.86-0.89-5.88-1.31c-2.02-0.43-4.1-0.84-6.25-1.25c-3.93-0.76-8.06-1.48-12.38-2.17
					c0.06-0.86,0.16-1.74,0.27-2.73l6.6-58.94c3.64,0.09,7.27,0.18,10.91,0.28c3.36,0.09,6.72,0.18,10.08,0.28
					c1.68,0.05,3.36,0.12,5.02,0.12c0.05-0.01,0.1,0,0.15,0c0.44,0.01,0.81,0.02,1.11,0.03c0.54,0.02,0.83,0.03,0.83,0.03
					C421.825,207.47,421.935,207.46,422.055,207.46z"/>
				<path fill="#B7897C" d="M357.405,154.71c7.04,0.46,12.39,5.49,11.97,11.23l-1.29,17.37c-5.43-0.11-11.18-0.23-17.18-0.34
					c-0.08,0-0.16,0-0.24,0c-1.15-0.02-2.3-0.04-3.47-0.07c-0.02,0-0.05,0-0.07,0c-2.44-0.04-4.92-0.09-7.43-0.13l1.38-18.7
					c0.42-5.74,6.47-10.02,13.5-9.55L357.405,154.71z"/>
				<path fill="#B7897C" d="M366.435,206.11l-4.38,58.83c0,0.03-0.01,0.07-0.01,0.1c-2.41-0.28-4.86-0.55-7.35-0.8
					c-0.68-0.07-1.36-0.14-2.04-0.21c-2.1-0.22-4.24-0.43-6.39-0.63c-1.48-0.1-3.03-0.21-4.6-0.33c-0.53-0.04-1.05-0.08-1.58-0.12
					c-0.14-0.01-0.28-0.02-0.42-0.03c-0.75-0.05-1.51-0.11-2.26-0.17c-0.16-0.01-0.33-0.02-0.49-0.04
					c-0.53-0.04-1.05-0.08-1.57-0.12c-0.52-0.04-1.04-0.08-1.55-0.12l4.13-56.91C347.425,205.72,356.935,205.9,366.435,206.11z"/>
				<path fill="#B7897C" d="M303.785,152.58c7.05,0.23,12.58,5.08,12.37,10.83l-0.44,19c-0.01,0-0.01,0-0.02,0
					c-9.2-0.12-18.69-0.23-28.35-0.31l0.46-19.62c0.21-5.75,6.1-10.23,13.14-9.99L303.785,152.58z"/>
				<path fill="#B7897C" d="M262.925,204.77v49.55c-0.38-0.46-0.88-1.02-1.46-1.62c-0.19-0.19-0.38-0.38-0.58-0.58
					c-0.25-0.25-0.52-0.51-0.79-0.76c-0.16-0.16-0.33-0.31-0.49-0.46c-1.75-1.61-3.58-3.05-4.34-3.14c3.09,2.35,5.22,5.42,6.07,9.09
					c0.19,0.8,0.3,1.61,0.37,2.43c-3.87-0.04-7.77-0.06-11.71-0.06c-3.46,0-6.91,0.01-10.33,0.04c3.07-5.3,6.21-9.61,6.21-9.61
					s-1.97-1.72-10.72,2.78c-0.64-3.4,0.06-15.81,2.16-18.06c-0.11,0.08-0.21,0.17-0.32,0.27c-0.11,0.1-0.23,0.21-0.34,0.33
					c-0.65,0.65-1.36,1.56-2.1,2.64c0-15.63,0-32.85,0-32.85c0.03,0,0.07,0,0.1,0C244.085,204.73,253.505,204.73,262.925,204.77z"/>
				<path fill="#B7897C" d="M262.925,160.83v21.13c-2.63-0.01-5.26-0.01-7.89-0.01c-1.79-0.01-3.59-0.01-5.38-0.01
					c-5.04,0-10.08,0.01-15.1,0.03v-21.14c0-5.75,5.71-10.42,12.76-10.42h2.85C257.215,150.41,262.925,155.08,262.925,160.83z"/>
				<path fill="#B7897C" d="M260.095,251.36c-0.16-0.16-0.33-0.31-0.49-0.46C259.765,251.05,259.935,251.2,260.095,251.36z"/>
				<path fill="#B7897C" d="M209.755,162.67l0.2,19.45c-9.45,0.08-18.91,0.18-28.36,0.31l-0.2-19.41
					c-0.1-5.75,5.54-10.49,12.59-10.58l2.84-0.03C203.875,152.32,209.665,156.92,209.755,162.67z"/>
				<path fill="#B7897C" d="M163.955,262.44c0,0.02,0,0.05,0,0.07c-0.25,0.02-0.5,0.04-0.75,0.06c-0.18,0.02-0.36,0.03-0.54,0.05
					c-0.57,0.05-1.15,0.1-1.73,0.15c-0.48,0.04-0.96,0.08-1.43,0.13c-0.16,0.01-0.32,0.03-0.48,0.04c-0.3,0.03-0.59,0.05-0.89,0.08
					c-0.34,0.03-0.68,0.06-1.01,0.09c-0.26,0.03-0.52,0.05-0.78,0.07c-1.02,0.09-1.99,0.18-2.89,0.27c-0.2,0.01-0.39,0.03-0.58,0.05
					c-0.38,0.03-0.75,0.07-1.09,0.1c-0.17,0.01-0.34,0.03-0.5,0.05c-0.59,0.05-1.12,0.1-1.57,0.14c-0.17,0.02-0.33,0.03-0.47,0.05
					c-0.78,0.07-1.23,0.11-1.23,0.11c-1.29,0.13-2.57,0.26-3.84,0.4c-2.85,0.3-5.64,0.62-8.39,0.94c-0.06-0.33-0.11-0.65-0.13-0.98
					l-4.34-58.16c0.03,0,0.06,0,0.08,0c0.99-0.03,2-0.05,3.01-0.07c0.19,0,0.37-0.01,0.56-0.01c0.94-0.02,1.88-0.04,2.84-0.06
					c0.14,0,0.28-0.01,0.42-0.01c0.97-0.02,1.96-0.04,2.96-0.06c0.16,0,0.32-0.01,0.48-0.01c1.06-0.02,2.12-0.04,3.19-0.07
					c0.07,0,0.15,0,0.22,0c4.74-0.09,9.66-0.19,14.74-0.28L163.955,262.44z"/>
				<path fill="#B7897C" d="M163.205,262.57c-0.18,0.02-0.36,0.04-0.54,0.05C162.845,262.6,163.025,262.59,163.205,262.57z"/>
				<path fill="#B7897C" d="M159.505,262.9c0.47-0.05,0.95-0.09,1.43-0.13C160.455,262.82,159.985,262.86,159.505,262.9z"/>
				<path fill="#B7897C" d="M159.025,262.94c-0.3,0.03-0.6,0.06-0.89,0.08C158.435,262.99,158.725,262.97,159.025,262.94z"/>
				<path fill="#B7897C" d="M157.125,170.1l0.94,12.7c-9.46,0.17-18.93,0.36-28.39,0.57l-1.34-18.06
					c-0.43-5.74,4.93-10.77,11.96-11.23l2.84-0.19c7.03-0.46,13.08,3.81,13.5,9.55L157.125,170.1z"/>
				<path fill="#B7897C" d="M157.125,263.11c-0.26,0.03-0.52,0.05-0.78,0.07C156.605,263.16,156.865,263.14,157.125,263.11z"/>
				<path fill="#B7897C" d="M153.455,263.45c-0.2,0.02-0.39,0.03-0.58,0.05C153.065,263.48,153.255,263.46,153.455,263.45z"/>
				<path fill="#B7897C" d="M151.785,263.6c-0.17,0.02-0.34,0.03-0.5,0.05C151.445,263.63,151.615,263.61,151.785,263.6z"/>
				<path fill="#B7897C" d="M149.715,263.79c-0.17,0.02-0.33,0.03-0.47,0.05C149.385,263.82,149.545,263.81,149.715,263.79z"/>
				<path fill="#B7897C" d="M144.175,264.35c-2.84,0.31-5.64,0.62-8.39,0.95v-0.01C138.535,264.97,141.325,264.65,144.175,264.35z"
					/>
				<path fill="#B7897C" d="M107.055,206.73l5.75,61.74c-2.22,0.36-4.4,0.72-6.52,1.1c-0.69,0.12-1.37,0.24-2.05,0.37
					c-2.17,0.39-4.28,0.79-6.33,1.2c-1.17,0.23-2.32,0.47-3.45,0.71c-3.4,0.72-6.61,1.46-9.65,2.23l-6.23-66.63
					c0.34,0.01,0.68,0.02,1.01,0.02c0.17-0.01,0.33-0.01,0.5-0.02c0.25,0.01,0.5,0.02,0.76,0.02c0,0,0.01,0,0.03,0
					c0.05-0.01,0.21-0.01,0.49-0.02c0.22-0.01,0.5-0.02,0.86-0.03c0,0,0,0,0.01,0c0.09,0,0.2,0,0.31-0.01c0.04,0,0.1,0,0.14,0
					c0.27-0.01,0.56-0.02,0.88-0.03c0.03,0,0.06,0,0.09,0c0.15-0.01,0.3-0.01,0.46-0.02c0.06,0,0.11,0,0.16,0
					c0.16-0.01,0.32-0.01,0.48-0.01c0.12-0.01,0.24-0.01,0.36-0.02c0.55-0.01,1.14-0.03,1.79-0.05c0.31-0.01,0.62-0.02,0.94-0.03
					c0.18,0,0.37-0.01,0.56-0.01c0.1-0.01,0.2-0.01,0.31-0.01c1.14-0.04,2.4-0.07,3.77-0.11c0.11,0,0.21-0.01,0.32-0.01
					c0.97-0.03,1.99-0.06,3.06-0.09c0.17,0,0.33-0.01,0.5-0.01c1.76-0.05,3.66-0.1,5.68-0.15c0.21-0.01,0.42-0.01,0.63-0.02
					c0.33-0.01,0.67-0.02,1.01-0.03c0.2,0,0.41-0.01,0.61-0.01C105.195,206.77,106.115,206.75,107.055,206.73z"/>
				<path fill="#B7897C" d="M103.505,175.62l0.91,8.35c-0.02,0-0.05,0-0.07,0c-5.38,0.14-10.76,0.29-16.15,0.45
					c-3.99,0.11-8.2-0.08-12.2,0.51l-1.43-13.08c-0.63-5.72,4.55-10.94,11.56-11.65l2.83-0.28c7.01-0.71,13.2,3.35,13.82,9.07
					L103.505,175.62z"/>
				<g>
					<path fill="#9B746A" d="M421.705,207.47c0,0-0.29-0.01-0.83-0.03c-0.3-0.01-0.67-0.02-1.11-0.03c-0.05,0-0.1-0.01-0.15,0
						c-1.66,0-3.34-0.07-5.02-0.12c-3.36-0.1-6.72-0.19-10.08-0.28c-3.64-0.1-7.27-0.19-10.91-0.28l-1.117,9.974
						c0.372,0.01,0.745,0.017,1.117,0.026v-0.04c9.22,0.23,16.53,0.44,21.39,0.58c0.05,0,0.11,0,0.16,0
						c0.83,0.02,1.58,0.05,2.26,0.07c0.01,0,0.01,0,0.02,0c0.22,0,0.43,0.01,0.63,0.02c0.05,0,0.09,0,0.14,0
						c0.53,0.02,1,0.03,1.41,0.05c0.05-0.01,0.1,0,0.15,0c0.394-0.001,0.787-0.007,1.179-0.018l1.111-9.932
						C421.935,207.46,421.825,207.47,421.705,207.47z"/>
					<path fill="#9B746A" d="M337.925,205.56l-0.725,9.989c0.242,0.004,0.483,0.007,0.725,0.011v-0.03
						c5.05,0.09,9.95,0.18,14.69,0.26c0.08,0.01,0.17,0.01,0.26,0.01c2.26,0.04,4.49,0.09,6.68,0.13c0.12,0,0.24,0,0.36,0.01
						c1.03,0.02,2.05,0.04,3.07,0.06c0.08,0,0.16,0,0.25,0c0.83,0.023,1.646,0.038,2.459,0.054l0.74-9.944
						C356.935,205.9,347.425,205.72,337.925,205.56z"/>
					<path fill="#9B746A" d="M299.505,205.02c-4.42-0.05-8.84-0.09-13.26-0.12l-0.357,9.998c0.119,0.001,0.239,0.001,0.357,0.002
						v-0.01c0.01,0,0.03,0,0.05,0c7.24,0.05,14.38,0.13,21.39,0.21c0.03,0,0.06,0,0.09,0c2.208,0.028,4.396,0.057,6.576,0.085
						l0.374-9.975C309.655,205.14,304.575,205.07,299.505,205.02z"/>
					<path fill="#9B746A" d="M249.655,214.73c4.42,0,8.85,0.01,13.27,0.02v-9.98c-9.42-0.04-18.84-0.04-28.27-0.01
						c-0.03,0-0.07,0-0.1,0c0,0,0,4.051,0,10c0.03,0,0.07,0,0.1,0C239.645,214.74,244.645,214.73,249.655,214.73z"/>
					<path fill="#9B746A" d="M197.095,205.05c-0.1,0-0.19,0-0.28,0c-2.28,0.02-4.55,0.05-6.81,0.08c-0.08,0-0.16,0-0.24,0
						c-2.28,0.03-4.55,0.06-6.8,0.09c0,0,0,0-0.01,0l0.342,9.983c9.347-0.127,18.694-0.232,28.039-0.303
						c0.114-0.001,0.227-0.001,0.34-0.003l-0.34-9.997C206.535,204.95,201.785,204.99,197.095,205.05z"/>
					<path fill="#9B746A" d="M145.075,205.86c-0.07,0-0.15,0-0.22,0c-1.07,0.03-2.13,0.05-3.19,0.07c-0.16,0-0.32,0.01-0.48,0.01
						c-1,0.02-1.99,0.04-2.96,0.06c-0.14,0-0.28,0.01-0.42,0.01c-0.96,0.02-1.9,0.04-2.84,0.06c-0.19,0-0.37,0.01-0.56,0.01
						c-1.01,0.02-2.02,0.04-3.01,0.07c-0.02,0-0.05,0-0.08,0l0.743,9.957c4.5-0.095,8.999-0.189,13.497-0.277
						c4.75-0.09,9.51-0.18,14.26-0.26c0.242-0.004,0.484-0.007,0.727-0.011l-0.727-9.979
						C154.735,205.67,149.815,205.77,145.075,205.86z"/>
					<path fill="#9B746A" d="M104.295,206.8c-0.2,0-0.41,0.01-0.61,0.01c-0.34,0.01-0.68,0.02-1.01,0.03
						c-0.21,0.01-0.42,0.01-0.63,0.02c-2.02,0.05-3.92,0.1-5.68,0.15c-0.17,0-0.33,0.01-0.5,0.01c-1.07,0.03-2.09,0.06-3.06,0.09
						c-0.11,0-0.21,0.01-0.32,0.01c-1.37,0.04-2.63,0.07-3.77,0.11c-0.11,0-0.21,0-0.31,0.01c-0.19,0-0.38,0.01-0.56,0.01
						c-0.32,0.01-0.63,0.02-0.94,0.03c-0.65,0.02-1.24,0.04-1.79,0.05c-0.12,0.01-0.24,0.01-0.36,0.02c-0.16,0-0.32,0-0.48,0.01
						c-0.05,0-0.1,0-0.16,0c-0.16,0.01-0.31,0.01-0.46,0.02c-0.03,0-0.06,0-0.09,0c-0.32,0.01-0.61,0.02-0.88,0.03
						c-0.04,0-0.1,0-0.14,0c-0.11,0.01-0.22,0.01-0.31,0.01c-0.01,0-0.01,0-0.01,0c-0.36,0.01-0.64,0.02-0.86,0.03
						c-0.28,0.01-0.44,0.01-0.49,0.02c-0.02,0-0.03,0-0.03,0c-0.26,0-0.51-0.01-0.76-0.02c-0.17,0.01-0.33,0.01-0.5,0.02
						c-0.33,0-0.67-0.01-1.01-0.02l0.933,9.977c0.012,0.001,0.025,0.002,0.037,0.003c0.18,0.01,0.36,0.02,0.54,0.02
						c9.297-0.298,18.596-0.552,27.895-0.786l-0.925-9.934C106.115,206.75,105.195,206.77,104.295,206.8z"/>
				</g>
				<g>
					<path fill="#B7897C" d="M187.132,252.34l4.72-14.24l4.36-13.17c0,0,0,0.01,0.01,0.01c-0.01-0.03-0.01-0.06-0.01-0.09
						c0-1,2.34-1.8,5.23-1.8c2.88,0,5.22,0.81,5.22,1.8l4.26,13.08l1.717,5.269l-0.013-0.389l-1.29-37.91
						c-4.8,0.05-9.55,0.09-14.24,0.15c-0.1,0-0.19,0-0.28,0c-2.28,0.02-4.55,0.05-6.81,0.08c-0.08,0-0.16,0-0.24,0
						c-2.28,0.03-4.55,0.06-6.8,0.09c0,0,0,0-0.01,0l1.852,54.148L187.132,252.34z"/>
				</g>
				<path opacity="0.1" fill="#312622" d="M448.425,292.55c0-6.85-12.32-13.22-33.43-18.52c-0.63-0.16-1.26-0.31-1.9-0.46
					c-0.61-0.15-1.23-0.3-1.85-0.44c-1.9-0.45-3.86-0.89-5.88-1.31c-2.02-0.43-4.11-0.84-6.25-1.25c-3.93-0.76-8.06-1.48-12.38-2.17
					c-7.67-1.22-15.93-2.35-24.69-3.36c-2.41-0.28-4.86-0.55-7.35-0.8c-0.67-0.08-1.36-0.15-2.04-0.21
					c-2.1-0.22-4.24-0.43-6.39-0.63c-1.48-0.1-3.03-0.21-4.6-0.33c-0.52-0.04-1.05-0.08-1.58-0.12c-0.14-0.01-0.28-0.02-0.42-0.03
					c-0.75-0.05-1.51-0.11-2.26-0.17c-0.16-0.01-0.33-0.02-0.49-0.04c-0.53-0.04-1.05-0.08-1.57-0.12
					c-0.52-0.04-1.04-0.08-1.55-0.12c-7.54-0.59-13.9-1.12-13.9-1.12c-0.942-0.059-1.902-0.112-2.85-0.169l13.121,31.234
					c0.856,2.038-0.23,4.435-2.434,5.361l-1.075,0.202c-0.357,0.313-0.778,0.576-1.248,0.774l-18.43,3.404
					c-2.403,0.554-4.618,0.031-5.501-1.941l-3.685,0.29l-16.092,1.25l-10.889,0.854l-14.957,1.164l-13.831,1.081
					c0,0,0.009-0.004,0.005-0.013c-0.024,0.021-0.052,0.032-0.079,0.044c-0.922,0.387-2.566-1.46-3.685-4.125
					c-1.115-2.655-1.275-5.126-0.362-5.51l10.409-8.994l12.016-10.384l8.246-7.12l10.614-9.172
					c-2.124-0.054-4.257-0.103-6.403-0.142c2.16-3.7,4.32-6.67,4.32-6.67s-1.42-1.24-7.73,2c-0.46-2.45-1.16-7.62,0.35-9.25
					c-2.44,1.9-5.52,6.74-6.26,9.57c-0.11-0.2-0.3-0.46-0.54-0.77c-0.38-0.46-0.88-1.02-1.46-1.62c-0.19-0.19-0.38-0.38-0.58-0.58
					c-0.25-0.25-0.52-0.51-0.79-0.76c-0.16-0.16-0.33-0.31-0.49-0.46c-1.75-1.61-3.58-3.05-4.34-3.14c3.09,2.35,5.22,5.42,6.07,9.09
					c0.19,0.8,0.3,1.61,0.37,2.43c-3.87-0.04-7.77-0.06-11.71-0.06c-3.46,0-6.91,0.01-10.33,0.04c3.07-5.3,6.21-9.61,6.21-9.61
					s-1.97-1.72-10.72,2.78c-0.64-3.4,0.06-15.81,2.16-18.06c-0.11,0.08-0.21,0.17-0.32,0.27c-0.11,0.1-0.23,0.21-0.34,0.33
					c-0.65,0.65-1.36,1.56-2.1,2.64c-3.18,4.63-6.82,12.27-7.6,15.26c-1.21-2.2-9.26-9.91-11.37-10.16c4.28,3.26,7.24,7.5,8.42,12.6
					c0.33,1.38,0.5,2.77,0.6,4.18c-2.218,0.046-4.418,0.101-6.61,0.161l1.216,3.739l5.31,16.3l0.62,1.89
					c1.95,0.22,3.19,1.9,3.58,4.28l4,18.31c0,0.51-0.08,1-0.23,1.45l0.23,1.07c0,2.39-1.79,4.32-4,4.32h-55.18
					c-2.21,0-4-1.93-4-4.32l0.23-1.07c-0.15-0.45-0.23-0.94-0.23-1.45l4-18.31c0.42-2.43,1.76-4.27,3.92-4.32l1.16-3.51l5.08-15.32
					l0.533-1.611c-4.77,0.281-9.453,0.596-14.039,0.931c-1.17,0.06-3.5,0.24-6.24,0.48c-0.25,0.02-0.5,0.04-0.75,0.06
					c-0.18,0.02-0.36,0.04-0.54,0.05c-0.57,0.05-1.15,0.1-1.73,0.15c-0.48,0.05-0.95,0.09-1.43,0.13c-0.16,0.01-0.32,0.03-0.48,0.04
					c-0.3,0.03-0.6,0.06-0.89,0.08c-0.34,0.03-0.68,0.06-1.01,0.09c-0.26,0.03-0.52,0.05-0.78,0.07c-1.02,0.09-1.99,0.18-2.89,0.27
					c-0.2,0.02-0.39,0.03-0.58,0.05c-0.38,0.03-0.75,0.07-1.09,0.1c-0.17,0.02-0.34,0.03-0.5,0.05c-0.59,0.05-1.12,0.1-1.57,0.14
					c-0.17,0.02-0.33,0.03-0.47,0.05c-0.78,0.07-1.23,0.11-1.23,0.11c-1.29,0.13-2.57,0.26-3.84,0.4c-2.84,0.31-5.64,0.62-8.39,0.95
					v-0.01c-8.13,0.97-15.81,2.03-22.98,3.18c-2.22,0.36-4.4,0.72-6.52,1.1c-0.69,0.12-1.37,0.24-2.05,0.37
					c-2.17,0.39-4.28,0.79-6.33,1.2c-1.17,0.24-2.32,0.47-3.45,0.71c-3.4,0.72-6.61,1.46-9.65,2.23
					c-20.99,5.28-33.23,11.63-33.23,18.47c0,6.35,10.59,12.29,28.98,17.35c-1.43,1.77-2.18,3.59-2.18,5.44
					c0,18.92,76.93,34.25,171.81,34.25c94.89,0,171.81-15.33,171.81-34.25c0-1.88-0.77-3.73-2.24-5.53
					C437.945,304.78,448.425,298.87,448.425,292.55z"/>
				<path fill="#B7897C" d="M285.607,251.283l15.332-10.779c0.47-0.198,0.953-0.314,1.426-0.35l0.897-0.627
					c2.204-0.926,4.676-0.023,5.532,2.015l4.193,9.982l1.738-46.314c-5.07-0.07-10.15-0.14-15.22-0.19
					c-4.42-0.05-8.84-0.09-13.26-0.12l-1.687,47.177C284.873,251.797,285.216,251.528,285.607,251.283z"/>
			</g>
			<g>
				
					<path fill="none" stroke="#312622" stroke-width="1.4173" stroke-linecap="round" stroke-linejoin="round" stroke-miterlimit="10" d="
					M129.675,183.37v0.02c6.47-0.14,13.43-0.29,20.79-0.42c0.06-0.01,0.12-0.01,0.18-0.01c1.18-0.02,2.36-0.04,3.56-0.06
					c0.04-0.01,0.09-0.01,0.13-0.01c1.23-0.02,2.48-0.04,3.73-0.07v-0.02l-0.94-12.7l-0.49-6.66c-0.42-5.74-6.47-10.01-13.5-9.55
					l-2.84,0.19c-7.03,0.46-12.39,5.49-11.96,11.23L129.675,183.37z"/>
				
					<path fill="none" stroke="#312622" stroke-width="1.4173" stroke-linecap="round" stroke-linejoin="round" stroke-miterlimit="10" d="
					M181.595,182.43v0.02c0,0,0.01,0,0.02,0c2.27-0.03,4.56-0.06,6.86-0.09c0.05,0,0.1,0,0.15,0c6.95-0.09,14.06-0.17,21.28-0.23
					c0.02,0,0.04,0,0.05,0v-0.01l-0.2-19.45c-0.09-5.75-5.88-10.35-12.93-10.26l-2.84,0.03c-7.05,0.09-12.69,4.83-12.59,10.58
					L181.595,182.43z"/>
				
					<path fill="none" stroke="#312622" stroke-width="1.4173" stroke-linecap="round" stroke-linejoin="round" stroke-miterlimit="10" d="
					M262.925,181.96v-21.13c0-5.75-5.71-10.42-12.76-10.42h-2.85c-7.05,0-12.76,4.67-12.76,10.42v21.14
					c5.02-0.02,10.06-0.03,15.1-0.03c1.79,0,3.59,0,5.38,0.01C257.665,181.95,260.295,181.95,262.925,181.96z"/>
				
					<path fill="none" stroke="#312622" stroke-width="1.4173" stroke-linecap="round" stroke-linejoin="round" stroke-miterlimit="10" d="
					M315.715,182.41l0.44-19c0.21-5.75-5.32-10.6-12.37-10.83l-2.84-0.09c-7.04-0.24-12.93,4.24-13.14,9.99l-0.46,19.62
					c9.66,0.08,19.15,0.19,28.35,0.31C315.705,182.41,315.705,182.41,315.715,182.41z"/>
				
					<path fill="none" stroke="#312622" stroke-width="1.4173" stroke-linecap="round" stroke-linejoin="round" stroke-miterlimit="10" d="
					M347.195,182.9c1.17,0.03,2.32,0.05,3.47,0.07c0.08,0,0.16,0,0.24,0c6,0.11,11.75,0.23,17.18,0.34l1.29-17.37
					c0.42-5.74-4.93-10.77-11.97-11.23l-2.83-0.19c-7.03-0.47-13.08,3.81-13.5,9.55l-1.38,18.7c2.51,0.04,4.99,0.09,7.43,0.13
					C347.145,182.9,347.175,182.9,347.195,182.9z"/>
				
					<path fill="none" stroke="#312622" stroke-width="1.4173" stroke-linecap="round" stroke-linejoin="round" stroke-miterlimit="10" d="
					M75.995,184.93l0.02,0.2c0.42-0.08,0.85-0.15,1.29-0.21c0.18-0.03,0.37-0.05,0.55-0.07c0.33-0.03,0.65-0.07,0.98-0.09
					c0.17-0.01,0.34-0.03,0.51-0.04c0.49-0.02,0.99-0.04,1.5-0.04c0,0,0.19-0.01,0.52-0.02c0.25-0.01,0.59-0.02,1.03-0.03
					c0.04,0,0.09-0.01,0.14-0.01c1.31-0.04,3.38-0.1,6.13-0.18c0.02,0,0.04,0,0.05,0c3.94-0.12,9.25-0.27,15.7-0.44v-0.03
					l-0.91-8.35l-0.73-6.63c-0.62-5.72-6.81-9.78-13.82-9.07l-2.83,0.28c-7.01,0.71-12.19,5.93-11.56,11.65L75.995,184.93z"/>
				
					<path fill="none" stroke="#312622" stroke-width="1.4173" stroke-linecap="round" stroke-linejoin="round" stroke-miterlimit="10" d="
					M401.925,184.12c0.83,0.02,1.63,0.04,2.41,0.06c0.05,0,0.1,0,0.15,0c1.66,0.05,3.21,0.09,4.64,0.13c0.02,0,0.04,0,0.06,0
					c2.89,0.08,5.33,0.15,7.26,0.21c0.02,0,0.03,0,0.04,0c0.92,0.03,1.73,0.05,2.42,0.07c0.09,0,0.17,0.01,0.25,0.01
					c0.24,0,0.45,0.01,0.66,0.02c0.08,0,0.17,0,0.25,0.01c0.5,0.01,0.88,0.02,1.15,0.03c0.32,0.01,0.49,0.02,0.49,0.02
					c0.5,0,0.99,0.01,1.48,0.04c0.47,0.03,0.93,0.07,1.39,0.12l1.42-12.99c0.62-5.72-4.56-10.94-11.57-11.65l-2.82-0.28
					c-7.02-0.71-13.21,3.35-13.83,9.07l-1.64,14.98c0.04,0,0.07,0,0.1,0c1.94,0.05,3.79,0.1,5.54,0.14
					C401.825,184.11,401.875,184.12,401.925,184.12z"/>
				
					<path fill="none" stroke="#312622" stroke-width="1.4173" stroke-linecap="round" stroke-linejoin="round" stroke-miterlimit="10" d="
					M419.765,207.41c3.04-0.01,6.05-0.26,9-1.33c3.59-1.3,7.61-3.91,8.26-7.99c0.53-3.32-0.28-6.54-2.8-8.85
					c-3.63-3.32-8.98-4.56-13.78-4.56c-5.12-0.13-10.23-0.31-15.35-0.45c-24.07-0.65-48.14-1.16-72.22-1.55
					c-25.94-0.42-51.89-0.69-77.84-0.73c-15.03-0.02-30.05,0.04-45.08,0.17c-9.45,0.08-18.91,0.18-28.36,0.31
					c-1.46,0.02-2.92,0.04-4.38,0.06c-6.38,0.09-12.76,0.2-19.15,0.31c-9.46,0.17-18.93,0.36-28.39,0.57
					c-8.42,0.18-16.84,0.38-25.26,0.6c-0.02,0-0.05,0-0.07,0c-5.38,0.14-10.76,0.29-16.15,0.45c-3.99,0.11-8.2-0.08-12.2,0.51
					c-0.64,0.08-1.27,0.2-1.89,0.33c-4.13,0.9-8.98,3.09-10.67,7.28c-1.14,2.85-0.67,6.74,1.22,9.13c3.2,4.02,8.91,5.6,13.92,5.78
					c0.34,0.01,0.68,0.02,1.01,0.02c0.17-0.01,0.33-0.01,0.5-0.02c21.82-0.7,43.65-1.19,65.47-1.62c4.75-0.09,9.51-0.18,14.26-0.26
					c17.17-0.31,34.35-0.54,51.52-0.67c3.23-0.04,6.45-0.06,9.68-0.08c4.52-0.03,9.03-0.05,13.54-0.06"/>
				
					<path fill="none" stroke="#312622" stroke-width="1.4173" stroke-linecap="round" stroke-linejoin="round" stroke-miterlimit="10" d="
					M234.655,204.76c9.43-0.03,18.85-0.03,28.27,0.01c7.78,0.02,15.55,0.07,23.32,0.13c4.42,0.03,8.84,0.07,13.26,0.12
					c5.07,0.05,10.15,0.12,15.22,0.19c7.73,0.1,15.47,0.21,23.2,0.35c9.5,0.16,19.01,0.34,28.51,0.55c2.59,0.04,5.19,0.1,7.78,0.16
					c6.46,0.14,12.93,0.29,19.39,0.46c3.64,0.09,7.27,0.18,10.91,0.28c3.36,0.09,6.72,0.18,10.08,0.28
					c1.68,0.05,3.36,0.12,5.02,0.12"/>
				
					<path fill="none" stroke="#312622" stroke-width="1.4173" stroke-linecap="round" stroke-linejoin="round" stroke-miterlimit="10" d="
					M104.235,269.94c0.68-0.13,1.36-0.25,2.05-0.37"/>
				
					<path fill="none" stroke="#312622" stroke-width="1.4173" stroke-linecap="round" stroke-linejoin="round" stroke-miterlimit="10" d="
					M94.455,271.85c1.13-0.24,2.28-0.48,3.45-0.71"/>
				
					<path fill="none" stroke="#312622" stroke-width="1.4173" stroke-linecap="round" stroke-linejoin="round" stroke-miterlimit="10" d="
					M112.805,268.47l-5.75-61.74c-0.94,0.02-1.86,0.04-2.76,0.07c-0.2,0-0.41,0.01-0.61,0.01c-0.34,0.01-0.68,0.02-1.01,0.03
					c-0.21,0.01-0.42,0.01-0.63,0.02c-2.02,0.05-3.92,0.1-5.68,0.15c-0.17,0-0.33,0.01-0.5,0.01c-1.07,0.03-2.09,0.06-3.06,0.09
					c-0.11,0-0.21,0.01-0.32,0.01c-1.37,0.04-2.63,0.07-3.77,0.11c-0.11,0-0.21,0-0.31,0.01c-0.19,0-0.38,0.01-0.56,0.01
					c-0.32,0.01-0.63,0.02-0.94,0.03c-0.65,0.02-1.24,0.04-1.79,0.05c-0.12,0.01-0.24,0.01-0.36,0.02c-0.16,0-0.32,0-0.48,0.01
					c-0.05,0-0.1,0-0.16,0c-0.16,0.01-0.31,0.01-0.46,0.02c-0.03,0-0.06,0-0.09,0c-0.32,0.01-0.61,0.02-0.88,0.03
					c-0.04,0-0.1,0-0.14,0c-0.11,0.01-0.22,0.01-0.31,0.01c-0.01,0-0.01,0-0.01,0c-0.36,0.01-0.64,0.02-0.86,0.03
					c-0.28,0.01-0.44,0.01-0.49,0.02c-0.02,0-0.03,0-0.03,0c-0.26,0-0.51-0.01-0.76-0.02c-0.18,0-0.36-0.01-0.54-0.02
					c-0.33-0.02-0.66-0.04-0.98-0.07l0.01,0.09l6.23,66.63"/>
				
					<path fill="none" stroke="#312622" stroke-width="1.4173" stroke-linecap="round" stroke-linejoin="round" stroke-miterlimit="10" d="
					M236.655,234.97c0.11-0.12,0.23-0.23,0.34-0.33"/>
				
					<path fill="none" stroke="#312622" stroke-width="1.4173" stroke-linecap="round" stroke-linejoin="round" stroke-miterlimit="10" d="
					M262.925,254.32v-49.55v-0.02c-4.42-0.01-8.85-0.02-13.27-0.02c-5.01,0-10.01,0.01-15,0.03c-0.03,0-0.07,0-0.1,0
					c0,0,0,17.22,0,32.85"/>
				
					<path fill="none" stroke="#312622" stroke-width="1.4173" stroke-linecap="round" stroke-linejoin="round" stroke-miterlimit="10" d="
					M260.885,252.12c0.2,0.2,0.39,0.39,0.58,0.58"/>
				
					<path fill="none" stroke="#312622" stroke-width="1.4173" stroke-linecap="round" stroke-linejoin="round" stroke-miterlimit="10" d="
					M411.245,273.13c0.62,0.14,1.24,0.29,1.85,0.44"/>
				
					<path fill="none" stroke="#312622" stroke-width="1.4173" stroke-linecap="round" stroke-linejoin="round" stroke-miterlimit="10" d="
					M399.115,270.57c2.15,0.41,4.23,0.82,6.25,1.25"/>
				
					<path fill="none" stroke="#312622" stroke-width="1.4173" stroke-linecap="round" stroke-linejoin="round" stroke-miterlimit="10" d="
					M414.995,274.03c0.11-2.63,0.18-5.09,0.23-5.5l6.83-61.07c-0.12,0-0.23,0.01-0.35,0.01c0,0-0.29-0.01-0.83-0.03
					c-0.3-0.01-0.67-0.02-1.11-0.03c-0.05,0-0.1-0.01-0.15,0c-0.41-0.02-0.88-0.03-1.41-0.05c-0.05,0-0.09,0-0.14,0
					c-0.2-0.01-0.41-0.02-0.63-0.02c-0.01,0-0.01,0-0.02,0c-0.68-0.02-1.43-0.05-2.26-0.07c-0.05,0-0.11,0-0.16,0
					c-4.86-0.14-12.17-0.35-21.39-0.58v0.04l-6.6,58.94c-0.11,0.99-0.21,1.87-0.27,2.73"/>
				
					<path fill="none" stroke="#312622" stroke-width="1.417" stroke-linecap="round" stroke-linejoin="round" stroke-miterlimit="10" d="
					M163.955,262.51c0-0.02,0-0.05,0-0.07l-4.14-56.86c-5.08,0.09-10,0.19-14.74,0.28c-0.07,0-0.15,0-0.22,0
					c-1.07,0.03-2.13,0.05-3.19,0.07c-0.16,0-0.32,0.01-0.48,0.01c-1,0.02-1.99,0.04-2.96,0.06c-0.14,0-0.28,0.01-0.42,0.01
					c-0.96,0.02-1.9,0.04-2.84,0.06c-0.19,0-0.37,0.01-0.56,0.01c-1.01,0.02-2.02,0.04-3.01,0.07c-0.02,0-0.05,0-0.08,0l4.34,58.16
					c0.02,0.33,0.07,0.65,0.13,0.98"/>
				
					<path fill="none" stroke="#312622" stroke-width="1.4173" stroke-linecap="round" stroke-linejoin="round" stroke-miterlimit="10" d="
					M352.655,264.03c0.68,0.07,1.36,0.14,2.04,0.21"/>
				
					<path fill="none" stroke="#312622" stroke-width="1.4173" stroke-linecap="round" stroke-linejoin="round" stroke-miterlimit="10" d="
					M340.085,262.95c0.53,0.04,1.05,0.08,1.58,0.12"/>
				
					<path fill="none" stroke="#312622" stroke-width="1.4173" stroke-linecap="round" stroke-linejoin="round" stroke-miterlimit="10" d="
					M337.405,262.75c0.75,0.06,1.51,0.12,2.26,0.17"/>
				
					<path fill="none" stroke="#312622" stroke-width="1.4173" stroke-linecap="round" stroke-linejoin="round" stroke-miterlimit="10" d="
					M335.345,262.59c0.52,0.04,1.04,0.08,1.57,0.12"/>
				
					<path fill="none" stroke="#312622" stroke-width="1.4173" stroke-linecap="round" stroke-linejoin="round" stroke-miterlimit="10" d="
					M362.045,265.04c0-0.03,0.01-0.07,0.01-0.1l4.38-58.83v-0.04c-1.05-0.02-2.12-0.04-3.2-0.07c-0.09,0-0.17,0-0.25,0
					c-1.02-0.02-2.04-0.04-3.07-0.06c-0.12-0.01-0.24-0.01-0.36-0.01c-2.19-0.04-4.42-0.09-6.68-0.13c-0.09,0-0.18,0-0.26-0.01
					c-4.74-0.08-9.64-0.17-14.69-0.26v0.03l-4.13,56.91"/>
				<g>
					
						<path fill="none" stroke="#312622" stroke-width="1.4173" stroke-linecap="round" stroke-linejoin="round" stroke-miterlimit="10" d="
						M414.995,274.03c-0.63-0.16-1.26-0.31-1.9-0.46c-0.61-0.15-1.23-0.3-1.85-0.44c-1.9-0.45-3.86-0.89-5.88-1.31
						c-2.02-0.43-4.11-0.84-6.25-1.25c-3.93-0.76-8.06-1.48-12.38-2.17c-7.67-1.22-15.93-2.35-24.69-3.36
						c-2.41-0.28-4.86-0.55-7.35-0.8c-0.67-0.08-1.36-0.15-2.04-0.21c-2.1-0.22-4.24-0.43-6.39-0.63c-1.48-0.1-3.03-0.21-4.6-0.33
						c-0.52-0.04-1.05-0.08-1.58-0.12c-0.14-0.01-0.28-0.02-0.42-0.03c-0.75-0.05-1.51-0.11-2.26-0.17
						c-0.16-0.01-0.33-0.02-0.49-0.04c-0.53-0.04-1.05-0.08-1.57-0.12c-0.52-0.04-1.04-0.08-1.55-0.12
						c-7.54-0.59-13.9-1.12-13.9-1.12c-0.942-0.059-1.902-0.112-2.85-0.169"/>
					
						<path fill="none" stroke="#312622" stroke-width="1.4173" stroke-linecap="round" stroke-linejoin="round" stroke-miterlimit="10" d="
						M279.188,259.582c-2.124-0.054-4.257-0.103-6.403-0.142c2.16-3.7,4.32-6.67,4.32-6.67s-1.42-1.24-7.73,2
						c-0.46-2.45-1.16-7.62,0.35-9.25c-2.44,1.9-5.52,6.74-6.26,9.57c-0.11-0.2-0.3-0.46-0.54-0.77c-0.38-0.46-0.88-1.02-1.46-1.62
						c-0.19-0.19-0.38-0.38-0.58-0.58c-0.25-0.25-0.52-0.51-0.79-0.76c-0.16-0.16-0.33-0.31-0.49-0.46
						c-1.75-1.61-3.58-3.05-4.34-3.14c3.09,2.35,5.22,5.42,6.07,9.09c0.19,0.8,0.3,1.61,0.37,2.43c-3.87-0.04-7.77-0.06-11.71-0.06
						c-3.46,0-6.91,0.01-10.33,0.04c3.07-5.3,6.21-9.61,6.21-9.61s-1.97-1.72-10.72,2.78c-0.64-3.4,0.06-15.81,2.16-18.06
						c-0.11,0.08-0.21,0.17-0.32,0.27c-0.11,0.1-0.23,0.21-0.34,0.33c-0.65,0.65-1.36,1.56-2.1,2.64
						c-3.18,4.63-6.82,12.27-7.6,15.26c-1.21-2.2-9.26-9.91-11.37-10.16c4.28,3.26,7.24,7.5,8.42,12.6c0.33,1.38,0.5,2.77,0.6,4.18
						c-2.218,0.046-4.418,0.101-6.61,0.161l-2.154-6.621l-4.92-15.1l-4.26-13.08c0-0.99-2.34-1.8-5.22-1.8
						c-2.89,0-5.23,0.8-5.23,1.8c0,0.03,0,0.06,0.01,0.09c-0.01,0-0.01-0.01-0.01-0.01l-4.36,13.17l-4.72,14.24l-2.897,8.759
						c-4.77,0.281-9.453,0.596-14.039,0.931c-1.17,0.06-3.5,0.24-6.24,0.48c-0.25,0.02-0.5,0.04-0.75,0.06
						c-0.18,0.02-0.36,0.03-0.54,0.05c-0.57,0.05-1.15,0.1-1.73,0.15c-0.48,0.04-0.96,0.08-1.43,0.13
						c-0.16,0.01-0.32,0.03-0.48,0.04c-0.3,0.03-0.59,0.05-0.89,0.08c-0.34,0.03-0.68,0.06-1.01,0.09
						c-0.26,0.03-0.52,0.05-0.78,0.07c-1.02,0.09-1.99,0.18-2.89,0.27c-0.2,0.01-0.39,0.03-0.58,0.05c-0.38,0.03-0.75,0.07-1.09,0.1
						c-0.17,0.01-0.34,0.03-0.5,0.05c-0.59,0.05-1.12,0.1-1.57,0.14c-0.17,0.02-0.33,0.03-0.47,0.05c-0.78,0.07-1.23,0.11-1.23,0.11
						c-1.29,0.13-2.57,0.26-3.84,0.4c-2.85,0.3-5.64,0.62-8.39,0.94c-8.13,0.97-15.81,2.03-22.98,3.18c-2.22,0.36-4.4,0.72-6.52,1.1
						c-0.69,0.12-1.37,0.24-2.05,0.37c-2.17,0.39-4.28,0.79-6.33,1.2c-1.17,0.24-2.32,0.47-3.45,0.71c-3.4,0.72-6.61,1.46-9.65,2.23
						"/>
				</g>
				<g>
					
						<path fill="none" stroke="#312622" stroke-width="1.4173" stroke-linecap="round" stroke-linejoin="round" stroke-miterlimit="10" d="
						M187.132,252.34l4.72-14.24l4.36-13.17c0,0,0,0.01,0.01,0.01c-0.01-0.03-0.01-0.06-0.01-0.09c0-1,2.34-1.8,5.23-1.8
						c2.88,0,5.22,0.81,5.22,1.8l4.26,13.08l1.717,5.269l-0.013-0.389l-1.29-37.91c-4.8,0.05-9.55,0.09-14.24,0.15
						c-0.1,0-0.19,0-0.28,0c-2.28,0.02-4.55,0.05-6.81,0.08c-0.08,0-0.16,0-0.24,0c-2.28,0.03-4.55,0.06-6.8,0.09c0,0,0,0-0.01,0
						l1.852,54.148L187.132,252.34z"/>
				</g>
				
					<path fill="none" stroke="#312622" stroke-width="1.4173" stroke-linecap="round" stroke-linejoin="round" stroke-miterlimit="10" d="
					M285.607,251.283l15.332-10.779c0.47-0.198,0.953-0.314,1.426-0.35l0.897-0.627c2.204-0.926,4.676-0.023,5.532,2.015
					l4.193,9.982l1.738-46.314v-0.02h-0.01c-2.3-0.03-4.61-0.06-6.94-0.09c-0.03,0-0.06,0-0.09,0c-7.01-0.08-14.15-0.16-21.39-0.21
					c-0.02,0-0.04,0-0.05,0v0.01l-1.687,47.177C284.873,251.797,285.216,251.528,285.607,251.283z"/>
			</g>
		</g>
	</g>
	<g>
		<g id="XMLID_5_">
			<g>
				<g id="XMLID_6_">
					<g>
						<path fill="#FFFFFF" d="M224.522,279.69c-10.27,11.02-38.65,10.46-45.9-1.66l5.08-15.32c7.47,9.15,26.74,9.38,35.51,0.68
							L224.522,279.69z"/>
						<path fill="#FFFFFF" d="M191.852,238.1c5.72,2.77,13.21,2.72,19.07-0.17l4.92,15.1c-8.22,5.43-21.37,5.2-28.71-0.69
							L191.852,238.1z"/>
						<path fill="#EA6429" d="M226.532,289.88l0.01,0.02c-0.21,0.4-0.48,0.85-0.83,1.32
							C226.052,290.74,226.322,290.29,226.532,289.88z"/>
						<path fill="#EA6429" d="M225.132,291.97c0.21-0.26,0.4-0.51,0.58-0.75C225.552,291.46,225.352,291.71,225.132,291.97z"/>
						<path fill="#EA6429" d="M175.712,290.83c-0.33-0.61-0.56-1.26-0.68-1.96l2.43-7.33l1.16-3.51
							c7.25,12.12,35.63,12.68,45.9,1.66l0.62,1.89h-0.01l1.61,4.92l0.49,1.5c0,0-0.11,0.76-0.69,1.9l-0.01-0.02
							c-0.21,0.41-0.48,0.86-0.82,1.34c-0.18,0.24-0.37,0.49-0.58,0.75c-0.11,0.12-0.22,0.25-0.34,0.38
							c-0.12,0.13-0.24,0.26-0.38,0.39c-0.52,0.54-1.13,1.07-1.86,1.59c-0.16,0.12-0.32,0.24-0.49,0.35
							c-1.97,1.33-4.68,2.6-8.4,3.52c-0.34,0.08-0.68,0.16-1.03,0.24c-0.45,0.1-0.92,0.19-1.39,0.27c-0.35,0.07-0.71,0.13-1.08,0.19
							c-0.58,0.09-1.18,0.18-1.8,0.25c-0.62,0.08-1.25,0.14-1.91,0.2c-0.04,0-0.08,0.01-0.13,0.01c-0.28,0.03-0.57,0.05-0.87,0.07
							c-1.36,0.1-2.8,0.16-4.33,0.17c0,0-0.62-0.02-1.68-0.09c-0.16-0.01-0.33-0.02-0.51-0.03c-0.89-0.06-2.01-0.16-3.28-0.31
							c-0.31-0.03-0.62-0.07-0.94-0.11c-0.64-0.08-1.32-0.18-2.01-0.29c-0.35-0.05-0.7-0.11-1.05-0.17
							c-0.53-0.09-1.07-0.19-1.62-0.3c-0.24-0.05-0.47-0.1-0.71-0.15c-1.43-0.3-2.88-0.67-4.29-1.12c-0.32-0.11-0.65-0.22-0.97-0.33
							c-0.01,0-0.02,0-0.02-0.01c-0.35-0.12-0.7-0.25-1.04-0.38c-0.86-0.34-1.68-0.71-2.45-1.12c-0.46-0.24-0.9-0.5-1.32-0.77
							c-0.42-0.27-0.82-0.56-1.19-0.86c-0.25-0.2-0.48-0.41-0.7-0.62c-0.01,0.01-0.01,0.01-0.01,0c-0.33-0.33-0.64-0.66-0.91-1.01
							c-0.09-0.12-0.17-0.24-0.26-0.36C176.002,291.33,175.852,291.08,175.712,290.83z"/>
						<path fill="#EA6429" d="M224.792,292.35c0.12-0.13,0.23-0.26,0.34-0.38C225.032,292.09,224.922,292.22,224.792,292.35z"/>
						<path fill="#EA6429" d="M224.412,292.74c0.14-0.13,0.26-0.26,0.38-0.39C224.682,292.48,224.552,292.62,224.412,292.74z"/>
						<path fill="#EA6429" d="M222.062,294.68c0.17-0.11,0.33-0.23,0.49-0.35C222.402,294.45,222.232,294.57,222.062,294.68z"/>
						<path fill="#EA6429" d="M187.132,252.34c7.34,5.89,20.49,6.12,28.71,0.69l3.37,10.36c-8.77,8.7-28.04,8.47-35.51-0.68
							L187.132,252.34z"/>
						<path fill="#EA6429" d="M212.632,298.44c0.35-0.08,0.69-0.16,1.03-0.24C213.322,298.28,212.982,298.36,212.632,298.44z"/>
						<path fill="#EA6429" d="M210.162,298.9c0.37-0.06,0.73-0.12,1.08-0.19C210.892,298.78,210.532,298.84,210.162,298.9z"/>
						<path fill="#EA6429" d="M208.362,299.15c-0.61,0.08-1.25,0.14-1.91,0.2C207.112,299.29,207.742,299.23,208.362,299.15z"/>
						<path fill="#EA6429" d="M205.452,299.43c0.3-0.02,0.59-0.04,0.87-0.07C206.032,299.39,205.742,299.41,205.452,299.43z"/>
						<path fill="#C75625" d="M201.122,299.6c1.53-0.01,2.97-0.07,4.33-0.17c0.29-0.02,0.58-0.04,0.87-0.07
							c0.05,0,0.09-0.01,0.13-0.01c0.66-0.06,1.3-0.12,1.91-0.2c0.62-0.07,1.22-0.16,1.8-0.25c0.37-0.06,0.73-0.12,1.08-0.19
							c0.47-0.08,0.94-0.17,1.39-0.27c0.35-0.08,0.69-0.16,1.03-0.24c3.72-0.92,6.43-2.19,8.4-3.52c0.17-0.11,0.34-0.23,0.49-0.35
							c0.73-0.52,1.34-1.05,1.86-1.59c0.14-0.12,0.27-0.26,0.38-0.39c0.13-0.13,0.24-0.26,0.34-0.38c0.22-0.26,0.42-0.51,0.58-0.75
							c0.35-0.47,0.62-0.92,0.83-1.32l0.69,2.1c0,0-1.62,11.36-26.11,11.6c0,0-24.33-0.63-26.09-10.73l0.68-2.04
							c0.13,0.26,0.28,0.5,0.45,0.74c0.07,0.12,0.16,0.24,0.26,0.36c0.26,0.35,0.57,0.69,0.91,1.01c0,0.01,0,0.01,0.01,0
							c0.22,0.23,0.45,0.43,0.7,0.62c0.37,0.31,0.77,0.6,1.19,0.86c0.42,0.28,0.86,0.53,1.32,0.77c0.77,0.41,1.59,0.78,2.45,1.12
							c0.34,0.13,0.69,0.26,1.04,0.38c0,0.01,0.01,0.01,0.02,0.01c0.32,0.11,0.64,0.22,0.97,0.33c1.41,0.45,2.86,0.82,4.29,1.12
							c0.24,0.05,0.47,0.1,0.71,0.15c0.55,0.11,1.09,0.21,1.62,0.3c0.35,0.06,0.7,0.12,1.05,0.17c0.69,0.11,1.37,0.21,2.01,0.29
							c0.32,0.04,0.63,0.08,0.94,0.11c1.27,0.15,2.39,0.25,3.28,0.31c0.18,0.01,0.35,0.02,0.51,0.03
							C200.502,299.58,201.122,299.6,201.122,299.6z"/>
						<path fill="#C75625" d="M200.392,227.05c-0.29-0.02-0.57-0.05-0.84-0.09c-0.02-0.01-0.04-0.01-0.05-0.01
							c-0.16-0.03-0.31-0.06-0.45-0.09c-0.3-0.06-0.57-0.14-0.82-0.23c-0.21-0.07-0.4-0.15-0.57-0.24c-0.22-0.1-0.42-0.22-0.59-0.34
							c-0.08-0.05-0.16-0.11-0.23-0.17c-0.09-0.07-0.17-0.15-0.24-0.23c-0.2-0.23-0.33-0.47-0.36-0.7c-0.01,0-0.01-0.01-0.02-0.01
							c-0.01-0.03-0.01-0.06-0.01-0.09c0-1,2.34-1.8,5.23-1.8c2.88,0,5.22,0.81,5.22,1.8c0,1-2.76,2.23-5.65,2.22
							C200.802,227.07,200.592,227.06,200.392,227.05z"/>
						<path fill="#C75625" d="M199.552,226.96c0.27,0.04,0.55,0.07,0.84,0.09C200.102,227.03,199.812,227,199.552,226.96z"/>
						<path fill="#EA6429" d="M199.442,299.51c-0.16-0.01-0.33-0.02-0.51-0.03C199.112,299.49,199.282,299.5,199.442,299.51z"/>
						<path fill="#EA6429" d="M197.662,226.39c0.17,0.09,0.36,0.17,0.57,0.24c0.25,0.09,0.52,0.17,0.82,0.23
							c0.14,0.03,0.29,0.06,0.45,0.09c0.01,0,0.03,0,0.05,0.01c0.26,0.04,0.55,0.07,0.84,0.09c0.2,0.01,0.41,0.02,0.62,0.02
							c2.89,0.01,5.65-1.22,5.65-2.22l4.26,13.08c-5.86,2.89-13.35,2.94-19.07,0.17l4.36-13.17c0,0,0,0.01,0.01,0.01
							c0.02,0.24,0.16,0.48,0.38,0.71c0.07,0.08,0.15,0.16,0.24,0.23c0.07,0.06,0.15,0.12,0.23,0.17
							C197.242,226.17,197.442,226.29,197.662,226.39z"/>
						<path fill="#EA6429" d="M195.652,299.17c-0.31-0.03-0.62-0.07-0.94-0.11C195.032,299.1,195.342,299.14,195.652,299.17z"/>
						<path fill="#EA6429" d="M191.652,298.6c0.35,0.06,0.7,0.12,1.05,0.17C192.352,298.72,192.002,298.66,191.652,298.6z"/>
						<path fill="#EA6429" d="M189.322,298.15c0.24,0.05,0.47,0.1,0.71,0.15C189.792,298.25,189.562,298.2,189.322,298.15z"/>
						<path fill="#EA6429" d="M185.032,297.03c-0.33-0.11-0.65-0.22-0.97-0.33C184.382,296.81,184.712,296.92,185.032,297.03z"/>
						<path fill="#EA6429" d="M183.002,296.31c0.34,0.13,0.69,0.26,1.04,0.38C183.692,296.57,183.342,296.44,183.002,296.31z"/>
						<path fill="#EA6429" d="M179.232,294.42c0.42,0.27,0.86,0.53,1.32,0.77C180.092,294.95,179.652,294.7,179.232,294.42z"/>
						<path fill="#EA6429" d="M178.042,293.56c0.37,0.3,0.77,0.59,1.19,0.86C178.812,294.16,178.412,293.87,178.042,293.56z"/>
						<path fill="#EA6429" d="M178.042,293.56c-0.25-0.19-0.48-0.39-0.7-0.62C177.562,293.15,177.792,293.36,178.042,293.56z"/>
						<path fill="#EA6429" d="M176.422,291.93c0.27,0.35,0.58,0.68,0.91,1.01C176.992,292.62,176.682,292.28,176.422,291.93z"/>
						<path fill="#EA6429" d="M176.162,291.57c0.09,0.12,0.17,0.24,0.26,0.36C176.322,291.81,176.232,291.69,176.162,291.57z"/>
						<path fill="#EA6429" d="M175.712,290.83c0.14,0.25,0.29,0.5,0.45,0.74C175.992,291.33,175.842,291.09,175.712,290.83z"/>
						<path fill="#EA6429" d="M169.782,305.59l-0.01,0.03c-0.15-0.45-0.23-0.94-0.23-1.45l4-18.31c0.42-2.43,1.76-4.27,3.92-4.32
							l-2.43,7.33c0.12,0.7,0.35,1.35,0.68,1.96l-0.68,2.04c1.76,10.1,26.09,10.73,26.09,10.73c24.49-0.24,26.11-11.6,26.11-11.6
							l-0.69-2.1c0.58-1.14,0.69-1.9,0.69-1.9l-0.49-1.5l-1.6-4.92c1.95,0.22,3.19,1.9,3.58,4.28l4,18.31c0,0.51-0.08,1-0.23,1.45
							l-0.01-0.03c-0.24,0.74-0.66,1.39-1.19,1.89c-0.08,0.07-0.16,0.14-0.24,0.2s-0.17,0.13-0.25,0.18
							c-0.08,0.07-0.17,0.12-0.27,0.17c-0.09,0.05-0.19,0.1-0.28,0.14c-0.16,0.07-0.33,0.13-0.5,0.18
							c-0.06,0.02-0.12,0.04-0.18,0.05c-0.16,0.04-0.32,0.07-0.48,0.08c-0.12,0.01-0.24,0.02-0.37,0.02h-55.18
							c-0.1,0-0.2,0-0.29-0.01c-0.03,0-0.05-0.01-0.08-0.01c-0.16-0.01-0.32-0.04-0.48-0.08c-0.07-0.01-0.14-0.03-0.2-0.05
							c-0.07-0.02-0.14-0.04-0.2-0.07c-0.19-0.06-0.38-0.15-0.56-0.25c-0.1-0.05-0.19-0.1-0.27-0.17c-0.09-0.05-0.17-0.12-0.25-0.18
							c-0.08-0.06-0.16-0.13-0.24-0.2C170.432,306.98,170.022,306.33,169.782,305.59z"/>
						<path fill="#C75625" d="M171.732,308.03c0.18,0.1,0.37,0.19,0.56,0.25c0.06,0.03,0.13,0.05,0.2,0.07
							c0.06,0.02,0.13,0.04,0.2,0.05c0.16,0.04,0.32,0.07,0.48,0.08c0.03,0,0.05,0.01,0.08,0.01c0.09,0.01,0.19,0.01,0.29,0.01
							h55.18c0.13,0,0.25-0.01,0.37-0.02c0.16-0.01,0.32-0.04,0.48-0.08c0.06-0.01,0.12-0.03,0.18-0.05c0.17-0.04,0.34-0.1,0.5-0.18
							c0.09-0.04,0.19-0.09,0.28-0.14c0.1-0.05,0.19-0.1,0.27-0.17c0.09-0.04,0.17-0.1,0.25-0.18c0.08-0.06,0.16-0.13,0.24-0.2
							c0.54-0.48,0.96-1.13,1.2-1.86l0.23,1.07c0,2.39-1.79,4.32-4,4.32h-55.18c-2.21,0-4-1.93-4-4.32l0.23-1.07
							c0.24,0.73,0.66,1.38,1.2,1.86c0.08,0.07,0.16,0.14,0.24,0.2c0.08,0.08,0.16,0.14,0.25,0.18
							C171.542,307.93,171.632,307.98,171.732,308.03z"/>
					</g>
					<g>
						
							<path fill="none" stroke="#312622" stroke-width="1.4173" stroke-linecap="round" stroke-linejoin="round" stroke-miterlimit="10" d="
							M230.252,308.17c-0.16,0.07-0.33,0.13-0.5,0.18"/>
						
							<path fill="none" stroke="#312622" stroke-width="1.4173" stroke-linecap="round" stroke-linejoin="round" stroke-miterlimit="10" d="
							M231.052,307.68c-0.08,0.06-0.17,0.13-0.25,0.18"/>
						
							<path fill="none" stroke="#312622" stroke-width="1.4173" stroke-linecap="round" stroke-linejoin="round" stroke-miterlimit="10" d="
							M170.972,307.48c-0.54-0.5-0.95-1.15-1.19-1.89l-0.01,0.03l-0.23,1.07c0,2.39,1.79,4.32,4,4.32h55.18c2.21,0,4-1.93,4-4.32
							l-0.23-1.07l-0.01-0.03c-0.24,0.74-0.66,1.39-1.19,1.89"/>
						
							<path fill="none" stroke="#312622" stroke-width="1.4173" stroke-linecap="round" stroke-linejoin="round" stroke-miterlimit="10" d="
							M171.462,307.86c-0.09-0.05-0.17-0.12-0.25-0.18"/>
						
							<path fill="none" stroke="#312622" stroke-width="1.4173" stroke-linecap="round" stroke-linejoin="round" stroke-miterlimit="10" d="
							M196.602,225.65c-0.22-0.23-0.36-0.47-0.38-0.71c-0.01-0.03-0.01-0.06-0.01-0.09c0-1,2.34-1.8,5.23-1.8
							c2.88,0,5.22,0.81,5.22,1.8"/>
						
							<path fill="none" stroke="#312622" stroke-width="1.4173" stroke-linecap="round" stroke-linejoin="round" stroke-miterlimit="10" d="
							M200.392,227.05c-0.29-0.02-0.58-0.05-0.84-0.09"/>
						
							<path fill="none" stroke="#312622" stroke-width="1.4173" stroke-linecap="round" stroke-linejoin="round" stroke-miterlimit="10" d="
							M210.922,237.93c-5.86,2.89-13.35,2.94-19.07,0.17"/>
						
							<path fill="none" stroke="#312622" stroke-width="1.4173" stroke-linecap="round" stroke-linejoin="round" stroke-miterlimit="10" d="
							M187.132,252.34c7.34,5.89,20.49,6.12,28.71,0.69"/>
						
							<path fill="none" stroke="#312622" stroke-width="1.4173" stroke-linecap="round" stroke-linejoin="round" stroke-miterlimit="10" d="
							M178.622,278.03c7.25,12.12,35.63,12.68,45.9,1.66"/>
						
							<path fill="none" stroke="#312622" stroke-width="1.4173" stroke-linecap="round" stroke-linejoin="round" stroke-miterlimit="10" d="
							M219.212,263.39c-8.77,8.7-28.04,8.47-35.51-0.68"/>
						
							<path fill="none" stroke="#312622" stroke-width="1.4173" stroke-linecap="round" stroke-linejoin="round" stroke-miterlimit="10" d="
							M177.462,281.54c-2.16,0.05-3.5,1.89-3.92,4.32l-4,18.31c0,0.51,0.08,1,0.23,1.45c0.24,0.73,0.66,1.38,1.2,1.86
							c0.08,0.07,0.16,0.14,0.24,0.2c0.08,0.08,0.16,0.14,0.25,0.18c0.08,0.07,0.17,0.12,0.27,0.17c0.18,0.1,0.37,0.19,0.56,0.25
							c0.06,0.03,0.13,0.05,0.2,0.07c0.06,0.02,0.13,0.04,0.2,0.05c0.16,0.04,0.32,0.07,0.48,0.08c0.03,0,0.05,0.01,0.08,0.01
							c0.09,0.01,0.19,0.01,0.29,0.01h55.18c0.13,0,0.25-0.01,0.37-0.02c0.16-0.01,0.32-0.04,0.48-0.08
							c0.06-0.01,0.12-0.03,0.18-0.05c0.17-0.04,0.34-0.1,0.5-0.18c0.09-0.04,0.19-0.09,0.28-0.14c0.1-0.05,0.19-0.1,0.27-0.17
							c0.09-0.04,0.17-0.1,0.25-0.18c0.08-0.06,0.16-0.13,0.24-0.2c0.54-0.48,0.96-1.13,1.2-1.86c0.15-0.45,0.23-0.94,0.23-1.45
							l-4-18.31c-0.39-2.38-1.63-4.06-3.58-4.28h-0.01l1.61,4.92"/>
						
							<path fill="none" stroke="#312622" stroke-width="1.4173" stroke-linecap="round" stroke-linejoin="round" stroke-miterlimit="10" d="
							M206.662,224.85c0,1-2.76,2.23-5.65,2.22c-0.21,0-0.42-0.01-0.62-0.02c-0.29-0.02-0.57-0.05-0.84-0.09
							c-0.02-0.01-0.04-0.01-0.05-0.01c-0.16-0.03-0.31-0.06-0.45-0.09c-0.3-0.06-0.57-0.14-0.82-0.23
							c-0.21-0.07-0.4-0.15-0.57-0.24c-0.22-0.1-0.42-0.22-0.59-0.34c-0.08-0.05-0.16-0.11-0.23-0.17
							c-0.09-0.07-0.17-0.15-0.24-0.23c-0.2-0.23-0.33-0.47-0.36-0.7c-0.01,0-0.01-0.01-0.02-0.01s-0.01-0.01-0.01-0.01l-4.36,13.17
							l-4.72,14.24l-3.43,10.37l-5.08,15.32l-1.16,3.51l-2.43,7.33c0.12,0.7,0.35,1.35,0.68,1.96c0.13,0.26,0.28,0.5,0.45,0.74
							c0.07,0.12,0.16,0.24,0.26,0.36c0.26,0.35,0.57,0.69,0.91,1.01c0,0.01,0,0.01,0.01,0c0.22,0.23,0.45,0.43,0.7,0.62
							c0.37,0.31,0.77,0.6,1.19,0.86c0.42,0.28,0.86,0.53,1.32,0.77c0.77,0.41,1.59,0.78,2.45,1.12c0.34,0.13,0.69,0.26,1.04,0.38
							c0,0.01,0.01,0.01,0.02,0.01c0.32,0.11,0.64,0.22,0.97,0.33c1.41,0.45,2.86,0.82,4.29,1.12c0.24,0.05,0.47,0.1,0.71,0.15
							c0.55,0.11,1.09,0.21,1.62,0.3c0.35,0.06,0.7,0.12,1.05,0.17c0.69,0.11,1.37,0.21,2.01,0.29c0.32,0.04,0.63,0.08,0.94,0.11
							c1.27,0.15,2.39,0.25,3.28,0.31c0.18,0.01,0.35,0.02,0.51,0.03c1.06,0.07,1.68,0.09,1.68,0.09c1.53-0.01,2.97-0.07,4.33-0.17
							c0.3-0.02,0.59-0.04,0.87-0.07c0.05,0,0.09-0.01,0.13-0.01c0.66-0.06,1.3-0.12,1.91-0.2c0.62-0.07,1.22-0.16,1.8-0.25
							c0.37-0.06,0.73-0.12,1.08-0.19c0.47-0.08,0.94-0.17,1.39-0.27c0.35-0.08,0.69-0.16,1.03-0.24c3.72-0.92,6.43-2.19,8.4-3.52
							c0.17-0.11,0.34-0.23,0.49-0.35c0.73-0.52,1.34-1.05,1.86-1.59c0.14-0.12,0.27-0.26,0.38-0.39c0.13-0.13,0.24-0.26,0.34-0.38
							c0.22-0.26,0.42-0.51,0.58-0.75c0.35-0.47,0.62-0.92,0.83-1.32c0.58-1.14,0.69-1.9,0.69-1.9l-0.49-1.5l-1.6-4.92l-0.62-1.89
							l-5.31-16.3l-3.37-10.36l-4.92-15.1L206.662,224.85z"/>
					</g>
				</g>
			</g>
		</g>
		<g id="XMLID_7_">
			<g>
				<g id="XMLID_8_">
					<g>
						<path fill="#FFFFFF" d="M281.545,257.545c14.138,5.2,24.613,31.582,16.247,42.96l-16.092,1.25
							c5.543-10.431-1.709-28.286-13.127-33.002L281.545,257.545z"/>
						<path fill="#FFFFFF" d="M255.855,303.773c0.338-6.346-2.609-13.232-7.543-17.516l12.016-10.384
							c8.19,5.475,13.071,17.688,10.484,26.736L255.855,303.773z"/>
						<path fill="#EA6429" d="M290.162,251.745l0.015-0.017c0.45,0.039,0.97,0.113,1.538,0.254
							C291.14,251.854,290.621,251.78,290.162,251.745z"/>
						<path fill="#EA6429" d="M292.631,252.226c-0.321-0.093-0.625-0.171-0.916-0.244
							C291.998,252.036,292.306,252.124,292.631,252.226z"/>
						<path fill="#EA6429" d="M310.721,298.23c-0.435,0.54-0.945,1.004-1.544,1.386l-7.699,0.599l-3.685,0.29
							c8.366-11.378-2.11-37.76-16.247-42.96l1.502-1.304l0.004,0.009l3.912-3.39l1.193-1.033c0,0,0.743-0.193,2.019-0.1
							l-0.015,0.017c0.459,0.035,0.979,0.109,1.553,0.237c0.291,0.073,0.595,0.151,0.916,0.244c0.153,0.055,0.316,0.106,0.482,0.166
							s0.333,0.121,0.507,0.199c0.699,0.27,1.424,0.627,2.186,1.099c0.173,0.101,0.345,0.202,0.512,0.316
							c1.989,1.301,4.21,3.308,6.499,6.381c0.205,0.283,0.411,0.565,0.62,0.857c0.266,0.376,0.531,0.775,0.787,1.177
							c0.2,0.296,0.395,0.604,0.593,0.922c0.308,0.5,0.623,1.018,0.928,1.563c0.314,0.541,0.613,1.098,0.924,1.683
							c0.016,0.037,0.04,0.07,0.06,0.116c0.136,0.247,0.267,0.506,0.401,0.775c0.619,1.215,1.232,2.52,1.834,3.926
							c0,0,0.222,0.579,0.568,1.584c0.053,0.151,0.109,0.312,0.17,0.482c0.289,0.844,0.631,1.915,0.985,3.144
							c0.092,0.297,0.176,0.599,0.263,0.909c0.174,0.621,0.345,1.287,0.511,1.965c0.089,0.342,0.17,0.688,0.25,1.034
							c0.122,0.523,0.239,1.06,0.351,1.61c0.047,0.241,0.09,0.472,0.137,0.713c0.277,1.435,0.498,2.915,0.629,4.389
							c0.023,0.338,0.049,0.684,0.071,1.022c0.004,0.009,0.008,0.018-0.001,0.022c0.025,0.369,0.041,0.742,0.052,1.106
							c0.02,0.925-0.004,1.824-0.084,2.693c-0.043,0.517-0.112,1.023-0.199,1.515c-0.086,0.492-0.199,0.973-0.332,1.43
							c-0.088,0.308-0.192,0.601-0.3,0.885c0.013,0.005,0.013,0.005,0.004,0.009c-0.176,0.432-0.361,0.846-0.579,1.23
							c-0.076,0.129-0.155,0.25-0.231,0.379C311.069,297.769,310.897,298.004,310.721,298.23z"/>
						<path fill="#EA6429" d="M293.113,252.392c-0.166-0.06-0.329-0.111-0.482-0.166
							C292.78,252.272,292.942,252.323,293.113,252.392z"/>
						<path fill="#EA6429" d="M293.619,252.592c-0.174-0.079-0.34-0.139-0.507-0.199
							C293.275,252.443,293.455,252.509,293.619,252.592z"/>
						<path fill="#EA6429" d="M296.318,254.007c-0.167-0.114-0.34-0.215-0.512-0.316
							C295.974,253.783,296.151,253.893,296.318,254.007z"/>
						<path fill="#EA6429" d="M270.812,302.609c2.587-9.048-2.294-21.261-10.484-26.736l8.246-7.12
							c11.418,4.716,18.669,22.571,13.127,33.002L270.812,302.609z"/>
						<path fill="#EA6429" d="M303.437,261.245c-0.209-0.292-0.415-0.574-0.62-0.857
							C303.022,260.67,303.228,260.953,303.437,261.245z"/>
						<path fill="#EA6429" d="M304.818,263.344c-0.199-0.318-0.393-0.627-0.593-0.922
							C304.424,262.717,304.619,263.026,304.818,263.344z"/>
						<path fill="#EA6429" d="M305.745,264.906c0.31,0.531,0.613,1.098,0.924,1.683
							C306.359,266.005,306.059,265.447,305.745,264.906z"/>
						<path fill="#EA6429" d="M307.131,267.481c-0.135-0.269-0.265-0.528-0.401-0.775C306.869,266.961,307,267.221,307.131,267.481z
							"/>
						<path fill="#C75625" d="M308.965,271.407c-0.602-1.407-1.215-2.711-1.834-3.926c-0.131-0.26-0.262-0.519-0.401-0.775
							c-0.019-0.046-0.044-0.079-0.06-0.116c-0.311-0.585-0.614-1.152-0.924-1.683c-0.305-0.544-0.62-1.063-0.928-1.563
							c-0.199-0.318-0.393-0.627-0.593-0.922c-0.256-0.402-0.521-0.801-0.787-1.177c-0.209-0.292-0.415-0.574-0.62-0.857
							c-2.289-3.073-4.509-5.08-6.499-6.381c-0.167-0.114-0.344-0.224-0.512-0.316c-0.762-0.472-1.487-0.829-2.186-1.099
							c-0.165-0.083-0.344-0.148-0.507-0.199c-0.17-0.07-0.333-0.121-0.482-0.166c-0.325-0.102-0.633-0.19-0.916-0.244
							c-0.569-0.141-1.088-0.215-1.538-0.254l1.669-1.449c0,0,11.101-2.906,20.807,19.579c0,0,8.843,22.675,0.213,28.209
							l-2.144,0.163c0.189-0.221,0.353-0.452,0.508-0.701c0.084-0.111,0.159-0.24,0.231-0.379c0.222-0.375,0.415-0.793,0.579-1.23
							c0.009-0.004,0.009-0.004-0.004-0.009c0.127-0.292,0.222-0.581,0.3-0.885c0.143-0.461,0.255-0.942,0.332-1.43
							c0.095-0.496,0.156-0.998,0.199-1.515c0.08-0.869,0.103-1.768,0.084-2.693c-0.012-0.364-0.028-0.737-0.052-1.106
							c0.009-0.004,0.005-0.013,0.001-0.022c-0.023-0.338-0.045-0.675-0.071-1.022c-0.131-1.474-0.352-2.954-0.629-4.389
							c-0.047-0.241-0.09-0.472-0.137-0.713c-0.112-0.55-0.229-1.086-0.351-1.61c-0.08-0.346-0.16-0.692-0.25-1.034
							c-0.166-0.679-0.337-1.344-0.511-1.965c-0.087-0.311-0.17-0.612-0.263-0.909c-0.354-1.229-0.695-2.3-0.985-3.144
							c-0.06-0.17-0.117-0.33-0.17-0.482C309.186,271.986,308.965,271.407,308.965,271.407z"/>
						<path fill="#C75625" d="M242.36,300.18c0.094,0.275,0.175,0.545,0.242,0.809c-0.001,0.022,0.006,0.041,0.01,0.05
							c0.034,0.159,0.065,0.309,0.091,0.45c0.061,0.3,0.092,0.58,0.106,0.845c0.017,0.221,0.017,0.427-0.001,0.618
							c-0.007,0.242-0.04,0.472-0.085,0.676c-0.015,0.093-0.039,0.19-0.068,0.278c-0.03,0.11-0.072,0.215-0.119,0.31
							c-0.135,0.273-0.305,0.486-0.506,0.603c0.004,0.009-0.005,0.013-0.001,0.022c-0.024,0.021-0.051,0.032-0.079,0.044
							c-0.922,0.387-2.566-1.46-3.685-4.125c-1.115-2.655-1.275-5.126-0.362-5.51c0.922-0.387,3.125,1.681,4.235,4.349
							C242.22,299.794,242.292,299.991,242.36,300.18z"/>
						<path fill="#C75625" d="M242.602,300.989c-0.068-0.264-0.148-0.534-0.242-0.809
							C242.454,300.455,242.538,300.734,242.602,300.989z"/>
						<path fill="#EA6429" d="M309.532,272.991c0.053,0.151,0.109,0.312,0.17,0.482
							C309.642,273.303,309.585,273.142,309.532,272.991z"/>
						<path fill="#EA6429" d="M242.809,302.952c0.017-0.192,0.017-0.398,0.001-0.618c-0.014-0.265-0.045-0.545-0.106-0.845
							c-0.027-0.141-0.057-0.291-0.091-0.45c-0.004-0.009-0.012-0.028-0.01-0.05c-0.064-0.255-0.148-0.534-0.242-0.809
							c-0.068-0.188-0.14-0.386-0.222-0.579c-1.11-2.668-3.313-4.736-4.235-4.349l10.409-8.994
							c4.934,4.283,7.881,11.169,7.543,17.516l-13.831,1.081c0,0,0.009-0.004,0.005-0.013c0.214-0.111,0.381-0.333,0.507-0.625
							c0.047-0.096,0.089-0.2,0.119-0.31c0.028-0.088,0.053-0.185,0.068-0.278C242.769,303.425,242.802,303.194,242.809,302.952z"/>
						<path fill="#EA6429" d="M310.687,276.617c0.092,0.297,0.176,0.599,0.263,0.909
							C310.862,277.215,310.779,276.914,310.687,276.617z"/>
						<path fill="#EA6429" d="M311.71,280.525c-0.08-0.346-0.16-0.692-0.25-1.034C311.55,279.833,311.63,280.179,311.71,280.525z"/>
						<path fill="#EA6429" d="M312.198,282.848c-0.047-0.241-0.09-0.472-0.137-0.713
							C312.108,282.375,312.151,282.607,312.198,282.848z"/>
						<path fill="#EA6429" d="M312.827,287.236c0.026,0.347,0.049,0.684,0.071,1.022
							C312.876,287.921,312.85,287.574,312.827,287.236z"/>
						<path fill="#EA6429" d="M312.949,289.387c-0.012-0.364-0.028-0.737-0.052-1.106
							C312.922,288.65,312.938,289.023,312.949,289.387z"/>
						<path fill="#EA6429" d="M312.667,293.595c0.086-0.492,0.156-0.998,0.199-1.515
							C312.823,292.596,312.763,293.099,312.667,293.595z"/>
						<path fill="#EA6429" d="M312.335,295.025c0.133-0.457,0.246-0.938,0.332-1.43C312.59,294.083,312.478,294.564,312.335,295.025
							z"/>
						<path fill="#EA6429" d="M312.335,295.025c-0.078,0.304-0.174,0.594-0.3,0.885
							C312.143,295.626,312.248,295.333,312.335,295.025z"/>
						<path fill="#EA6429" d="M311.46,297.15c0.218-0.384,0.402-0.798,0.579-1.23C311.875,296.357,311.682,296.774,311.46,297.15z"
							/>
						<path fill="#EA6429" d="M311.229,297.529c0.076-0.129,0.155-0.25,0.231-0.379
							C311.388,297.288,311.312,297.418,311.229,297.529z"/>
						<path fill="#EA6429" d="M310.721,298.23c0.176-0.226,0.349-0.461,0.508-0.701C311.073,297.779,310.91,298.01,310.721,298.23z"
							/>
						<path fill="#EA6429" d="M326.625,297.981l0.032-0.002c-0.357,0.313-0.778,0.576-1.248,0.774l-18.43,3.404
							c-2.403,0.554-4.618,0.031-5.501-1.941l7.699-0.599c0.599-0.382,1.109-0.846,1.544-1.386l2.144-0.163
							c8.63-5.534-0.213-28.209-0.213-28.209c-9.707-22.486-20.807-19.579-20.807-19.579l-1.669,1.449
							c-1.276-0.093-2.019,0.1-2.019,0.1l-1.193,1.033l-3.916,3.381c-0.552-1.883,0.516-3.677,2.559-4.958l15.332-10.78
							c0.47-0.198,0.953-0.314,1.426-0.35l-0.024,0.021c0.775-0.065,1.537,0.07,2.203,0.365c0.096,0.047,0.191,0.093,0.277,0.144
							c0.086,0.051,0.186,0.106,0.263,0.161c0.096,0.047,0.176,0.11,0.261,0.183c0.081,0.064,0.166,0.136,0.238,0.204
							c0.126,0.12,0.248,0.254,0.36,0.391c0.042,0.048,0.083,0.095,0.116,0.147c0.099,0.132,0.188,0.268,0.26,0.412
							c0.056,0.107,0.111,0.214,0.162,0.333l21.372,50.873c0.039,0.092,0.077,0.184,0.103,0.271c0.012,0.028,0.01,0.05,0.022,0.078
							c0.053,0.151,0.087,0.311,0.112,0.474c0.018,0.068,0.027,0.141,0.031,0.204c0.009,0.072,0.017,0.145,0.013,0.212
							c0.018,0.198,0.009,0.408-0.014,0.613c-0.007,0.112-0.019,0.214-0.052,0.315c-0.011,0.102-0.045,0.203-0.069,0.3
							s-0.058,0.198-0.091,0.299C327.655,296.843,327.215,297.473,326.625,297.981z"/>
						<path fill="#C75625" d="M328.12,295.238c0.022-0.205,0.032-0.415,0.014-0.613c0.004-0.067-0.004-0.139-0.013-0.212
							c-0.005-0.063-0.013-0.135-0.031-0.204c-0.025-0.163-0.059-0.322-0.112-0.474c-0.012-0.028-0.01-0.05-0.022-0.078
							c-0.026-0.087-0.064-0.179-0.103-0.271l-21.372-50.873c-0.05-0.12-0.106-0.227-0.162-0.333
							c-0.071-0.144-0.161-0.28-0.26-0.412c-0.032-0.051-0.074-0.099-0.116-0.147c-0.103-0.141-0.224-0.275-0.36-0.391
							c-0.072-0.067-0.157-0.14-0.238-0.204c-0.085-0.073-0.166-0.136-0.261-0.183c-0.072-0.067-0.158-0.118-0.263-0.161
							c-0.086-0.051-0.182-0.097-0.277-0.144c-0.652-0.312-1.414-0.447-2.18-0.386l0.897-0.626c2.203-0.926,4.676-0.023,5.532,2.015
							l21.372,50.873c0.856,2.038-0.23,4.435-2.434,5.361l-1.076,0.202c0.58-0.504,1.017-1.143,1.25-1.827
							c0.034-0.101,0.067-0.202,0.091-0.299c0.043-0.105,0.067-0.202,0.069-0.3C328.101,295.452,328.112,295.349,328.12,295.238z"/>
					</g>
					<g>
						
							<path fill="none" stroke="#312622" stroke-width="1.4173" stroke-linecap="round" stroke-linejoin="round" stroke-miterlimit="10" d="
							M305.583,241.231c0.126,0.12,0.248,0.254,0.36,0.391"/>
						
							<path fill="none" stroke="#312622" stroke-width="1.4173" stroke-linecap="round" stroke-linejoin="round" stroke-miterlimit="10" d="
							M304.822,240.684c0.086,0.051,0.186,0.106,0.263,0.161"/>
						
							<path fill="none" stroke="#312622" stroke-width="1.4173" stroke-linecap="round" stroke-linejoin="round" stroke-miterlimit="10" d="
							M327.907,296.152c-0.252,0.691-0.692,1.321-1.282,1.829l0.032-0.002l1.076-0.202c2.203-0.926,3.29-3.323,2.434-5.361
							l-21.372-50.873c-0.856-2.038-3.329-2.94-5.532-2.015l-0.897,0.626l-0.024,0.021c0.775-0.065,1.537,0.07,2.203,0.365"/>
						
							<path fill="none" stroke="#312622" stroke-width="1.4173" stroke-linecap="round" stroke-linejoin="round" stroke-miterlimit="10" d="
							M328.068,295.553c-0.011,0.102-0.045,0.203-0.069,0.3"/>
						
							<path fill="none" stroke="#312622" stroke-width="1.4173" stroke-linecap="round" stroke-linejoin="round" stroke-miterlimit="10" d="
							M242.537,304.216c-0.127,0.292-0.294,0.514-0.507,0.625c-0.024,0.021-0.051,0.032-0.079,0.044
							c-0.922,0.387-2.566-1.46-3.685-4.125c-1.115-2.655-1.275-5.126-0.362-5.51"/>
						
							<path fill="none" stroke="#312622" stroke-width="1.4173" stroke-linecap="round" stroke-linejoin="round" stroke-miterlimit="10" d="
							M242.36,300.18c0.094,0.275,0.179,0.554,0.242,0.809"/>
						
							<path fill="none" stroke="#312622" stroke-width="1.4173" stroke-linecap="round" stroke-linejoin="round" stroke-miterlimit="10" d="
							M248.312,286.257c4.934,4.283,7.881,11.169,7.543,17.516"/>
						
							<path fill="none" stroke="#312622" stroke-width="1.4173" stroke-linecap="round" stroke-linejoin="round" stroke-miterlimit="10" d="
							M270.812,302.609c2.587-9.048-2.294-21.261-10.484-26.736"/>
						
							<path fill="none" stroke="#312622" stroke-width="1.4173" stroke-linecap="round" stroke-linejoin="round" stroke-miterlimit="10" d="
							M297.793,300.505c8.366-11.378-2.11-37.76-16.247-42.96"/>
						
							<path fill="none" stroke="#312622" stroke-width="1.4173" stroke-linecap="round" stroke-linejoin="round" stroke-miterlimit="10" d="
							M268.574,268.754c11.418,4.716,18.669,22.571,13.127,33.002"/>
						
							<path fill="none" stroke="#312622" stroke-width="1.4173" stroke-linecap="round" stroke-linejoin="round" stroke-miterlimit="10" d="
							M301.478,300.215c0.883,1.972,3.098,2.495,5.501,1.941l18.43-3.404c0.47-0.198,0.891-0.461,1.248-0.774
							c0.58-0.504,1.017-1.143,1.25-1.827c0.034-0.101,0.067-0.202,0.091-0.299c0.043-0.105,0.067-0.202,0.069-0.3
							c0.034-0.101,0.045-0.203,0.052-0.315c0.022-0.205,0.032-0.415,0.014-0.613c0.004-0.067-0.004-0.139-0.013-0.212
							c-0.005-0.063-0.013-0.135-0.031-0.204c-0.025-0.163-0.059-0.322-0.112-0.474c-0.012-0.028-0.01-0.05-0.022-0.078
							c-0.026-0.087-0.064-0.179-0.103-0.271l-21.372-50.873c-0.05-0.12-0.106-0.227-0.162-0.333
							c-0.071-0.144-0.161-0.28-0.26-0.412c-0.032-0.051-0.074-0.099-0.116-0.147c-0.103-0.141-0.224-0.275-0.36-0.391
							c-0.072-0.067-0.157-0.14-0.238-0.204c-0.085-0.073-0.166-0.136-0.261-0.183c-0.072-0.067-0.158-0.118-0.263-0.161
							c-0.086-0.051-0.182-0.097-0.277-0.144c-0.652-0.312-1.414-0.447-2.18-0.386c-0.473,0.036-0.956,0.152-1.426,0.35
							l-15.332,10.78c-2.043,1.281-3.112,3.075-2.559,4.958l0.004,0.009l3.912-3.39"/>
						
							<path fill="none" stroke="#312622" stroke-width="1.4173" stroke-linecap="round" stroke-linejoin="round" stroke-miterlimit="10" d="
							M237.903,295.251c0.922-0.387,3.125,1.681,4.235,4.349c0.081,0.194,0.153,0.391,0.222,0.579
							c0.094,0.275,0.175,0.545,0.242,0.809c-0.001,0.022,0.006,0.041,0.01,0.05c0.034,0.159,0.065,0.309,0.091,0.45
							c0.061,0.3,0.092,0.58,0.106,0.845c0.017,0.221,0.017,0.427-0.001,0.618c-0.007,0.242-0.04,0.472-0.085,0.676
							c-0.015,0.093-0.039,0.19-0.068,0.278c-0.03,0.11-0.072,0.215-0.119,0.31c-0.135,0.273-0.305,0.486-0.506,0.603
							c0.004,0.009-0.005,0.013-0.001,0.022s-0.005,0.013-0.005,0.013l13.831-1.081l14.957-1.164l10.889-0.854l16.092-1.25
							l3.685-0.29l7.699-0.599c0.599-0.382,1.109-0.846,1.544-1.386c0.189-0.221,0.353-0.452,0.508-0.701
							c0.084-0.111,0.159-0.24,0.231-0.379c0.222-0.375,0.415-0.793,0.579-1.23c0.009-0.004,0.009-0.004-0.004-0.009
							c0.127-0.292,0.222-0.581,0.3-0.885c0.143-0.461,0.255-0.942,0.332-1.43c0.095-0.496,0.156-0.998,0.199-1.515
							c0.08-0.869,0.103-1.768,0.084-2.693c-0.012-0.364-0.028-0.737-0.052-1.106c0.009-0.004,0.005-0.013,0.001-0.022
							c-0.023-0.338-0.045-0.675-0.071-1.022c-0.131-1.474-0.352-2.954-0.629-4.389c-0.047-0.241-0.09-0.472-0.137-0.713
							c-0.112-0.55-0.229-1.086-0.351-1.61c-0.08-0.346-0.16-0.692-0.25-1.034c-0.166-0.679-0.337-1.344-0.511-1.965
							c-0.087-0.311-0.17-0.612-0.263-0.909c-0.354-1.229-0.695-2.3-0.985-3.144c-0.06-0.17-0.117-0.33-0.17-0.482
							c-0.346-1.004-0.568-1.584-0.568-1.584c-0.602-1.407-1.215-2.711-1.834-3.926c-0.135-0.269-0.265-0.528-0.401-0.775
							c-0.019-0.046-0.044-0.079-0.06-0.116c-0.311-0.585-0.614-1.152-0.924-1.683c-0.305-0.544-0.62-1.063-0.928-1.563
							c-0.199-0.318-0.393-0.627-0.593-0.922c-0.256-0.402-0.521-0.801-0.787-1.177c-0.209-0.292-0.415-0.574-0.62-0.857
							c-2.289-3.073-4.509-5.08-6.499-6.381c-0.167-0.114-0.344-0.224-0.512-0.316c-0.762-0.472-1.487-0.829-2.186-1.099
							c-0.165-0.083-0.344-0.148-0.507-0.199c-0.17-0.07-0.333-0.121-0.482-0.166c-0.325-0.102-0.633-0.19-0.916-0.244
							c-0.569-0.141-1.088-0.215-1.538-0.254c-1.276-0.093-2.019,0.1-2.019,0.1l-1.193,1.033l-3.916,3.381l-1.502,1.304
							l-12.971,11.209l-8.246,7.12l-12.016,10.384L237.903,295.251z"/>
					</g>
				</g>
			</g>
		</g>
	</g>
</g>
</svg>
