<?xml version="1.0" encoding="utf-8"?>
<!-- Generator: Adobe Illustrator 17.0.0, SVG Export Plug-In . SVG Version: 6.00 Build 0)  -->
<!DOCTYPE svg PUBLIC "-//W3C//DTD SVG 1.1//EN" "http://www.w3.org/Graphics/SVG/1.1/DTD/svg11.dtd">
<svg version="1.1" id="Calque_1" xmlns="http://www.w3.org/2000/svg" xmlns:xlink="http://www.w3.org/1999/xlink" x="0px" y="0px"
	 width="500px" height="500px" viewBox="0 0 500 500" enable-background="new 0 0 500 500" xml:space="preserve">
<g>
	<g>
		<path fill="#FFFFFF" d="M134.451,133.386c1.736,0,3.143-1.392,3.143-3.111s-1.407-3.111-3.143-3.111
			c-1.736,0-3.143,1.392-3.143,3.111c0,0.148,0.01,0.296,0.03,0.435c-0.2-0.602-0.309-1.244-0.309-1.906
			c0-3.368,2.754-6.103,6.167-6.103c3.403,0,6.157,2.736,6.157,6.103s-2.754,6.103-6.157,6.103c-1.946,0-3.682-0.889-4.8-2.281
			C132.944,133.1,133.663,133.386,134.451,133.386z"/>
		<path fill="#E7E4D2" d="M156.224,112.726c-2.964-0.385-19.029-8.967-11.026,6.34c-5.698,0.207-21.673-13.006-23.828,11.357
			l-2.574-7.723c-2.584,4.464-2.784,6.152-6.007,7.723c-3.263-5.481-2.744-16.146-0.718-21.914
			c5.019-14.27,19.138-19.366,31.641-20.6C147.064,98.654,147.064,98.654,156.224,112.726z"/>
		<path fill="#E7E4D2" d="M186.129,139.637c0,0-3.393,7.407-7.883,8.888c-4.49,1.481,5.159-1.768,0.329-19.899
			c-0.05-0.188-0.15-0.533-0.299-0.988c-0.11-0.365-0.259-0.81-0.419-1.313c-0.05-0.168-0.11-0.346-0.17-0.523
			c-0.259-0.81-0.559-1.738-0.888-2.736c-0.07-0.227-0.14-0.454-0.23-0.691c-0.259-0.8-0.539-1.639-0.818-2.489
			c-0.239-0.721-0.489-1.462-0.728-2.182c-1.038-3.091-2.016-6.024-2.535-7.555c-1.656,2.676-6.127,5.52-9.25,5.461
			c3.951-9.322,2.325-15.909,2.844-25.212c0.01,0,0.03,0,0.05,0c8.172,0.563,66.975,21.657,84.786,92.691
			c-2.195-0.257-4.351-0.672-6.416-1.284c-0.339-0.109-0.689-0.207-1.028-0.326c-0.679-0.227-1.347-0.474-2.006-0.751
			c-0.299-0.118-0.589-0.247-0.888-0.385c-0.05-0.01-0.11-0.04-0.16-0.069c-0.299-0.138-0.599-0.286-0.888-0.435
			c-0.659-0.326-1.297-0.681-1.926-1.076c-0.2-0.118-0.399-0.237-0.589-0.375c-0.239-0.148-0.479-0.316-0.718-0.484
			c-0.06-0.04-0.12-0.079-0.18-0.128c-0.369-0.257-0.728-0.533-1.088-0.82c-3.941-3.17-8.023-7.387-12.084-4.335
			c-1.507,1.363-3.023,2.726-4.49,4.148c-0.349,0.326-0.689,0.652-1.018,0.997c-0.02,0.01-0.03,0.02-0.04,0.04
			c-0.439,0.425-0.878,0.869-1.287,1.313c-0.429,0.444-0.848,0.889-1.247,1.343c-0.01,0.01-0.02,0.02-0.02,0.03
			c-0.798,0.889-1.557,1.797-2.275,2.745c-1.387-2.123-2.874-3.871-3.532-5.106c-0.15-0.286-0.259-0.553-0.309-0.78
			c-1.407,3.229-6.197,7.318-6.695,10.784c0.11-0.918,1.247-12.265-6.167-29.399C187.735,139.894,186.129,139.637,186.129,139.637z"
			/>
		<path fill="#FFFFFF" d="M166.132,99.817c7.781,0.536,61.463,19.688,81.957,82.839c0.934,0.174,1.876,0.322,2.829,0.433
			c-17.811-71.034-76.614-92.128-84.786-92.691c-0.02,0-0.04,0-0.05,0C165.563,99.701,166.112,99.817,166.132,99.817z"/>
		<path fill="#E7E4D2" d="M417.277,248.317c1.068,7.723-0.249,15.751-6.795,22.23c-8.741,8.661-17.652,12.176-26.393,12.374
			c-12.014,0.257-23.728-5.767-34.325-13.45c0.1-0.375,0.21-0.76,0.299-1.126c0.529-1.945,1.028-3.792,1.507-5.54
			c0.239-0.879,0.469-1.738,0.689-2.568c0.11-0.395,0.22-0.79,0.319-1.185c0.2-0.721,0.389-1.432,0.579-2.123
			c0.708-2.647,1.347-5.036,1.926-7.209c0.08-0.306,0.16-0.602,0.24-0.899c0.08-0.286,0.15-0.573,0.229-0.869
			c0.15-0.563,0.299-1.106,0.439-1.639c0-0.01,0-0.01,0-0.02c0.15-0.533,0.279-1.057,0.409-1.56c0.2-0.76,0.389-1.481,0.569-2.173
			c0.12-0.435,0.229-0.859,0.329-1.264c0.17-0.662,0.329-1.304,0.489-1.906c0.12-0.454,0.23-0.879,0.329-1.294
			c0.03-0.119,0.06-0.247,0.09-0.365c0.05-0.178,0.09-0.346,0.13-0.514c0.08-0.336,0.17-0.672,0.249-0.988
			c0.14-0.573,0.269-1.116,0.389-1.62c0.04-0.168,0.08-0.336,0.12-0.494c0.22-0.968,0.409-1.787,0.569-2.508
			c0.03-0.119,0.05-0.237,0.07-0.346c0.11-0.504,0.2-0.948,0.269-1.353c0.03-0.148,0.06-0.296,0.08-0.435
			c0.04-0.207,0.07-0.405,0.1-0.593c0.02-0.128,0.04-0.247,0.06-0.365c0.12-0.78,0.18-1.412,0.249-2.084
			c0-0.049,0.01-0.099,0.01-0.148c0-0.04,0.01-0.079,0.01-0.118c0.01-0.069,0.01-0.128,0.02-0.198c0.1-1.086,0.15-2.163,0.15-3.239
			c0-0.958-0.04-1.916-0.12-2.854c-0.02-0.217-0.03-0.425-0.06-0.632c0-0.04,0-0.079-0.01-0.118c-0.03-0.356-0.08-0.701-0.12-1.047
			c-0.01-0.039-0.02-0.089-0.02-0.128c-0.07-0.494-0.15-0.978-0.24-1.462c-0.09-0.494-0.19-0.988-0.299-1.481
			c0-0.01,0-0.02-0.01-0.039c-0.11-0.494-0.239-0.997-0.379-1.491c0-0.039-0.01-0.079-0.03-0.118
			c-0.12-0.454-0.259-0.909-0.409-1.353c-0.06-0.188-0.12-0.385-0.19-0.573c3.892-2.252,6.516-6.429,6.516-11.219
			c0-7.17-5.877-12.996-13.132-12.996c-3.682,0-7.005,1.511-9.39,3.93c-0.24-0.158-0.479-0.316-0.728-0.464
			c-0.878-0.573-1.786-1.116-2.714-1.62c-0.02-0.02-0.05-0.03-0.07-0.039c-2.285-1.254-4.7-2.311-7.204-3.17
			c4.52-5.836,11.665-9.609,19.737-9.609c13.65,0,24.726,10.824,24.726,24.185c0,5.451-6.586,20.995-7.713,25.745
			c-1.227,3.447-1.547,7.268-0.708,11.11c2.405,11.1,13.441,18.161,24.656,15.781s18.35-13.302,15.945-24.402
			c-0.629-2.894-1.836-5.511-3.492-7.762C406.819,223.065,415.461,235.242,417.277,248.317z"/>
		<path fill="#FFFFFF" d="M351.809,182.42c12.368,0,22.622,8.885,24.44,20.493c0.183-0.958,0.286-1.8,0.286-2.483
			c0-13.361-11.076-24.185-24.726-24.185c-8.073,0-15.217,3.772-19.737,9.609c1.509,0.518,2.981,1.116,4.416,1.777
			C340.699,184.373,346.012,182.42,351.809,182.42z"/>
		<path fill="#FFFFFF" d="M358.794,211.432c0.07,0.188,0.13,0.385,0.19,0.573c0.15,0.444,0.289,0.899,0.409,1.353
			c0.02,0.039,0.03,0.079,0.03,0.118c0.14,0.494,0.269,0.997,0.379,1.491c0.01,0.02,0.01,0.03,0.01,0.039
			c0.11,0.494,0.21,0.988,0.299,1.481c0.013,0.072,0.023,0.146,0.036,0.218c3.134-2.372,5.163-6.108,5.163-10.318
			c0-1.06-0.143-2.085-0.385-3.072C364.066,206.772,361.815,209.684,358.794,211.432z"/>
		<path fill="#FFFFFF" d="M368.114,237.286c-0.089-0.41-0.159-0.819-0.222-1.227c-0.371,2.394-0.325,4.893,0.222,7.402
			c2.405,11.1,13.441,18.161,24.656,15.781c10.794-2.29,17.782-12.495,16.15-23.153c-1.27,8.187-7.479,15.138-16.15,16.978
			C381.554,255.447,370.518,248.386,368.114,237.286z"/>
		<path fill="#B7897C" d="M235.032,176.957c0.359,0.286,0.718,0.563,1.088,0.82c0.06,0.049,0.12,0.089,0.18,0.128
			c0.239,0.168,0.469,0.336,0.718,0.484c0.19,0.138,0.389,0.267,0.589,0.375c0.629,0.395,1.267,0.751,1.926,1.076
			c0.289,0.158,0.589,0.306,0.888,0.435c0.05,0.03,0.11,0.059,0.16,0.069c0.289,0.138,0.589,0.267,0.888,0.385
			c0.659,0.286,1.327,0.533,2.006,0.751c0.339,0.128,0.679,0.237,1.028,0.326c8.023,2.4,17.302,1.837,25.734,0.207
			c8.561-1.659,16.923-4.207,24.896-7.594c6.256-2.657,13.012-5.906,19.627-4.197c6.386,1.659,10.248,7.673,11.016,14.023
			c0,0.03,0.01,0.059,0.01,0.089c0.02,0.158,0.04,0.326,0.05,0.484c0.01,0.138,0.03,0.277,0.03,0.415
			c0.02,0.178,0.03,0.356,0.03,0.533c0.08,1.629-0.06,3.269-0.419,4.849c-2.046,8.987-9.4,16.275-17.971,20.58
			c-8.581,4.306-18.32,6.014-27.939,7.209c-15.606,1.936-31.541,2.657-47.018-0.04c-10.288-1.797-21.623-6.34-24.676-15.811
			c-1.806-5.58-0.18-11.752,2.954-16.778c0.269-0.435,0.549-0.859,0.848-1.284c0.269-0.375,0.539-0.751,0.818-1.116
			c0.03-0.039,0.06-0.079,0.09-0.118c0.718-0.948,1.477-1.866,2.265-2.765c0-0.01,0.01-0.02,0.02-0.03
			c0.419-0.454,0.828-0.899,1.247-1.343c0.429-0.444,0.858-0.889,1.287-1.313c0.01-0.02,0.02-0.03,0.04-0.04
			c0.339-0.336,0.679-0.672,1.018-0.997c1.467-1.422,2.984-2.785,4.49-4.148C227.01,169.57,231.091,173.787,235.032,176.957z"/>
		<path fill="#9B746A" d="M325.865,185.232c0-0.138-0.02-0.276-0.03-0.415c-0.01-0.158-0.03-0.326-0.05-0.484
			c0-0.03-0.01-0.059-0.01-0.089c-0.109-0.903-0.288-1.798-0.521-2.676c-2.298,8.603-9.445,15.579-17.749,19.751
			c-8.581,4.306-18.32,6.014-27.939,7.209c-15.606,1.936-31.541,2.657-47.018-0.039c-10.288-1.797-21.623-6.34-24.676-15.811
			c-0.014-0.044-0.024-0.088-0.037-0.132c-0.896,3.308-1.015,6.758,0.037,10.007c3.053,9.471,14.389,14.013,24.676,15.811
			c15.476,2.696,31.412,1.975,47.018,0.039c9.619-1.195,19.358-2.903,27.939-7.209c8.571-4.306,15.926-11.594,17.971-20.581
			c0.359-1.58,0.499-3.219,0.419-4.849C325.895,185.588,325.885,185.41,325.865,185.232z"/>
		<path fill="#B7897C" d="M177.857,126.325c0.16,0.504,0.309,0.948,0.419,1.313l-55.25,32.737l4.361,7.091
			c-4.361,3.111-5.608,3.911-10.258,2.913l-17.382-28.303c1.706-3.911,4.321-5.757,7.793-6.913l10.148,16.512l57.335-33.972
			c0.239,0.721,0.489,1.462,0.728,2.182c0.279,0.849,0.549,1.679,0.818,2.489c0.08,0.227,0.15,0.464,0.23,0.691
			c0.329,0.997,0.629,1.926,0.888,2.736C177.747,125.979,177.807,126.157,177.857,126.325z"/>
		<path fill="#E3B787" d="M99.746,142.076l17.382,28.303c-0.718,0.277-1.128,0.454-1.128,0.454
			c-10.567,5.195-17.731,7.703-25.714,2.696c-7.494-4.711-10.088-13.441-5.887-17.608C86.465,153.878,93.3,147.794,99.746,142.076z"
			/>
		<path fill="#E3B787" d="M172.488,110.149c-1.656,2.676-6.127,5.52-9.25,5.461c3.951-9.322,2.325-15.909,2.844-25.212
			c0.01,0,0.03,0,0.05,0c-0.229-0.237-0.359-0.375-0.359-0.375S155.006,72.346,146.774,72c-0.499,0-2.076,8.335-3.063,15.909
			c3.353,10.745,3.353,10.745,12.513,24.817c-2.964-0.385-19.029-8.967-11.026,6.34c-5.698,0.207-21.673-13.006-23.828,11.357
			l-2.574-7.723c-2.584,4.464-2.784,6.152-6.007,7.723h-0.01c-0.04,0.099-2.165,2.005-5.239,4.74l10.148,16.512l57.336-33.972
			C173.985,114.613,173.007,111.68,172.488,110.149z"/>
		<path fill="#C19C74" d="M155.711,114.848c-1.004-1.039-1.98-2.102-2.902-3.207c-5.403-1.904-13.872-4.55-7.612,7.426
			c-5.382,0.196-19.926-11.564-23.34,7.659c0.117-0.207,2.936,7.087,2.936,7.087c2.155-24.363,18.131-11.149,23.828-11.357
			C142.559,110.859,150.308,112.974,155.711,114.848z"/>
		<path fill="#C19C74" d="M303.913,268.097l10.088,97.738c-4.55,15.88-7.424,24.778-7.424,24.778l-12.134-117.587
			c1.507-0.691,3.023-1.422,4.52-2.212c1.098-0.563,2.195-1.155,3.283-1.768C302.805,268.739,303.354,268.423,303.913,268.097z"/>
		<path fill="#C19C74" d="M167.659,254.163l12.473,99.179c-3.013,20.571-5.298,37.221-5.298,37.221l-18.61-156.191
			C158.848,242.155,165.773,250.006,167.659,254.163z"/>
		<path fill="#E3B787" d="M202.034,188.136c0.499-3.466,5.289-7.555,6.695-10.784c0.05,0.227,0.16,0.494,0.309,0.78
			c0.639,1.244,2.085,3.052,3.443,5.234c-0.279,0.365-0.549,0.741-0.808,1.126c-0.299,0.425-0.579,0.849-0.848,1.284
			c-3.133,5.027-4.76,11.199-2.954,16.778c3.053,9.471,14.389,14.013,24.676,15.811c15.476,2.696,31.412,1.975,47.018,0.04
			c9.619-1.195,19.358-2.903,27.939-7.209c8.571-4.306,15.925-11.594,17.971-20.58c0.359-1.58,0.499-3.219,0.419-4.849
			c0-0.178-0.01-0.356-0.03-0.533c0-0.138-0.02-0.277-0.03-0.415c-0.01-0.158-0.03-0.326-0.05-0.484c0-0.03-0.01-0.059-0.01-0.089
			c0.718,0.099,1.128,0.188,1.128,0.188c1.756,0.375,3.482,0.849,5.169,1.422l-0.01,0.01c2.505,0.849,4.919,1.916,7.214,3.16
			c0.02,0.01,0.05,0.02,0.07,0.039c0.928,0.514,1.826,1.047,2.714,1.62c0.439,0.277,0.878,0.573,1.307,0.869
			c0.818,0.573,1.626,1.165,2.405,1.787c0.239,0.178,0.469,0.365,0.688,0.563c0.14,0.109,0.269,0.217,0.399,0.336
			c0.11,0.079,0.21,0.168,0.309,0.257c0.269,0.247,0.539,0.484,0.808,0.721c0.04,0.039,0.08,0.079,0.12,0.109
			c0.09,0.089,0.19,0.168,0.279,0.257c0.21,0.207,0.409,0.405,0.619,0.593c0.12,0.118,0.239,0.237,0.359,0.356
			c0.279,0.286,0.559,0.573,0.838,0.859c0.09,0.089,0.17,0.178,0.239,0.257c0.299,0.326,0.609,0.662,0.908,1.007
			c0.15,0.168,0.299,0.346,0.439,0.514c0.23,0.267,0.449,0.533,0.669,0.81c0.02,0.03,0.04,0.059,0.07,0.089
			c0.05,0.059,0.1,0.118,0.14,0.178c0.239,0.296,0.459,0.593,0.689,0.899c0.13,0.168,0.249,0.336,0.369,0.504
			c0.19,0.257,0.369,0.523,0.559,0.79c0.03,0.059,0.07,0.109,0.1,0.158c0.03,0.039,0.05,0.069,0.08,0.109
			c0.15,0.227,0.299,0.464,0.449,0.691c0.07,0.109,0.14,0.217,0.21,0.326c0.03,0.059,0.07,0.109,0.1,0.168
			c0.18,0.277,0.349,0.563,0.509,0.859c0.06,0.089,0.12,0.188,0.17,0.286c0.03,0.049,0.06,0.099,0.08,0.148
			c0.12,0.188,0.229,0.385,0.329,0.583c0.2,0.365,0.399,0.741,0.589,1.126c0.02,0.04,0.04,0.069,0.05,0.099
			c0.2,0.405,0.399,0.82,0.589,1.234c0.03,0.059,0.06,0.119,0.08,0.178c0.03,0.069,0.06,0.138,0.09,0.207
			c0.15,0.346,0.289,0.691,0.429,1.037c0.04,0.089,0.08,0.168,0.11,0.257c0.03,0.079,0.06,0.158,0.09,0.237
			c0.12,0.316,0.239,0.632,0.349,0.958c0.11,0.296,0.22,0.602,0.309,0.909c0.15,0.444,0.279,0.899,0.409,1.353
			c0.02,0.04,0.03,0.079,0.03,0.118c0.14,0.494,0.269,0.988,0.379,1.491c0.01,0.02,0.01,0.03,0.01,0.039
			c0.11,0.494,0.21,0.978,0.299,1.481c0.09,0.484,0.17,0.968,0.24,1.462c0,0.04,0.01,0.089,0.02,0.128
			c0.04,0.346,0.09,0.691,0.12,1.047c0.01,0.039,0.01,0.079,0.01,0.118c0.03,0.207,0.05,0.425,0.06,0.632
			c0.08,0.938,0.12,1.896,0.12,2.854c0,1.076-0.05,2.153-0.15,3.239c-0.01,0.069-0.01,0.128-0.02,0.198
			c0,0.04-0.01,0.079-0.01,0.118c0,0.049-0.01,0.099-0.01,0.148c-0.07,0.672-0.13,1.304-0.249,2.084
			c-0.02,0.119-0.04,0.237-0.06,0.365c-0.03,0.188-0.06,0.385-0.1,0.593c-0.02,0.138-0.05,0.286-0.08,0.435
			c-0.07,0.405-0.16,0.849-0.269,1.353c-0.02,0.109-0.05,0.227-0.07,0.346c-0.16,0.721-0.349,1.541-0.569,2.508
			c-0.04,0.158-0.08,0.326-0.12,0.494c-0.12,0.504-0.249,1.037-0.389,1.62c-0.08,0.316-0.17,0.652-0.249,0.988
			c-0.05,0.168-0.09,0.346-0.13,0.514c-0.03,0.119-0.06,0.247-0.09,0.365c-0.11,0.415-0.22,0.849-0.329,1.294
			c-0.16,0.602-0.319,1.244-0.489,1.906c-0.11,0.405-0.22,0.83-0.329,1.264c-0.18,0.691-0.369,1.412-0.569,2.173
			c-0.13,0.504-0.269,1.017-0.409,1.56c0,0.01,0,0.01,0,0.02c-0.15,0.533-0.289,1.076-0.439,1.639
			c-0.08,0.296-0.15,0.583-0.229,0.869c-0.08,0.296-0.16,0.602-0.24,0.899c-0.579,2.173-1.217,4.562-1.926,7.209
			c-0.19,0.691-0.379,1.402-0.579,2.123c-0.1,0.395-0.21,0.79-0.319,1.185c-0.22,0.83-0.449,1.689-0.689,2.568
			c-0.479,1.748-0.978,3.595-1.507,5.54c-6.326,23.326-16.634,60.843-33.507,122.268l-2.554-24.778l-10.088-97.738
			c-0.549,0.326-1.108,0.642-1.666,0.948c-1.088,0.612-2.185,1.205-3.283,1.768c-1.507,0.77-3.013,1.501-4.52,2.192v0.02
			c-39.804,18.368-80.735,8.671-91.002,3.921c-4.111,7.851-18.63,113.617-18.63,113.617l-4.68-37.221l-12.473-99.179
			c-1.886-4.158-8.811-12.009-11.435-19.79c-3.892-11.554-2.205-40.124-2.205-46.089c0-21.756-15.436-22.872-26.632-20.818
			l-4.361-7.091l55.25-32.737c0.15,0.454,0.249,0.8,0.299,0.988c4.83,18.131-4.82,21.38-0.329,19.899
			c4.49-1.481,7.883-8.888,7.883-8.888s1.607,0.257,9.739,19.099C203.281,175.87,202.144,187.217,202.034,188.136z"/>
		<path fill="#C19C74" d="M208.73,184.154c0.05,0.227,0.16,0.494,0.309,0.78c0.276,0.518,0.704,1.132,1.203,1.821
			c0.188-0.331,0.382-0.658,0.583-0.98c0.269-0.435,0.549-0.859,0.848-1.284c0.259-0.385,0.529-0.76,0.808-1.126
			c-1.357-2.183-2.804-3.99-3.443-5.234c-0.15-0.286-0.259-0.553-0.309-0.78c-1.407,3.229-6.197,7.318-6.695,10.784
			c0.11-0.918,1.247-12.265-6.167-29.399c-8.132-18.842-9.739-19.099-9.739-19.099s-2.628,5.731-6.319,8.118
			c-0.841,7.292-4.743,8.622-1.564,7.573c4.49-1.481,7.883-8.888,7.883-8.888s4.762,8.959,8.912,21.775
			c5.175,15.981,3.71,30.458,3.601,31.376C199.14,196.125,206.132,188.136,208.73,184.154z"/>
		<path fill="#C19C74" d="M179.084,254.163c-1.886-4.158-8.811-12.009-11.435-19.79c-3.891-11.554-2.205-40.124-2.205-46.089
			c0-20.986-14.362-22.765-25.427-21.022c7.57,1.543,14.002,6.981,14.002,21.022c0,5.965-1.686,34.535,2.205,46.089
			c2.624,7.782,9.549,15.633,11.435,19.79l12.473,99.179l4.68,37.221c0,0,2.688-19.584,6.079-42.521L179.084,254.163z"/>
		<path fill="#C19C74" d="M315.338,268.097c-0.549,0.326-1.107,0.642-1.666,0.948c-1.088,0.612-2.185,1.205-3.283,1.768
			c-1.507,0.77-3.013,1.501-4.52,2.192v0.02c-0.461,0.213-0.923,0.403-1.384,0.608l9.517,92.201l2.554,24.778
			c2.969-10.808,5.73-20.861,8.307-30.241L315.338,268.097z"/>
		<path fill="#C19C74" d="M325.476,200.49c0.359-1.58,0.499-3.219,0.419-4.849c0-0.178-0.01-0.355-0.03-0.533
			c0-0.138-0.02-0.276-0.03-0.415c-0.01-0.158-0.03-0.326-0.05-0.484c0-0.03-0.01-0.059-0.01-0.089
			c-0.109-0.903-0.288-1.798-0.521-2.676c-2.298,8.603-9.445,15.579-17.749,19.751c-8.581,4.306-18.32,6.014-27.939,7.209
			c-15.606,1.936-31.541,2.657-47.018-0.039c-10.288-1.797-21.623-6.34-24.676-15.811c-0.014-0.044-0.024-0.088-0.037-0.132
			c-0.896,3.308-1.015,6.758,0.037,10.007c3.053,9.471,14.389,14.013,24.676,15.811c15.476,2.696,31.412,1.975,47.018,0.039
			c9.619-1.195,19.358-2.903,27.939-7.209C316.076,216.765,323.431,209.477,325.476,200.49z"/>
		<path fill="#E7E4D2" d="M156.224,112.726c-2.964-0.385-19.029-8.967-11.026,6.34c-5.698,0.207-21.673-13.006-23.828,11.357
			l-2.574-7.723c-2.584,4.464-2.784,6.152-6.007,7.723c-3.263-5.481-2.744-16.146-0.718-21.914
			c5.019-14.27,19.138-19.366,31.641-20.6C147.064,98.654,147.064,98.654,156.224,112.726z"/>
		<path fill="#FFFFFF" d="M119.221,115.587c4.411-12.541,15.849-17.993,27.043-19.969c-0.779-2.023-1.501-4.337-2.553-7.709
			c-12.503,1.234-26.622,6.33-31.641,20.6c-2.026,5.767-2.545,16.433,0.718,21.914c2.662-1.297,3.264-2.679,4.848-5.633
			C117.78,121.355,118.363,118.031,119.221,115.587z"/>
		
			<path fill="#FFFFFF" stroke="#312622" stroke-width="1.4173" stroke-linecap="round" stroke-linejoin="round" stroke-miterlimit="10" d="
			M131.338,130.71c-0.2-0.602-0.309-1.244-0.309-1.906c0-3.368,2.754-6.103,6.167-6.103c3.403,0,6.157,2.736,6.157,6.103
			s-2.754,6.103-6.157,6.103c-1.946,0-3.682-0.889-4.8-2.281L131.338,130.71z"/>
		<g>
			<path fill="#312622" d="M92.653,166.015c0,0-0.001-0.164,0.019-0.444c0.034-0.284,0.034-0.668,0.049-1.099
				c-0.015-0.222,0.007-0.456-0.019-0.699c-0.01-0.244-0.044-0.493-0.081-0.745c-0.02-0.255-0.114-0.501-0.171-0.75
				c-0.077-0.246-0.162-0.489-0.277-0.718c-0.115-0.227-0.231-0.456-0.386-0.655c-0.139-0.211-0.306-0.398-0.471-0.584
				c-0.19-0.156-0.35-0.347-0.547-0.481c-0.184-0.151-0.376-0.276-0.558-0.397c-0.178-0.128-0.363-0.21-0.521-0.309
				c-0.159-0.095-0.306-0.169-0.429-0.228c-0.245-0.124-0.39-0.21-0.39-0.21s0.157-0.034,0.441-0.067
				c0.142-0.016,0.318-0.04,0.516-0.02c0.198,0.015,0.434,0.005,0.674,0.074c0.496,0.083,1.065,0.306,1.612,0.678
				c0.253,0.208,0.541,0.411,0.753,0.694c0.242,0.258,0.418,0.578,0.583,0.893c0.153,0.326,0.266,0.663,0.333,1.005
				c0.061,0.339,0.096,0.681,0.079,1.002c0.007,0.324-0.049,0.629-0.112,0.912c-0.038,0.287-0.16,0.537-0.238,0.77
				c-0.081,0.233-0.208,0.436-0.299,0.611c-0.087,0.182-0.199,0.307-0.281,0.421C92.763,165.892,92.653,166.015,92.653,166.015z"/>
		</g>
		
			<path fill="none" stroke="#312622" stroke-width="1.4173" stroke-linecap="round" stroke-linejoin="round" stroke-miterlimit="10" d="
			M358.325,210.138c0.12,0.316,0.239,0.632,0.349,0.958"/>
		
			<path fill="none" stroke="#312622" stroke-width="1.4173" stroke-linecap="round" stroke-linejoin="round" stroke-miterlimit="10" d="
			M357.696,208.608c0.15,0.346,0.289,0.691,0.429,1.037"/>
		
			<path fill="none" stroke="#312622" stroke-width="1.4173" stroke-linecap="round" stroke-linejoin="round" stroke-miterlimit="10" d="
			M356.938,206.988c0.2,0.405,0.399,0.82,0.589,1.234"/>
		
			<path fill="none" stroke="#312622" stroke-width="1.4173" stroke-linecap="round" stroke-linejoin="round" stroke-miterlimit="10" d="
			M355.97,205.181c0.07,0.099,0.12,0.198,0.18,0.306c0.05,0.089,0.1,0.178,0.15,0.277c0.2,0.365,0.399,0.741,0.589,1.126"/>
		
			<path fill="none" stroke="#312622" stroke-width="1.4173" stroke-linecap="round" stroke-linejoin="round" stroke-miterlimit="10" d="
			M355.72,204.746c0.06,0.089,0.12,0.188,0.17,0.286"/>
		
			<path fill="none" stroke="#312622" stroke-width="1.4173" stroke-linecap="round" stroke-linejoin="round" stroke-miterlimit="10" d="
			M354.902,203.393c0.07,0.109,0.14,0.217,0.21,0.326"/>
		
			<path fill="none" stroke="#312622" stroke-width="1.4173" stroke-linecap="round" stroke-linejoin="round" stroke-miterlimit="10" d="
			M354.373,202.593c0.02,0.03,0.04,0.059,0.07,0.089"/>
		
			<path fill="none" stroke="#312622" stroke-width="1.4173" stroke-linecap="round" stroke-linejoin="round" stroke-miterlimit="10" d="
			M351.779,199.167c0.23,0.267,0.449,0.533,0.669,0.81"/>
		
			<path fill="none" stroke="#312622" stroke-width="1.4173" stroke-linecap="round" stroke-linejoin="round" stroke-miterlimit="10" d="
			M358.794,211.432c3.892-2.252,6.516-6.429,6.516-11.219c0-7.17-5.877-12.996-13.132-12.996c-3.682,0-7.005,1.511-9.39,3.93"/>
		
			<path fill="none" stroke="#312622" stroke-width="1.4173" stroke-linecap="round" stroke-linejoin="round" stroke-miterlimit="10" d="
			M112.788,130.423c-3.263-5.481-2.744-16.146-0.718-21.914c5.019-14.27,19.138-19.366,31.641-20.6"/>
		
			<path fill="none" stroke="#312622" stroke-width="1.4173" stroke-linecap="round" stroke-linejoin="round" stroke-miterlimit="10" d="
			M303.913,268.097c-0.559,0.326-1.108,0.642-1.666,0.948"/>
		
			<path fill="none" stroke="#312622" stroke-width="1.4173" stroke-linecap="round" stroke-linejoin="round" stroke-miterlimit="10" d="
			M298.964,270.813c-1.507,0.77-3.013,1.501-4.52,2.192v0.02l12.134,117.587c0,0,2.874-8.898,7.424-24.778"/>
		
			<path fill="none" stroke="#312622" stroke-width="1.4173" stroke-linecap="round" stroke-linejoin="round" stroke-miterlimit="10" d="
			M156.224,234.373l18.61,156.191c0,0,2.285-16.65,5.298-37.221"/>
		
			<path fill="none" stroke="#312622" stroke-width="1.4173" stroke-linecap="round" stroke-linejoin="round" stroke-miterlimit="10" d="
			M177.687,125.802c0.06,0.178,0.12,0.356,0.17,0.523"/>
		
			<path fill="none" stroke="#312622" stroke-width="1.4173" stroke-linecap="round" stroke-linejoin="round" stroke-miterlimit="10" d="
			M175.751,119.886c0.279,0.849,0.549,1.679,0.818,2.489c0.08,0.227,0.15,0.464,0.23,0.691"/>
		
			<path fill="none" stroke="#312622" stroke-width="1.4173" stroke-linecap="round" stroke-linejoin="round" stroke-miterlimit="10" d="
			M240.58,180.344c0.299,0.138,0.589,0.267,0.888,0.385c0.659,0.277,1.327,0.523,2.006,0.751c0.339,0.119,0.689,0.217,1.028,0.326
			c2.066,0.612,4.221,1.027,6.416,1.284c-17.811-71.034-76.614-92.128-84.786-92.691"/>
		
			<path fill="none" stroke="#312622" stroke-width="1.4173" stroke-linecap="round" stroke-linejoin="round" stroke-miterlimit="10" d="
			M239.533,179.84c0.289,0.148,0.589,0.296,0.888,0.435"/>
		
			<path fill="none" stroke="#312622" stroke-width="1.4173" stroke-linecap="round" stroke-linejoin="round" stroke-miterlimit="10" d="
			M236.3,177.905c0.239,0.168,0.469,0.336,0.718,0.484c0.19,0.138,0.389,0.257,0.589,0.375"/>
		
			<path fill="none" stroke="#312622" stroke-width="1.4173" stroke-linecap="round" stroke-linejoin="round" stroke-miterlimit="10" d="
			M235.032,176.957c0.359,0.286,0.718,0.563,1.088,0.82"/>
		
			<path fill="none" stroke="#312622" stroke-width="1.4173" stroke-linecap="round" stroke-linejoin="round" stroke-miterlimit="10" d="
			M217.441,177.766c0.339-0.336,0.679-0.672,1.018-0.997"/>
		
			<path fill="none" stroke="#312622" stroke-width="1.4173" stroke-linecap="round" stroke-linejoin="round" stroke-miterlimit="10" d="
			M214.866,180.462c0.419-0.454,0.828-0.899,1.247-1.343c0.429-0.444,0.858-0.889,1.287-1.313"/>
		
			<path fill="none" stroke="#312622" stroke-width="1.4173" stroke-linecap="round" stroke-linejoin="round" stroke-miterlimit="10" d="
			M212.581,183.257c0.718-0.948,1.477-1.866,2.265-2.765"/>
		
			<path fill="none" stroke="#312622" stroke-width="1.4173" stroke-linecap="round" stroke-linejoin="round" stroke-miterlimit="10" d="
			M209.039,178.132c0.639,1.244,2.085,3.052,3.443,5.234c0.01,0,0.01,0.01,0.01,0.01"/>
		
			<path fill="none" stroke="#312622" stroke-width="1.4173" stroke-linecap="round" stroke-linejoin="round" stroke-miterlimit="10" d="
			M325.775,184.245c-0.768-6.35-4.63-12.364-11.016-14.023c-6.616-1.708-13.371,1.541-19.627,4.197
			c-7.973,3.387-16.335,5.935-24.896,7.594c-8.432,1.629-17.712,2.192-25.734-0.207c-0.349-0.089-0.689-0.198-1.028-0.326
			c-0.679-0.217-1.347-0.464-2.006-0.751c-0.299-0.118-0.599-0.247-0.888-0.385c-0.05-0.01-0.11-0.04-0.16-0.069
			c-0.299-0.128-0.599-0.277-0.888-0.435c-0.659-0.326-1.297-0.681-1.926-1.076c-0.2-0.109-0.399-0.237-0.589-0.375
			c-0.239-0.148-0.479-0.316-0.718-0.484c-0.06-0.04-0.12-0.079-0.18-0.128c-0.369-0.257-0.728-0.533-1.088-0.82
			c-3.941-3.17-8.023-7.387-12.084-4.335"/>
		
			<path fill="none" stroke="#312622" stroke-width="1.4173" stroke-linecap="round" stroke-linejoin="round" stroke-miterlimit="10" d="
			M325.835,184.818c-0.01-0.158-0.03-0.326-0.05-0.484"/>
		
			<path fill="none" stroke="#312622" stroke-width="1.4173" stroke-linecap="round" stroke-linejoin="round" stroke-miterlimit="10" d="
			M325.895,185.766c0-0.178-0.01-0.356-0.03-0.533"/>
		
			<path fill="none" stroke="#312622" stroke-width="1.4173" stroke-linecap="round" stroke-linejoin="round" stroke-miterlimit="10" d="
			M222.949,172.621c-1.507,1.363-3.023,2.726-4.49,4.148c-0.349,0.326-0.689,0.652-1.018,0.997c-0.02,0.01-0.03,0.02-0.04,0.04
			c-0.439,0.425-0.878,0.869-1.287,1.313c-0.429,0.444-0.848,0.889-1.247,1.343c-0.01,0.01-0.02,0.02-0.02,0.03
			c-0.798,0.889-1.557,1.797-2.275,2.745c-0.03,0.039-0.06,0.079-0.09,0.128c-0.279,0.365-0.549,0.741-0.808,1.126
			c-0.299,0.425-0.579,0.849-0.848,1.284"/>
		
			<path fill="none" stroke="#312622" stroke-width="1.4173" stroke-linecap="round" stroke-linejoin="round" stroke-miterlimit="10" d="
			M99.746,142.076c-6.446,5.718-13.281,11.801-15.347,13.845c-4.201,4.167-1.607,12.897,5.887,17.608
			c7.983,5.007,15.147,2.498,25.714-2.696c0,0,0.409-0.178,1.128-0.454"/>
		
			<path fill="none" stroke="#312622" stroke-width="1.4173" stroke-linecap="round" stroke-linejoin="round" stroke-miterlimit="10" d="
			M175.023,117.704c-1.038-3.091-2.016-6.024-2.535-7.555c-1.656,2.676-6.127,5.52-9.25,5.461
			c3.951-9.322,2.325-15.909,2.844-25.212c0.01,0,0.03,0,0.05,0c-0.229-0.237-0.359-0.375-0.359-0.375S155.006,72.346,146.774,72
			c-0.499,0-2.075,8.335-3.063,15.909c3.353,10.745,3.353,10.745,12.513,24.817c-2.964-0.385-19.029-8.967-11.026,6.34
			c-5.698,0.207-21.673-13.006-23.828,11.357l-2.574-7.723c-2.584,4.464-2.784,6.152-6.007,7.723h-0.01
			c-0.04,0.099-2.165,2.005-5.239,4.74"/>
		
			<path fill="none" stroke="#312622" stroke-width="1.4173" stroke-linecap="round" stroke-linejoin="round" stroke-miterlimit="10" d="
			M178.276,127.638c-0.11-0.365-0.259-0.81-0.419-1.313c-0.05-0.168-0.11-0.346-0.17-0.523c-0.259-0.81-0.559-1.738-0.888-2.736
			c-0.07-0.227-0.14-0.454-0.23-0.691c-0.259-0.8-0.539-1.639-0.818-2.489c-0.239-0.721-0.489-1.462-0.728-2.182l-57.335,33.972
			l-10.148-16.512c-3.472,1.155-6.087,3.002-7.793,6.913l17.382,28.303c4.65,0.997,5.897,0.198,10.258-2.913"/>
		
			<path fill="none" stroke="#312622" stroke-width="1.4173" stroke-linecap="round" stroke-linejoin="round" stroke-miterlimit="10" d="
			M352.258,260.237c-0.22,0.83-0.449,1.689-0.689,2.568"/>
		
			<path fill="none" stroke="#312622" stroke-width="1.4173" stroke-linecap="round" stroke-linejoin="round" stroke-miterlimit="10" d="
			M353.156,256.928c-0.19,0.691-0.379,1.402-0.579,2.123"/>
		
			<path fill="none" stroke="#312622" stroke-width="1.4173" stroke-linecap="round" stroke-linejoin="round" stroke-miterlimit="10" d="
			M355.321,248.82c-0.08,0.296-0.16,0.593-0.24,0.899"/>
		
			<path fill="none" stroke="#312622" stroke-width="1.4173" stroke-linecap="round" stroke-linejoin="round" stroke-miterlimit="10" d="
			M355.99,246.312c-0.14,0.533-0.289,1.076-0.439,1.639"/>
		
			<path fill="none" stroke="#312622" stroke-width="1.4173" stroke-linecap="round" stroke-linejoin="round" stroke-miterlimit="10" d="
			M356.399,244.732c-0.13,0.504-0.259,1.027-0.409,1.56"/>
		
			<path fill="none" stroke="#312622" stroke-width="1.4173" stroke-linecap="round" stroke-linejoin="round" stroke-miterlimit="10" d="
			M357.297,241.295c-0.1,0.405-0.21,0.83-0.329,1.264"/>
		
			<path fill="none" stroke="#312622" stroke-width="1.4173" stroke-linecap="round" stroke-linejoin="round" stroke-miterlimit="10" d="
			M358.115,238.096c-0.1,0.415-0.21,0.839-0.329,1.294"/>
		
			<path fill="none" stroke="#312622" stroke-width="1.4173" stroke-linecap="round" stroke-linejoin="round" stroke-miterlimit="10" d="
			M358.335,237.217c-0.04,0.168-0.08,0.336-0.13,0.514"/>
		
			<path fill="none" stroke="#312622" stroke-width="1.4173" stroke-linecap="round" stroke-linejoin="round" stroke-miterlimit="10" d="
			M359.093,234.116c-0.04,0.158-0.08,0.326-0.12,0.494c-0.12,0.504-0.249,1.047-0.389,1.62"/>
		
			<path fill="none" stroke="#312622" stroke-width="1.4173" stroke-linecap="round" stroke-linejoin="round" stroke-miterlimit="10" d="
			M359.732,231.262c-0.02,0.109-0.04,0.227-0.07,0.346"/>
		
			<path fill="none" stroke="#312622" stroke-width="1.4173" stroke-linecap="round" stroke-linejoin="round" stroke-miterlimit="10" d="
			M360.081,229.474c-0.02,0.138-0.05,0.286-0.08,0.435"/>
		
			<path fill="none" stroke="#312622" stroke-width="1.4173" stroke-linecap="round" stroke-linejoin="round" stroke-miterlimit="10" d="
			M360.241,228.516c-0.02,0.119-0.04,0.237-0.06,0.365"/>
		
			<path fill="none" stroke="#312622" stroke-width="1.4173" stroke-linecap="round" stroke-linejoin="round" stroke-miterlimit="10" d="
			M360.5,226.285c0,0.049-0.01,0.099-0.01,0.148"/>
		
			<path fill="none" stroke="#312622" stroke-width="1.4173" stroke-linecap="round" stroke-linejoin="round" stroke-miterlimit="10" d="
			M360.53,225.969c-0.01,0.069-0.01,0.128-0.02,0.198"/>
		
			<path fill="none" stroke="#312622" stroke-width="1.4173" stroke-linecap="round" stroke-linejoin="round" stroke-miterlimit="10" d="
			M360.5,219.243c0.03,0.207,0.04,0.415,0.06,0.632c0.08,0.938,0.12,1.896,0.12,2.854"/>
		
			<path fill="none" stroke="#312622" stroke-width="1.4173" stroke-linecap="round" stroke-linejoin="round" stroke-miterlimit="10" d="
			M360.37,218.078c0.04,0.346,0.09,0.691,0.12,1.047"/>
		
			<path fill="none" stroke="#312622" stroke-width="1.4173" stroke-linecap="round" stroke-linejoin="round" stroke-miterlimit="10" d="
			M359.811,215.007c0.11,0.494,0.21,0.978,0.299,1.481c0.09,0.484,0.17,0.968,0.24,1.462"/>
		
			<path fill="none" stroke="#312622" stroke-width="1.4173" stroke-linecap="round" stroke-linejoin="round" stroke-miterlimit="10" d="
			M359.422,213.476c0.14,0.494,0.269,0.988,0.379,1.491"/>
		
			<path fill="none" stroke="#312622" stroke-width="1.4173" stroke-linecap="round" stroke-linejoin="round" stroke-miterlimit="10" d="
			M358.504,210.612c0.06,0.168,0.12,0.326,0.17,0.484c0.11,0.296,0.22,0.602,0.309,0.909c0.15,0.444,0.279,0.899,0.409,1.353"/>
		
			<path fill="none" stroke="#312622" stroke-width="1.4173" stroke-linecap="round" stroke-linejoin="round" stroke-miterlimit="10" d="
			M358.325,210.138c0.05,0.128,0.1,0.247,0.14,0.365"/>
		
			<path fill="none" stroke="#312622" stroke-width="1.4173" stroke-linecap="round" stroke-linejoin="round" stroke-miterlimit="10" d="
			M358.025,209.368c0.03,0.099,0.07,0.188,0.1,0.277c0.04,0.089,0.08,0.168,0.11,0.257"/>
		
			<path fill="none" stroke="#312622" stroke-width="1.4173" stroke-linecap="round" stroke-linejoin="round" stroke-miterlimit="10" d="
			M357.606,208.4c0.03,0.069,0.06,0.138,0.09,0.207c0.08,0.168,0.15,0.346,0.22,0.514"/>
		
			<path fill="none" stroke="#312622" stroke-width="1.4173" stroke-linecap="round" stroke-linejoin="round" stroke-miterlimit="10" d="
			M356.938,206.988c0.13,0.247,0.249,0.504,0.369,0.751"/>
		
			<path fill="none" stroke="#312622" stroke-width="1.4173" stroke-linecap="round" stroke-linejoin="round" stroke-miterlimit="10" d="
			M355.89,205.033c0.03,0.049,0.06,0.099,0.08,0.148c0.12,0.188,0.229,0.385,0.329,0.583"/>
		
			<path fill="none" stroke="#312622" stroke-width="1.4173" stroke-linecap="round" stroke-linejoin="round" stroke-miterlimit="10" d="
			M355.211,203.887c0.18,0.277,0.349,0.563,0.509,0.859"/>
		
			<path fill="none" stroke="#312622" stroke-width="1.4173" stroke-linecap="round" stroke-linejoin="round" stroke-miterlimit="10" d="
			M353.715,201.645c0.19,0.257,0.369,0.523,0.559,0.79c0.03,0.059,0.07,0.109,0.1,0.158c0.03,0.039,0.05,0.069,0.08,0.109"/>
		
			<path fill="none" stroke="#312622" stroke-width="1.4173" stroke-linecap="round" stroke-linejoin="round" stroke-miterlimit="10" d="
			M352.657,200.243c0.239,0.296,0.459,0.593,0.689,0.899"/>
		
			<path fill="none" stroke="#312622" stroke-width="1.4173" stroke-linecap="round" stroke-linejoin="round" stroke-miterlimit="10" d="
			M352.447,199.976c0.02,0.03,0.04,0.059,0.07,0.089"/>
		
			<path fill="none" stroke="#312622" stroke-width="1.4173" stroke-linecap="round" stroke-linejoin="round" stroke-miterlimit="10" d="
			M351.779,199.167c0.22,0.257,0.439,0.523,0.659,0.79"/>
		
			<path fill="none" stroke="#312622" stroke-width="1.4173" stroke-linecap="round" stroke-linejoin="round" stroke-miterlimit="10" d="
			M350.432,197.646c0.299,0.326,0.609,0.662,0.908,1.007"/>
		
			<path fill="none" stroke="#312622" stroke-width="1.4173" stroke-linecap="round" stroke-linejoin="round" stroke-miterlimit="10" d="
			M349.354,196.53c0.279,0.286,0.559,0.573,0.838,0.859"/>
		
			<path fill="none" stroke="#312622" stroke-width="1.4173" stroke-linecap="round" stroke-linejoin="round" stroke-miterlimit="10" d="
			M348.376,195.582c0.21,0.207,0.409,0.405,0.619,0.593"/>
		
			<path fill="none" stroke="#312622" stroke-width="1.4173" stroke-linecap="round" stroke-linejoin="round" stroke-miterlimit="10" d="
			M347.169,194.495c0.269,0.247,0.539,0.484,0.808,0.721c0.04,0.039,0.08,0.079,0.12,0.109"/>
		
			<path fill="none" stroke="#312622" stroke-width="1.4173" stroke-linecap="round" stroke-linejoin="round" stroke-miterlimit="10" d="
			M346.46,193.903c0.14,0.109,0.269,0.217,0.399,0.336"/>
		
			<path fill="none" stroke="#312622" stroke-width="1.4173" stroke-linecap="round" stroke-linejoin="round" stroke-miterlimit="10" d="
			M339.346,189.064c0.928,0.514,1.826,1.047,2.714,1.62c0.439,0.277,0.878,0.573,1.307,0.869c0.818,0.573,1.626,1.165,2.405,1.787"
			/>
		
			<path fill="none" stroke="#312622" stroke-width="1.4173" stroke-linecap="round" stroke-linejoin="round" stroke-miterlimit="10" d="
			M404.993,220.596c0.08,0.099,0.15,0.198,0.229,0.306c1.656,2.252,2.864,4.869,3.492,7.762c2.405,11.1-4.73,22.022-15.945,24.402
			s-22.252-4.681-24.656-15.781c-0.838-3.842-0.519-7.663,0.708-11.11c1.128-4.75,7.713-20.294,7.713-25.745
			c0-13.362-11.076-24.185-24.726-24.185c-8.072,0-15.217,3.772-19.737,9.609l-0.01,0.01c2.505,0.849,4.919,1.916,7.214,3.16"/>
		
			<path fill="none" stroke="#312622" stroke-width="1.4173" stroke-linecap="round" stroke-linejoin="round" stroke-miterlimit="10" d="
			M350.063,268.344c-0.09,0.365-0.2,0.751-0.299,1.126c10.597,7.683,22.312,13.707,34.325,13.45
			c8.741-0.198,17.652-3.713,26.393-12.374c6.546-6.478,7.863-14.507,6.795-22.23c-1.816-13.075-10.457-25.252-12.054-27.414
			c-0.11-0.158-0.19-0.257-0.229-0.306c-0.02-0.03-0.03-0.04-0.03-0.04"/>
		
			<path fill="none" stroke="#312622" stroke-width="1.4173" stroke-linecap="round" stroke-linejoin="round" stroke-miterlimit="10" d="
			M202.034,188.136c0.11-0.918,1.247-12.265-6.167-29.399c-8.132-18.842-9.739-19.099-9.739-19.099s-3.393,7.407-7.883,8.888
			c-4.49,1.481,5.159-1.768,0.329-19.899c-0.05-0.188-0.15-0.533-0.299-0.988l-55.25,32.737l4.361,7.091
			c11.196-2.054,26.632-0.938,26.632,20.818c0,5.965-1.686,34.535,2.205,46.089c2.624,7.782,9.549,15.633,11.435,19.79
			l12.473,99.179l4.68,37.221c0,0,14.518-105.766,18.63-113.617c10.268,4.75,51.199,14.448,91.002-3.921
			c1.507-0.691,3.023-1.422,4.52-2.212c1.098-0.563,2.195-1.155,3.283-1.768c0.559-0.306,1.118-0.622,1.666-0.948l10.088,97.738
			l2.554,24.778c16.873-61.426,27.181-98.942,33.507-122.268c0.529-1.945,1.028-3.792,1.507-5.54
			c0.239-0.879,0.469-1.738,0.689-2.568c0.11-0.395,0.22-0.79,0.319-1.185c0.2-0.721,0.389-1.432,0.579-2.123
			c0.708-2.647,1.347-5.036,1.926-7.209c0.08-0.296,0.16-0.602,0.24-0.899c0.08-0.286,0.15-0.573,0.229-0.869
			c0.15-0.563,0.289-1.106,0.439-1.639c0-0.01,0-0.01,0-0.02c0.14-0.543,0.279-1.057,0.409-1.56c0.2-0.76,0.389-1.481,0.569-2.173
			c0.11-0.435,0.22-0.859,0.329-1.264c0.17-0.662,0.329-1.304,0.489-1.906c0.11-0.444,0.22-0.879,0.329-1.294
			c0.03-0.119,0.06-0.247,0.09-0.365c0.04-0.168,0.08-0.346,0.13-0.514c0.08-0.336,0.17-0.672,0.249-0.988
			c0.14-0.583,0.269-1.116,0.389-1.62c0.04-0.168,0.08-0.336,0.12-0.494c0.22-0.968,0.409-1.787,0.569-2.508
			c0.02-0.119,0.05-0.237,0.07-0.346c0.11-0.504,0.2-0.948,0.269-1.353c0.03-0.148,0.06-0.296,0.08-0.435
			c0.04-0.207,0.07-0.405,0.1-0.593c0.02-0.128,0.04-0.247,0.06-0.365c0.12-0.78,0.18-1.412,0.249-2.084
			c0-0.049,0.01-0.099,0.01-0.148c0-0.04,0.01-0.079,0.01-0.118c0.01-0.069,0.01-0.128,0.02-0.198c0.1-1.086,0.15-2.163,0.15-3.239
			c0-0.958-0.04-1.916-0.12-2.854c-0.01-0.207-0.03-0.425-0.06-0.632c0-0.04,0-0.079-0.01-0.118c-0.03-0.356-0.08-0.701-0.12-1.047
			c-0.01-0.039-0.02-0.089-0.02-0.128c-0.07-0.494-0.15-0.978-0.24-1.462c-0.09-0.494-0.19-0.988-0.299-1.481
			c0-0.01,0-0.02-0.01-0.039c-0.11-0.494-0.239-0.997-0.379-1.491c0-0.039-0.01-0.079-0.03-0.118
			c-0.12-0.454-0.259-0.909-0.409-1.353c-0.06-0.188-0.12-0.385-0.19-0.573c-0.03-0.109-0.07-0.227-0.12-0.336
			c-0.05-0.158-0.11-0.326-0.17-0.484c-0.01-0.03-0.02-0.069-0.04-0.109c-0.04-0.118-0.09-0.247-0.14-0.365
			c-0.03-0.079-0.06-0.158-0.09-0.237c-0.07-0.178-0.14-0.356-0.21-0.533c-0.04-0.079-0.07-0.168-0.11-0.247
			c-0.1-0.247-0.2-0.484-0.309-0.721c-0.02-0.059-0.05-0.118-0.08-0.178c-0.07-0.158-0.15-0.316-0.22-0.484
			c-0.12-0.247-0.24-0.504-0.369-0.751c-0.01-0.03-0.03-0.059-0.05-0.099c-0.18-0.375-0.379-0.751-0.589-1.126
			c-0.04-0.089-0.09-0.188-0.15-0.277c-0.08-0.158-0.17-0.306-0.259-0.454c-0.05-0.099-0.1-0.198-0.17-0.286
			c-0.16-0.286-0.329-0.573-0.509-0.859c-0.03-0.059-0.07-0.109-0.1-0.168c-0.07-0.109-0.14-0.217-0.21-0.326
			c-0.15-0.227-0.299-0.464-0.449-0.691c0-0.01-0.01-0.01-0.01-0.02c-0.06-0.079-0.11-0.168-0.17-0.247
			c-0.18-0.267-0.369-0.523-0.559-0.79c-0.12-0.168-0.24-0.336-0.369-0.504c-0.22-0.306-0.449-0.602-0.689-0.899
			c-0.04-0.059-0.09-0.118-0.14-0.178c-0.02-0.03-0.04-0.059-0.07-0.089c0-0.01-0.01-0.02-0.01-0.02
			c-0.22-0.267-0.429-0.533-0.659-0.79c-0.14-0.168-0.289-0.346-0.439-0.514c-0.289-0.346-0.599-0.672-0.908-1.007
			c-0.07-0.079-0.15-0.168-0.239-0.257c-0.269-0.286-0.549-0.573-0.838-0.859c-0.12-0.118-0.24-0.237-0.359-0.356
			c-0.2-0.198-0.409-0.395-0.619-0.593c-0.09-0.089-0.19-0.168-0.279-0.257c-0.04-0.04-0.08-0.069-0.12-0.109
			c-0.269-0.247-0.529-0.484-0.808-0.721c-0.1-0.089-0.2-0.178-0.309-0.257c-0.13-0.119-0.259-0.227-0.399-0.336
			c-0.22-0.198-0.449-0.385-0.688-0.563c-0.778-0.622-1.577-1.225-2.405-1.787c-0.19-0.138-0.379-0.267-0.579-0.405
			c-0.24-0.158-0.479-0.316-0.728-0.464c-0.878-0.573-1.786-1.116-2.714-1.62c-0.02-0.02-0.05-0.03-0.07-0.039
			c-2.285-1.254-4.7-2.311-7.204-3.17c-1.686-0.573-3.413-1.047-5.169-1.422c0,0-0.409-0.089-1.128-0.188
			c0,0.03,0.01,0.059,0.01,0.089c0.02,0.158,0.04,0.326,0.05,0.484c0.01,0.138,0.03,0.277,0.03,0.415
			c0.02,0.178,0.03,0.356,0.03,0.533c0.08,1.629-0.06,3.269-0.419,4.849c-2.046,8.987-9.4,16.275-17.971,20.58
			c-8.581,4.306-18.32,6.014-27.939,7.209c-15.606,1.936-31.541,2.657-47.018-0.04c-10.288-1.797-21.623-6.34-24.676-15.811
			c-1.806-5.58-0.18-11.752,2.954-16.778c0.269-0.435,0.549-0.859,0.848-1.284c0.269-0.375,0.539-0.751,0.818-1.116
			c0.03-0.039,0.06-0.079,0.09-0.118c0-0.01-0.01-0.01-0.01-0.02c-1.387-2.123-2.874-3.871-3.532-5.106
			c-0.15-0.286-0.259-0.553-0.309-0.78C207.323,180.581,202.533,184.669,202.034,188.136c0,0.02-0.01,0.039-0.01,0.059"/>
		<path fill="#312622" d="M137.594,130.275c0,1.718-1.407,3.111-3.143,3.111c-0.788,0-1.507-0.286-2.056-0.76
			c-0.469-0.563-0.828-1.215-1.058-1.916c-0.02-0.138-0.03-0.286-0.03-0.435c0-1.718,1.407-3.111,3.143-3.111
			C136.187,127.164,137.594,128.557,137.594,130.275z"/>
		<g>
			<path fill="#FFFFFF" d="M335.275,199.367c0,0,0.526,0.106,1.423,0.343c0.454,0.091,0.976,0.327,1.589,0.609
				c0.3,0.145,0.652,0.277,0.972,0.466c0.319,0.189,0.645,0.407,0.992,0.627c0.722,0.415,1.38,1.006,2.105,1.615
				c0.69,0.636,1.401,1.338,2.061,2.122c0.643,0.796,1.309,1.628,1.863,2.547c0.616,0.886,1.086,1.87,1.603,2.829
				c0.427,1,0.915,1.977,1.227,3.003c0.172,0.507,0.342,1.009,0.492,1.511c0.125,0.509,0.248,1.012,0.369,1.507
				c0.259,0.983,0.334,1.979,0.476,2.894c0.059,0.936,0.148,1.809,0.098,2.627c-0.031,0.816-0.047,1.554-0.18,2.21
				c-0.111,0.653-0.173,1.215-0.333,1.669c-0.27,0.908-0.455,1.4-0.455,1.4s-0.058-0.545-0.106-1.452
				c0.005-0.45-0.136-1.005-0.19-1.624c-0.051-0.619-0.238-1.313-0.357-2.061c-0.125-0.749-0.392-1.545-0.559-2.389
				c-0.272-0.831-0.49-1.715-0.817-2.603c-0.153-0.446-0.309-0.899-0.467-1.357c-0.18-0.45-0.362-0.906-0.546-1.365
				c-0.342-0.926-0.801-1.822-1.204-2.737c-0.463-0.886-0.884-1.798-1.397-2.636c-0.468-0.869-1.007-1.667-1.513-2.458
				c-0.235-0.412-0.549-0.744-0.798-1.122c-0.271-0.358-0.502-0.748-0.792-1.06c-0.576-0.628-1.054-1.313-1.608-1.818
				c-0.533-0.539-1.012-1.05-1.489-1.419c-0.47-0.387-0.863-0.789-1.269-1.025C335.699,199.697,335.275,199.367,335.275,199.367z"/>
		</g>
	</g>
	<g>
		<g id="XMLID_2_">
			<g>
				<path fill="#B7897C" d="M224.066,334.894c0.319,1.363,0.499,2.745,0.599,4.138c-4.201,0.089-8.352,0.198-12.463,0.336
					c0.359-0.02,0.718-0.03,1.088-0.039l-0.579-16.769l2.954-0.099C219.935,325.67,222.879,329.867,224.066,334.894z"/>
				<path fill="#B7897C" d="M415.66,241.225c6.167,1.264,10.527,6.044,9.948,11.258l-1.407,12.828
					c-0.459-0.049-0.918-0.089-1.387-0.118c-0.489-0.03-0.978-0.049-1.477-0.049c0,0-0.17,0-0.489-0.01
					c-0.269-0.01-0.659-0.02-1.148-0.039c-0.09,0-0.17,0-0.259,0c-0.2-0.01-0.419-0.02-0.649-0.02c-0.09-0.01-0.17-0.01-0.259-0.01
					c-0.679-0.02-1.487-0.049-2.405-0.069c-0.02,0-0.03,0-0.04,0c-0.429-0.02-0.898-0.03-1.377-0.04
					c2.844-5.234,3.343-11.021,2.564-16.63C416.937,245.906,416.369,243.526,415.66,241.225z"/>
				<path fill="#B7897C" d="M414.692,264.995c1.796,0.049,3.592,0.109,5.388,0.148c4.79,0,10.128,1.225,13.74,4.513
					c2.525,2.281,3.323,5.451,2.804,8.73c-0.649,4.039-4.66,6.617-8.242,7.891c-2.854,1.017-5.738,1.294-8.671,1.323
					c-0.03,0-0.07,0-0.11,0c-0.489-0.02-1.078-0.03-1.766-0.049c-0.04,0-0.09-0.01-0.13-0.01c-0.21,0-0.419-0.01-0.639-0.02h-0.01
					c-0.679-0.02-1.427-0.04-2.255-0.059c-0.06,0-0.11,0-0.17-0.01c-4.84-0.138-12.134-0.336-21.334-0.563v0.04
					c-6.446-0.168-12.902-0.316-19.348-0.464c-2.584-0.059-5.179-0.109-7.763-0.158v-0.03c-1.058-0.02-2.125-0.049-3.193-0.069
					c-0.09,0-0.17,0-0.259,0c-1.008-0.02-2.026-0.039-3.053-0.069c-0.12,0-0.239,0-0.359,0c-2.185-0.049-4.41-0.089-6.675-0.128
					c-0.08,0-0.17-0.01-0.259-0.01c-2.325-0.039-4.69-0.089-7.095-0.128c1.676-6.113,3.153-11.564,4.47-16.403
					c10.597,7.683,22.312,13.717,34.325,13.45c8.751-0.188,17.652-3.713,26.403-12.364
					C412.258,268.797,413.635,266.941,414.692,264.995z"/>
				<path fill="#B7897C" d="M414.233,287.482c1.806,0.049,3.592,0.128,5.368,0.119c0.04,0,0.08,0,0.11,0
					c0.309,0.01,0.569,0.02,0.788,0.03c0.549,0.01,0.838,0.02,0.838,0.02c0.12,0,0.23-0.01,0.349-0.01l-6.825,60.319
					c-0.04,0.405-0.12,2.824-0.22,5.432c-0.649-0.158-1.307-0.316-1.976-0.474c-1.197-0.296-2.435-0.583-3.692-0.859
					c-1.936-0.435-3.931-0.859-5.987-1.274c-1.088-0.217-2.195-0.435-3.313-0.652c-0.329-0.059-0.659-0.118-0.988-0.188
					c-0.669-0.128-1.357-0.257-2.046-0.375c-1.427-0.267-2.884-0.523-4.371-0.78c-1.906-0.326-3.852-0.642-5.827-0.958
					c0.06-0.849,0.16-1.718,0.269-2.696l6.586-58.206c3.632,0.079,7.254,0.178,10.886,0.277
					C407.538,287.294,410.881,287.383,414.233,287.482z"/>
				<path fill="#9B746A" d="M403.26,297.081c5.381,0.089,10.747,0.178,16.129,0.276c0.401,0.007,0.797,0.015,1.197,0.023l1.102-9.74
					c-0.12,0-0.229,0.01-0.349,0.01c0,0-0.289-0.01-0.838-0.02c-0.22-0.01-0.479-0.02-0.788-0.03c-0.03,0-0.07,0-0.11,0
					c-1.776,0.01-3.562-0.069-5.368-0.118c-3.353-0.099-6.695-0.188-10.048-0.276c-3.632-0.099-7.254-0.198-10.886-0.277
					l-1.129,9.977C395.865,296.963,399.56,297.018,403.26,297.081z"/>
				<path fill="#B7897C" d="M366.188,286.307l-4.38,58.097c0,0.04,0,0.079-0.01,0.109c-5.079-0.583-10.338-1.116-15.746-1.62
					c-0.988-0.069-2.006-0.138-3.033-0.217c-0.509-0.039-1.038-0.069-1.557-0.109c-2.614-0.188-5.298-0.395-7.843-0.593
					l1.347-18.388c4.071-14.813,7.464-27.237,10.318-37.685C352.248,286.02,359.223,286.158,366.188,286.307z"/>
				<path fill="#9B746A" d="M342.639,295.777c6.717,0.114,16.088,0.248,22.806,0.39l0.743-9.861
					c-6.965-0.148-13.94-0.286-20.905-0.405C342.429,296.35,343.544,292.378,342.639,295.777z"/>
				<path fill="#B7897C" d="M286.161,285.122l-1.946,54.137c-3.792-0.118-7.613-0.207-11.475-0.277
					c2.155-3.654,4.311-6.587,4.311-6.587s-1.417-1.225-7.713,1.975c-0.459-2.419-1.158-7.525,0.349-9.135
					c-2.435,1.876-5.508,6.656-6.246,9.451c-0.11-0.198-0.299-0.454-0.539-0.76v-48.933
					C270.655,285.013,278.408,285.062,286.161,285.122z"/>
				<path fill="#9B746A" d="M286.161,285.122c-7.753-0.059-15.506-0.109-23.259-0.128v9.875c7.635,0.019,15.27,0.068,22.904,0.126
					L286.161,285.122z"/>
				<path fill="#B7897C" d="M243.694,283.769c15.307,0,33.138-2.627,50.75-10.754l1.257,12.176c-3.143-0.03-6.296-0.059-9.479-0.089
					c-0.02,0-0.04,0-0.06,0v0.02c-7.753-0.059-15.506-0.109-23.259-0.128v-0.02c-4.41-0.01-8.831-0.02-13.241-0.02
					c-1.996,0-3.981,0-5.967,0.01V283.769z"/>
				<path fill="#B7897C" d="M235.132,284.983c-0.18,0-0.359,0-0.539,0c-4.5,0.01-9.01,0.03-13.511,0.059
					c-3.223,0.02-6.446,0.04-9.669,0.069c-3.393,0.03-6.795,0.059-10.188,0.099c0.898-4.246,1.656-7.179,2.225-8.266
					c5.728,2.647,20.974,6.824,40.243,6.824v1.195C240.83,284.964,237.976,284.973,235.132,284.983z"/>
				<path fill="#B7897C" d="M234.593,284.983c0,0,0,17.006,0,32.441c-3.173,4.572-6.805,12.117-7.584,15.06
					c-1.207-2.163-9.24-9.787-11.345-10.024l-2.954,0.099l-1.297-37.438v-0.01c3.223-0.03,6.446-0.049,9.669-0.069
					C225.583,285.013,230.093,284.993,234.593,284.983z"/>
				<path fill="#9B746A" d="M221.083,285.043c-3.223,0.02-6.446,0.039-9.669,0.069v0.01l0.342,9.863
					c3.109-0.028,6.218-0.048,9.327-0.067c4.5-0.03,9.01-0.049,13.511-0.059c0-5.875,0-9.875,0-9.875
					C230.093,284.993,225.583,285.013,221.083,285.043z"/>
				<path fill="#B7897C" d="M157.331,250.745l0.938,12.571c-0.599,0.01-1.187,0.02-1.776,0.039c-0.649,0.01-1.297,0.02-1.946,0.03
					c-0.05,0-0.09,0-0.14,0c-1.187,0.02-2.365,0.049-3.542,0.069c-1.646,0.03-3.293,0.059-4.939,0.089
					c-1.118,0.02-2.225,0.039-3.333,0.069c-4.221,0.079-8.442,0.158-12.663,0.247l-1.327-17.835
					c-0.429-5.669,4.919-10.636,11.934-11.09l2.834-0.188c7.015-0.464,13.042,3.763,13.471,9.431L157.331,250.745z"/>
				<path fill="#B7897C" d="M164.146,341.935c0,0.03,0,0.049,0,0.079c-0.529,0.049-1.078,0.089-1.626,0.138
					c-0.569,0.049-1.148,0.099-1.726,0.148c-1.587,0.138-3.203,0.286-4.73,0.425c-0.279,0.02-0.549,0.04-0.818,0.069
					c-0.968,0.089-1.886,0.168-2.724,0.247c-0.539,0.049-1.048,0.089-1.507,0.138c-0.12,0.01-0.23,0.02-0.329,0.03
					c-0.2,0.02-0.389,0.039-0.569,0.049c-0.239,0.02-0.469,0.049-0.669,0.069c-0.768,0.069-1.217,0.109-1.217,0.109
					c-4.171,0.415-8.232,0.859-12.194,1.323c-0.06-0.316-0.11-0.642-0.13-0.968l-4.331-57.436c0.03-0.01,0.05-0.01,0.08-0.01
					c0.988-0.02,1.986-0.039,3.003-0.059c0.18-0.01,0.369-0.01,0.549-0.01c0.938-0.02,1.886-0.039,2.844-0.059
					c0.14-0.01,0.269-0.01,0.409-0.01c0.978-0.02,1.966-0.039,2.964-0.059c0.16-0.01,0.319-0.01,0.479-0.01
					c1.048-0.03,2.105-0.049,3.173-0.069c0.08,0,0.15,0,0.229,0c4.73-0.099,9.639-0.188,14.708-0.277L164.146,341.935z"/>
				<path fill="#B7897C" d="M81.735,287.64c0.22-0.01,0.499-0.02,0.848-0.03c0.01,0,0.01,0,0.01,0c0.1,0,0.21-0.01,0.309-0.01
					c0.05,0,0.1,0,0.15,0c0.259-0.01,0.559-0.02,0.868-0.03c0.04,0,0.07,0,0.1,0c0.15-0.01,0.299-0.01,0.459-0.02
					c0.05,0,0.11,0,0.16,0c0.15-0.01,0.309-0.01,0.479-0.02c0.11,0,0.239,0,0.359-0.01c0.539-0.01,1.138-0.03,1.786-0.049
					c0.299-0.01,0.609-0.02,0.938-0.03c0.18,0,0.369-0.01,0.559-0.02c0.1,0,0.2,0,0.309,0c1.138-0.04,2.395-0.069,3.762-0.109
					c0.1-0.01,0.21-0.01,0.319-0.01c0.958-0.03,1.986-0.059,3.053-0.089c0.16,0,0.329-0.01,0.499-0.01
					c1.756-0.049,3.642-0.099,5.658-0.158c0.21,0,0.419-0.01,0.639-0.01c0.329-0.01,0.669-0.02,1.008-0.03
					c0.2,0,0.399-0.01,0.609-0.02c0.898-0.02,1.816-0.039,2.754-0.069l5.728,60.981c-0.788,0.128-1.567,0.247-2.345,0.385
					c-1.118,0.178-2.215,0.365-3.303,0.553c-0.249,0.039-0.509,0.079-0.758,0.128c-1.038,0.178-2.075,0.365-3.093,0.553
					c-0.609,0.109-1.217,0.217-1.816,0.336c-1.207,0.227-2.385,0.454-3.552,0.681c-1.167,0.237-2.315,0.464-3.443,0.701
					c-0.14,0.03-0.279,0.059-0.409,0.089c-0.649,0.138-1.297,0.276-1.926,0.415c-1.537,0.336-3.023,0.672-4.48,1.017
					c-0.429,0.099-0.858,0.198-1.277,0.306c-0.509,0.118-1.018,0.247-1.527,0.375l-6.216-65.81c0.339,0.01,0.679,0.02,1.008,0.02
					c0.17-0.01,0.329-0.01,0.499-0.01c0.249,0.01,0.509,0.01,0.758,0.01c0,0,0.01,0,0.03,0
					C81.296,287.65,81.446,287.65,81.735,287.64z"/>
				<path fill="#B7897C" d="M145.786,286.03c-21.773,0.425-43.555,0.918-65.328,1.61c-0.18-0.01-0.369-0.02-0.549-0.03
					c-0.329-0.01-0.649-0.039-0.968-0.059l0.01,0.079c-4.999-0.178-10.707-1.728-13.89-5.708c-1.886-2.35-2.365-6.192-1.217-9.006
					c1.686-4.138,6.526-6.301,10.647-7.189c0.619-0.138,1.247-0.247,1.876-0.336l0.02,0.198c0.429-0.079,0.858-0.138,1.287-0.198
					c0.19-0.03,0.369-0.049,0.559-0.069c0.319-0.04,0.649-0.069,0.978-0.089c0.17-0.02,0.329-0.03,0.499-0.039
					c0.499-0.03,0.998-0.049,1.507-0.049c0,0,0.18,0,0.509-0.01c0.259-0.01,0.599-0.02,1.038-0.039c0.04,0,0.09,0,0.13,0
					c1.317-0.04,3.383-0.099,6.117-0.178c0.02,0,0.04,0,0.06-0.01c3.931-0.109,9.23-0.257,15.666-0.425v-0.03
					c8.402-0.217,16.794-0.415,25.195-0.593v0.02c4.041-0.089,8.272-0.178,12.663-0.267c1.098-0.02,2.215-0.04,3.333-0.069
					c1.646-0.03,3.293-0.059,4.939-0.089c1.227-0.02,2.455-0.049,3.682-0.069c0.649-0.01,1.297-0.02,1.946-0.03
					c1.058-0.02,2.125-0.039,3.183-0.059l2.664,22.437c-0.778,0.01-1.547,0.03-2.325,0.04
					C155.276,285.862,150.526,285.941,145.786,286.03z"/>
				<path fill="#B7897C" d="M103.817,256.206l0.918,8.246c-0.02,0-0.05,0-0.07,0c-5.378,0.138-10.747,0.286-16.115,0.435
					c-3.981,0.118-8.192-0.069-12.184,0.504l-1.427-12.907c-0.619-5.649,4.55-10.804,11.545-11.505l2.824-0.277
					c6.995-0.701,13.171,3.308,13.79,8.957L103.817,256.206z"/>
				<path fill="#FFFFFF" d="M301.348,339.881v0.01c-2.804-0.118-5.638-0.237-8.492-0.346
					C295.711,339.644,298.545,339.763,301.348,339.881z"/>
				<path fill="#FFFFFF" d="M292.857,339.545c-2.854-0.109-5.738-0.207-8.641-0.286
					C287.119,339.338,290.003,339.437,292.857,339.545z"/>
				<path fill="#FFFFFF" d="M255.897,327.685c-0.07-0.03-0.13-0.059-0.19-0.089C255.767,327.616,255.827,327.645,255.897,327.685z"
					/>
				<path fill="#FFFFFF" d="M255.708,327.596c-0.06-0.03-0.11-0.049-0.17-0.069C255.588,327.537,255.648,327.566,255.708,327.596z"
					/>
				<path fill="#FFFFFF" d="M255.538,327.527c-0.05-0.02-0.1-0.039-0.15-0.049C255.438,327.487,255.488,327.497,255.538,327.527z"/>
				<path opacity="0.1" fill="#312622" d="M261.315,336.425c-0.848-3.634-2.984-6.656-6.057-8.977c0.04,0,0.09,0.01,0.13,0.03
					c0.05,0.01,0.1,0.03,0.15,0.049c0.06,0.02,0.11,0.04,0.17,0.069c0.06,0.03,0.12,0.059,0.19,0.089
					c1.646,0.869,4.909,3.851,6.596,5.767c0.07,0.089,0.15,0.168,0.21,0.247c0.07,0.079,0.13,0.148,0.2,0.227
					c0.239,0.306,0.429,0.563,0.539,0.76c0.738-2.795,3.812-7.574,6.246-9.451c-1.507,1.61-0.808,6.715-0.349,9.135
					c6.296-3.2,7.713-1.975,7.713-1.975s-2.155,2.933-4.311,6.587c3.862,0.069,7.683,0.158,11.475,0.277
					c2.904,0.079,5.787,0.178,8.641,0.286c2.854,0.109,5.688,0.227,8.492,0.346l5.229,50.72c0,0,2.884-8.888,7.424-24.778
					l2.554,24.778c5.049-18.359,9.499-34.574,13.441-48.923c1.157,0.089,2.375,0.188,3.622,0.286
					c2.544,0.198,5.229,0.405,7.843,0.593c0.529,0.039,1.048,0.079,1.557,0.109c1.028,0.079,2.046,0.148,3.033,0.217
					c5.408,0.504,10.667,1.037,15.746,1.62c8.751,0.997,16.993,2.103,24.646,3.318c1.976,0.316,3.921,0.632,5.827,0.958
					c1.477,0.257,2.934,0.514,4.371,0.78c0.689,0.118,1.367,0.247,2.046,0.375c0.329,0.069,0.659,0.128,0.988,0.188
					c1.128,0.217,2.225,0.435,3.313,0.652c2.056,0.425,4.061,0.849,5.987,1.274c1.257,0.286,2.485,0.573,3.692,0.859
					c0.669,0.158,1.327,0.316,1.976,0.474C435.717,358.625,448,364.915,448,371.68c0,6.241-10.457,12.078-28.608,17.045
					c1.457,1.778,2.235,3.605,2.235,5.461c0,18.675-76.753,33.814-171.438,33.814S78.752,412.861,78.752,394.186
					c0-1.827,0.748-3.624,2.165-5.372C62.577,383.817,52,377.951,52,371.68c0-6.755,12.213-13.026,33.168-18.24
					c0.509-0.128,1.018-0.257,1.527-0.375c0.419-0.099,0.848-0.207,1.277-0.306c1.457-0.346,2.944-0.681,4.48-1.017
					c0.629-0.138,1.277-0.277,1.926-0.415c0.13-0.03,0.269-0.059,0.409-0.089c1.128-0.237,2.275-0.464,3.443-0.701
					c1.167-0.227,2.345-0.454,3.552-0.681c0.599-0.109,1.207-0.227,1.816-0.336c1.018-0.188,2.046-0.365,3.093-0.553
					c0.249-0.049,0.509-0.089,0.758-0.128c1.088-0.188,2.185-0.375,3.303-0.553c0.778-0.138,1.557-0.257,2.345-0.385
					c7.154-1.146,14.818-2.192,22.94-3.14c3.961-0.464,8.023-0.909,12.194-1.323c0,0,0.449-0.039,1.217-0.109
					c0.2-0.02,0.429-0.04,0.669-0.069c0.18-0.01,0.369-0.03,0.569-0.049c0.11-0.01,0.22-0.02,0.329-0.03
					c0.459-0.04,0.968-0.089,1.507-0.138c0.838-0.069,1.756-0.158,2.724-0.247c0.269-0.02,0.539-0.049,0.818-0.069
					c1.527-0.138,3.143-0.286,4.73-0.425c0.579-0.049,1.157-0.099,1.726-0.148c0.549-0.049,1.098-0.089,1.626-0.138
					c1.896-0.158,3.602-0.296,4.859-0.385l5.827,48.943c0,0,2.285-16.65,5.298-37.221l4.68,37.221c0,0,3.333-24.244,7.244-50.365
					c6.576-0.336,13.301-0.622,20.146-0.839c4.111-0.138,8.262-0.247,12.463-0.336c-0.1-1.392-0.279-2.775-0.599-4.138
					c-1.187-5.027-4.131-9.224-8.402-12.433c2.105,0.237,10.138,7.861,11.345,10.024c0.778-2.943,4.41-10.488,7.584-15.06
					c0.21-0.316,0.429-0.612,0.639-0.889c0.13-0.168,0.249-0.336,0.379-0.494c0.11-0.138,0.22-0.286,0.339-0.415
					c0.489-0.602,0.968-1.076,1.397-1.412c-2.095,2.232-2.794,14.487-2.155,17.845c8.731-4.444,10.697-2.745,10.697-2.745
					s-3.133,4.256-6.197,9.49c3.413-0.03,6.845-0.039,10.308-0.039c3.921,0,7.813,0.02,11.685,0.059
					C261.605,338.015,261.505,337.215,261.315,336.425z"/>
				<path fill="#FFFFFF" d="M160.794,342.301c0.579-0.049,1.157-0.099,1.726-0.148C161.951,342.202,161.372,342.251,160.794,342.301
					z"/>
				<path fill="#FFFFFF" d="M110.752,348.285c-1.118,0.178-2.215,0.365-3.303,0.553
					C108.537,348.651,109.635,348.463,110.752,348.285z"/>
				<path fill="#FFFFFF" d="M106.691,348.967c-1.048,0.188-2.075,0.365-3.093,0.553
					C104.616,349.332,105.653,349.144,106.691,348.967z"/>
				<path fill="#FFFFFF" d="M103.598,349.52c-0.609,0.109-1.217,0.227-1.816,0.336C102.381,349.737,102.989,349.628,103.598,349.52z
					"/>
				<path fill="#FFFFFF" d="M87.972,352.759c-0.429,0.099-0.858,0.207-1.277,0.306C87.114,352.956,87.543,352.857,87.972,352.759z"
					/>
				<g>
					<path fill="#9B746A" d="M160.015,295.649c0.242-0.003,0.483-0.008,0.724-0.012l-0.724-9.843
						c-5.069,0.089-9.978,0.178-14.708,0.277c-0.08,0-0.15,0-0.229,0c-1.068,0.02-2.126,0.039-3.173,0.069
						c-0.16,0-0.319,0-0.479,0.01c-0.998,0.02-1.985,0.039-2.964,0.059c-0.14,0-0.269,0-0.409,0.01
						c-0.958,0.02-1.906,0.039-2.844,0.059c-0.18,0-0.369,0-0.549,0.01c-1.018,0.02-2.016,0.04-3.003,0.059
						c-0.03,0-0.05,0-0.08,0.01l0.741,9.825c4.49-0.095,8.979-0.187,13.468-0.275C150.526,295.817,155.276,295.738,160.015,295.649z
						"/>
					<path fill="#9B746A" d="M104.616,286.988c-0.21,0.01-0.409,0.02-0.609,0.02c-0.339,0.01-0.678,0.02-1.008,0.03
						c-0.22,0-0.429,0.01-0.639,0.01c-2.016,0.059-3.901,0.109-5.658,0.158c-0.17,0-0.339,0.01-0.499,0.01
						c-1.068,0.03-2.096,0.059-3.053,0.089c-0.11,0-0.219,0-0.319,0.01c-1.367,0.039-2.624,0.069-3.762,0.109
						c-0.11,0-0.21,0-0.309,0c-0.19,0.01-0.379,0.02-0.559,0.02c-0.329,0.01-0.639,0.02-0.938,0.03
						c-0.649,0.02-1.247,0.04-1.786,0.049c-0.12,0.01-0.249,0.01-0.359,0.01c-0.17,0.01-0.329,0.01-0.479,0.02
						c-0.05,0-0.11,0-0.16,0c-0.16,0.01-0.309,0.01-0.459,0.02c-0.03,0-0.06,0-0.1,0c-0.309,0.01-0.609,0.02-0.868,0.03
						c-0.05,0-0.1,0-0.15,0c-0.1,0-0.21,0.01-0.309,0.01c0,0,0,0-0.01,0c-0.349,0.01-0.629,0.02-0.848,0.03
						c-0.289,0.01-0.439,0.01-0.489,0.01c-0.02,0-0.03,0-0.03,0c-0.249,0-0.509,0-0.758-0.01c-0.17,0-0.329,0-0.499,0.01
						c-0.329,0-0.669-0.01-1.008-0.02l0.931,9.854c0.009,0,0.018,0.001,0.027,0.002c0.18,0.01,0.369,0.02,0.549,0.03
						c9.276-0.294,18.555-0.547,27.833-0.78l-0.922-9.816C106.432,286.949,105.514,286.968,104.616,286.988z"/>
				</g>
			</g>
			<g>
				
					<path fill="none" stroke="#000000" stroke-width="1.4173" stroke-linecap="round" stroke-linejoin="round" stroke-miterlimit="10" d="
					M156.493,263.356c0.589-0.02,1.177-0.03,1.776-0.039l-0.938-12.571l-0.489-6.567c-0.429-5.669-6.456-9.895-13.471-9.431
					l-2.834,0.188c-7.015,0.454-12.363,5.422-11.934,11.09l1.327,17.835v0.02c4.041-0.089,8.272-0.178,12.663-0.267
					c1.098-0.02,2.215-0.04,3.333-0.069"/>
				
					<path fill="none" stroke="#000000" stroke-width="1.4173" stroke-linecap="round" stroke-linejoin="round" stroke-miterlimit="10" d="
					M150.865,263.455c1.177-0.02,2.355-0.049,3.542-0.069c0.05,0,0.09,0,0.14,0"/>
				
					<path fill="none" stroke="#000000" stroke-width="1.4173" stroke-linecap="round" stroke-linejoin="round" stroke-miterlimit="10" d="
					M76.367,265.39l0.02,0.198c0.429-0.079,0.858-0.138,1.287-0.198c0.19-0.03,0.369-0.049,0.559-0.069
					c0.319-0.04,0.649-0.069,0.978-0.089c0.17-0.02,0.329-0.03,0.499-0.039c0.499-0.03,0.998-0.049,1.507-0.049
					c0,0,0.18,0,0.509-0.01c0.259-0.01,0.599-0.02,1.038-0.039c0.04,0,0.09,0,0.13,0c1.317-0.04,3.383-0.099,6.117-0.178
					c0.02,0,0.04,0,0.06-0.01c3.931-0.109,9.23-0.257,15.666-0.425v-0.03l-0.918-8.246l-0.718-6.547
					c-0.619-5.649-6.795-9.658-13.79-8.957l-2.824,0.277c-6.995,0.701-12.164,5.856-11.545,11.505L76.367,265.39z"/>
				
					<path fill="none" stroke="#000000" stroke-width="1.4173" stroke-linecap="round" stroke-linejoin="round" stroke-miterlimit="10" d="
					M94.787,351.238c1.128-0.237,2.275-0.464,3.443-0.701"/>
				
					<path fill="none" stroke="#000000" stroke-width="1.4173" stroke-linecap="round" stroke-linejoin="round" stroke-miterlimit="10" d="
					M92.452,351.742c0.629-0.138,1.277-0.277,1.926-0.415"/>
				
					<path fill="none" stroke="#000000" stroke-width="1.4173" stroke-linecap="round" stroke-linejoin="round" stroke-miterlimit="10" d="
					M113.097,347.9l-5.728-60.981c-0.938,0.03-1.856,0.049-2.754,0.069c-0.21,0.01-0.409,0.02-0.609,0.02
					c-0.339,0.01-0.679,0.02-1.008,0.03c-0.22,0-0.429,0.01-0.639,0.01c-2.016,0.059-3.902,0.109-5.658,0.158
					c-0.17,0-0.339,0.01-0.499,0.01c-1.068,0.03-2.095,0.059-3.053,0.089c-0.11,0-0.22,0-0.319,0.01
					c-1.367,0.04-2.624,0.069-3.762,0.109c-0.11,0-0.21,0-0.309,0c-0.19,0.01-0.379,0.02-0.559,0.02
					c-0.329,0.01-0.639,0.02-0.938,0.03c-0.649,0.02-1.247,0.039-1.786,0.049c-0.12,0.01-0.249,0.01-0.359,0.01
					c-0.17,0.01-0.329,0.01-0.479,0.02c-0.05,0-0.11,0-0.16,0c-0.16,0.01-0.309,0.01-0.459,0.02c-0.03,0-0.06,0-0.1,0
					c-0.309,0.01-0.609,0.02-0.868,0.03c-0.05,0-0.1,0-0.15,0c-0.1,0-0.21,0.01-0.309,0.01c0,0,0,0-0.01,0
					c-0.349,0.01-0.629,0.02-0.848,0.03c-0.289,0.01-0.439,0.01-0.489,0.01c-0.02,0-0.03,0-0.03,0c-0.249,0-0.509,0-0.758-0.01
					c-0.18-0.01-0.369-0.02-0.549-0.03c-0.329-0.01-0.649-0.039-0.968-0.059l0.01,0.079l6.216,65.81"/>
				
					<path fill="none" stroke="#000000" stroke-width="1.4173" stroke-linecap="round" stroke-linejoin="round" stroke-miterlimit="10" d="
					M235.232,316.535c0.13-0.178,0.249-0.336,0.379-0.494c0.11-0.148,0.22-0.286,0.339-0.415"/>
				
					<path fill="none" stroke="#000000" stroke-width="1.4173" stroke-linecap="round" stroke-linejoin="round" stroke-miterlimit="10" d="
					M234.593,284.983c0,0,0,17.006,0,32.441"/>
				
					<path fill="none" stroke="#000000" stroke-width="1.4173" stroke-linecap="round" stroke-linejoin="round" stroke-miterlimit="10" d="
					M262.493,333.452c0.08,0.089,0.15,0.168,0.21,0.247c0.08,0.079,0.14,0.158,0.2,0.227v-48.933v-0.02
					c-4.41-0.01-8.831-0.02-13.241-0.02c-1.996,0-3.981,0-5.967,0.01c-2.864,0-5.718,0.01-8.561,0.02"/>
				
					<path fill="none" stroke="#000000" stroke-width="1.4173" stroke-linecap="round" stroke-linejoin="round" stroke-miterlimit="10" d="
					M399.675,350.132c1.118,0.217,2.225,0.435,3.313,0.652c2.056,0.415,4.051,0.839,5.987,1.274
					c1.257,0.277,2.495,0.563,3.692,0.859"/>
				
					<path fill="none" stroke="#000000" stroke-width="1.4173" stroke-linecap="round" stroke-linejoin="round" stroke-miterlimit="10" d="
					M392.271,348.789c1.487,0.257,2.944,0.514,4.371,0.78c0.689,0.118,1.377,0.247,2.046,0.375"/>
				
					<path fill="none" stroke="#000000" stroke-width="1.4173" stroke-linecap="round" stroke-linejoin="round" stroke-miterlimit="10" d="
					M419.602,287.6c-0.489-0.02-1.078-0.03-1.766-0.049c-0.04,0-0.09-0.01-0.13-0.01c-0.21,0-0.419-0.01-0.639-0.02h-0.01
					c-0.679-0.02-1.427-0.04-2.255-0.059c-0.06,0-0.11,0-0.17-0.01c-4.84-0.138-12.134-0.336-21.334-0.563v0.04l-6.586,58.206
					c-0.11,0.978-0.21,1.847-0.269,2.696"/>
				
					<path fill="none" stroke="#000000" stroke-width="1.4173" stroke-linecap="round" stroke-linejoin="round" stroke-miterlimit="10" d="
					M414.642,353.391c0.1-2.607,0.18-5.027,0.22-5.432l6.825-60.319c-0.12,0-0.229,0.01-0.349,0.01c0,0-0.289-0.01-0.838-0.02
					c-0.22-0.01-0.479-0.02-0.788-0.03"/>
				
					<path fill="none" stroke="#000000" stroke-width="1.4173" stroke-linecap="round" stroke-linejoin="round" stroke-miterlimit="10" d="
					M150.686,343.209c0.1-0.01,0.21-0.02,0.329-0.03c0.459-0.049,0.968-0.089,1.507-0.138c0.838-0.079,1.756-0.158,2.724-0.247
					c0.269-0.03,0.539-0.049,0.818-0.069"/>
				
					<path fill="none" stroke="#000000" stroke-width="1.4173" stroke-linecap="round" stroke-linejoin="round" stroke-miterlimit="10" d="
					M149.448,343.328c0.2-0.02,0.429-0.049,0.669-0.069"/>
				
					<path fill="none" stroke="#000000" stroke-width="1.4173" stroke-linecap="round" stroke-linejoin="round" stroke-miterlimit="10" d="
					M164.146,342.014c0-0.03,0-0.049,0-0.079l-4.131-56.142c-5.069,0.089-9.978,0.178-14.708,0.277c-0.08,0-0.15,0-0.229,0
					c-1.068,0.02-2.125,0.039-3.173,0.069c-0.16,0-0.319,0-0.479,0.01c-0.998,0.02-1.986,0.04-2.964,0.059
					c-0.14,0-0.269,0-0.409,0.01c-0.958,0.02-1.906,0.039-2.844,0.059c-0.18,0-0.369,0-0.549,0.01
					c-1.018,0.02-2.016,0.039-3.003,0.059c-0.03,0-0.05,0-0.08,0.01l4.331,57.436c0.02,0.326,0.07,0.652,0.13,0.968"/>
				
					<path fill="none" stroke="#000000" stroke-width="1.4173" stroke-linecap="round" stroke-linejoin="round" stroke-miterlimit="10" d="
					M160.015,285.773c0.778-0.01,1.547-0.03,2.325-0.04l-2.664-22.437c-1.058,0.02-2.125,0.039-3.183,0.059
					c-0.649,0.01-1.297,0.02-1.946,0.03c-1.227,0.02-2.455,0.049-3.682,0.069c-1.646,0.03-3.293,0.059-4.939,0.089
					c-1.118,0.02-2.225,0.039-3.333,0.069c-4.221,0.079-8.442,0.158-12.663,0.247c-8.402,0.178-16.794,0.375-25.195,0.593
					c-0.02,0-0.05,0-0.07,0c-5.378,0.138-10.747,0.286-16.115,0.435c-3.981,0.118-8.192-0.069-12.184,0.504
					c-0.629,0.089-1.257,0.198-1.876,0.336c-4.121,0.889-8.961,3.052-10.647,7.189c-1.148,2.815-0.669,6.656,1.217,9.006
					c3.183,3.98,8.891,5.53,13.89,5.708c0.339,0.01,0.679,0.02,1.008,0.02c0.17-0.01,0.329-0.01,0.499-0.01
					c21.773-0.691,43.555-1.185,65.328-1.61C150.526,285.941,155.276,285.862,160.015,285.773z"/>
				
					<path fill="none" stroke="#000000" stroke-width="1.4173" stroke-linecap="round" stroke-linejoin="round" stroke-miterlimit="10" d="
					M345.283,285.902c6.965,0.119,13.94,0.257,20.905,0.405c2.584,0.049,5.179,0.099,7.763,0.158
					c6.446,0.148,12.902,0.296,19.348,0.464c3.632,0.079,7.254,0.178,10.886,0.277c3.353,0.089,6.695,0.178,10.048,0.276
					c1.806,0.049,3.592,0.128,5.368,0.119c0.04,0,0.08,0,0.11,0c2.934-0.03,5.817-0.306,8.671-1.323
					c3.582-1.274,7.594-3.851,8.242-7.891c0.519-3.279-0.279-6.449-2.804-8.73c-3.612-3.289-8.951-4.513-13.74-4.513
					c-1.796-0.04-3.592-0.099-5.388-0.148c-1.058,1.945-2.435,3.802-4.201,5.56c-8.751,8.651-17.652,12.176-26.403,12.364
					c-12.014,0.267-23.728-5.767-34.325-13.45"/>
				
					<path fill="none" stroke="#000000" stroke-width="1.4173" stroke-linecap="round" stroke-linejoin="round" stroke-miterlimit="10" d="
					M349.763,269.469c-1.317,4.839-2.794,10.29-4.47,16.403"/>
				
					<path fill="none" stroke="#000000" stroke-width="1.4173" stroke-linecap="round" stroke-linejoin="round" stroke-miterlimit="10" d="
					M349.763,269.469c0.04-0.128,0.07-0.247,0.11-0.385C349.843,269.212,349.803,269.341,349.763,269.469z"/>
				
					<path fill="none" stroke="#000000" stroke-width="1.4173" stroke-linecap="round" stroke-linejoin="round" stroke-miterlimit="10" d="
					M295.701,285.191l-1.257-12.176c-17.612,8.128-35.443,10.754-50.75,10.754c-19.268,0-34.515-4.177-40.243-6.824
					c-0.569,1.086-1.327,4.019-2.225,8.266c3.393-0.039,6.795-0.069,10.188-0.099c3.223-0.03,6.446-0.049,9.669-0.069
					c4.5-0.03,9.01-0.049,13.511-0.059c0.18,0,0.359,0,0.539,0c9.25-0.03,18.51-0.03,27.77,0.01
					c7.753,0.02,15.506,0.069,23.259,0.128c3.183,0.03,6.356,0.059,9.539,0.089"/>
				
					<path fill="none" stroke="#000000" stroke-width="1.4173" stroke-linecap="round" stroke-linejoin="round" stroke-miterlimit="10" d="
					M212.202,339.368c0.359-0.02,0.718-0.03,1.088-0.039l-0.579-16.769l-1.297-37.438c-3.423,0.03-6.815,0.059-10.188,0.099
					c-2.505,11.87-6.027,34.031-9.17,54.987"/>
				
					<path fill="none" stroke="#000000" stroke-width="1.4173" stroke-linecap="round" stroke-linejoin="round" stroke-miterlimit="10" d="
					M301.348,339.881l-5.648-54.671v-0.02c-3.143-0.03-6.296-0.059-9.479-0.089c-0.02,0-0.04,0-0.06,0v0.02l-1.946,54.137"/>
				
					<path fill="none" stroke="#000000" stroke-width="1.4173" stroke-linecap="round" stroke-linejoin="round" stroke-miterlimit="10" d="
					M361.797,344.513c0.01-0.03,0.01-0.069,0.01-0.109l4.38-58.097v-0.03c-1.058-0.02-2.125-0.049-3.193-0.069
					c-0.09,0-0.17,0-0.259,0c-1.008-0.02-2.026-0.039-3.053-0.069c-0.12,0-0.239,0-0.359,0c-2.185-0.049-4.41-0.089-6.675-0.128
					c-0.08,0-0.17-0.01-0.259-0.01c-2.325-0.039-4.69-0.089-7.095-0.128c0,0.01-0.01,0.02-0.01,0.03
					c-2.854,10.448-6.246,22.872-10.318,37.685l-1.347,18.388"/>
				
					<path fill="none" stroke="#000000" stroke-width="1.4173" stroke-linecap="round" stroke-linejoin="round" stroke-miterlimit="10" d="
					M341.461,342.567c0.519,0.039,1.048,0.069,1.557,0.109"/>
				<g id="XMLID_1_">
					<g>
						<path fill="#B7897C" d="M407.643,240.765c-1.956,4.675-5.628,8.582-10.387,10.795l0.21-1.904
							C397.964,245.011,402.244,241.483,407.643,240.765z"/>
					</g>
					<g>
						
							<path fill="none" stroke="#000000" stroke-width="1.4173" stroke-linecap="round" stroke-linejoin="round" stroke-miterlimit="10" d="
							M407.643,240.765c-5.398,0.718-9.679,4.246-10.178,8.891l-0.21,1.904C402.015,249.347,405.687,245.44,407.643,240.765z"/>
					</g>
				</g>
				
					<path fill="none" stroke="#000000" stroke-width="1.4173" stroke-linecap="round" stroke-linejoin="round" stroke-miterlimit="10" d="
					M415.66,241.225c0.708,2.301,1.277,4.681,1.616,7.1c0.778,5.609,0.279,11.396-2.564,16.63c0.479,0.01,0.948,0.02,1.377,0.04
					c0.01,0,0.02,0,0.04,0c0.918,0.02,1.726,0.049,2.405,0.069c0.09,0,0.17,0,0.259,0.01c0.229,0,0.449,0.01,0.649,0.02
					c0.09,0,0.17,0,0.259,0c0.489,0.02,0.878,0.03,1.148,0.039c0.319,0.01,0.489,0.01,0.489,0.01c0.499,0,0.988,0.02,1.477,0.049
					c0.469,0.03,0.928,0.069,1.387,0.118l1.407-12.828C426.187,247.269,421.827,242.489,415.66,241.225z"/>
				
					<path fill="none" stroke="#000000" stroke-width="1.4173" stroke-linecap="round" stroke-linejoin="round" stroke-miterlimit="10" d="
					M414.642,353.391c-0.649-0.158-1.307-0.316-1.976-0.474c-1.207-0.286-2.435-0.573-3.692-0.859
					c-1.926-0.425-3.931-0.849-5.987-1.274c-1.088-0.217-2.185-0.435-3.313-0.652c-0.329-0.059-0.659-0.118-0.988-0.188
					c-0.679-0.128-1.357-0.257-2.046-0.375c-1.437-0.267-2.894-0.523-4.371-0.78c-1.906-0.326-3.852-0.642-5.827-0.958
					c-7.653-1.215-15.895-2.321-24.646-3.318c-5.079-0.583-10.338-1.116-15.746-1.62c-0.988-0.069-2.006-0.138-3.033-0.217
					c-0.509-0.03-1.028-0.069-1.557-0.109c-2.614-0.188-5.298-0.395-7.843-0.593c-1.247-0.099-2.465-0.198-3.622-0.286
					c-3.941,14.349-8.392,30.565-13.441,48.923l-2.554-24.778c-4.54,15.89-7.424,24.778-7.424,24.778l-5.229-50.72v-0.01
					c-2.804-0.119-5.638-0.237-8.492-0.336c-2.854-0.109-5.738-0.207-8.641-0.286c-3.792-0.118-7.613-0.207-11.475-0.277
					c2.155-3.654,4.311-6.587,4.311-6.587s-1.417-1.225-7.713,1.975c-0.459-2.419-1.158-7.525,0.349-9.135
					c-2.435,1.876-5.508,6.656-6.246,9.451c-0.11-0.198-0.299-0.454-0.539-0.76c-0.07-0.079-0.13-0.148-0.2-0.227
					c-0.06-0.079-0.14-0.158-0.21-0.247c-1.686-1.916-4.949-4.898-6.596-5.767c-0.07-0.04-0.13-0.069-0.19-0.089
					c-0.06-0.03-0.12-0.059-0.17-0.069c-0.05-0.03-0.1-0.039-0.15-0.049c-0.04-0.02-0.09-0.03-0.13-0.03
					c3.073,2.321,5.209,5.343,6.057,8.977c0.19,0.79,0.289,1.59,0.369,2.4c-3.872-0.039-7.763-0.059-11.685-0.059
					c-3.462,0-6.895,0.01-10.308,0.039c3.063-5.234,6.197-9.49,6.197-9.49s-1.966-1.699-10.697,2.745
					c-0.639-3.358,0.06-15.613,2.155-17.845c-0.429,0.336-0.908,0.81-1.397,1.412c-0.12,0.128-0.23,0.276-0.339,0.415
					c-0.13,0.158-0.249,0.326-0.379,0.494c-0.21,0.277-0.429,0.573-0.639,0.889c-3.173,4.572-6.805,12.117-7.584,15.06
					c-1.207-2.163-9.24-9.787-11.345-10.024c4.271,3.21,7.214,7.407,8.402,12.433c0.319,1.363,0.499,2.745,0.599,4.138
					c-4.201,0.089-8.352,0.198-12.463,0.336c-6.845,0.217-13.571,0.504-20.146,0.839c-3.911,26.121-7.244,50.365-7.244,50.365
					l-4.68-37.221c-3.013,20.571-5.298,37.221-5.298,37.221l-5.827-48.943c-1.257,0.089-2.964,0.227-4.859,0.385
					c-0.529,0.049-1.078,0.089-1.626,0.138c-0.569,0.049-1.148,0.099-1.726,0.148c-1.587,0.138-3.203,0.286-4.73,0.425
					c-0.279,0.02-0.549,0.049-0.818,0.069c-0.968,0.089-1.886,0.178-2.724,0.247c-0.539,0.049-1.048,0.099-1.507,0.138
					c-0.11,0.01-0.22,0.02-0.329,0.03c-0.2,0.02-0.389,0.039-0.569,0.049c-0.239,0.03-0.469,0.049-0.669,0.069
					c-0.768,0.069-1.217,0.109-1.217,0.109c-4.171,0.415-8.232,0.859-12.194,1.323c-8.122,0.948-15.786,1.995-22.94,3.14
					c-0.788,0.128-1.567,0.247-2.345,0.385c-1.118,0.178-2.215,0.365-3.303,0.553c-0.249,0.039-0.509,0.079-0.758,0.128
					c-1.038,0.178-2.075,0.365-3.093,0.553c-0.609,0.109-1.217,0.217-1.816,0.336c-1.207,0.227-2.385,0.454-3.552,0.681
					c-1.167,0.237-2.315,0.464-3.443,0.701c-0.14,0.03-0.279,0.059-0.409,0.089c-0.649,0.138-1.297,0.276-1.926,0.415
					c-1.537,0.336-3.023,0.672-4.48,1.017c-0.429,0.099-0.858,0.198-1.277,0.306c-0.509,0.118-1.018,0.247-1.527,0.375"/>
			</g>
		</g>
	</g>
</g>
</svg>
