<svg xmlns="http://www.w3.org/2000/svg" viewBox="0 0 500 500"><defs/><path fill="#B7897C" d="M434.225 189.24c2.52 2.31 3.33 5.53 2.8 8.85-.65 4.08-4.67 6.69-8.26 7.99-2.95 1.07-5.96 1.32-9 1.33-.05 0-.1-.01-.15 0-.41-.02-.88-.03-1.41-.05h-.14c-.2-.01-.41-.02-.63-.02h-.02c-.68-.02-1.43-.05-2.26-.07h-.16c-4.86-.14-12.17-.35-21.39-.58v.04a4181 4181 0 00-19.39-.46c-2.59-.06-5.19-.12-7.78-.16v-.04c-1.05-.02-2.12-.04-3.2-.07h-.25l-3.07-.06c-.12-.01-.24-.01-.36-.01-2.19-.04-4.42-.09-6.68-.13-.09 0-.18 0-.26-.01-4.74-.08-9.64-.17-14.69-.26v.03c-7.73-.14-15.47-.25-23.2-.35v-.02h-.01l-6.94-.09h-.09c-7.01-.08-14.15-.16-21.39-.21h-.05v.01c-7.77-.06-15.54-.11-23.32-.13v-.02c-4.42-.01-8.85-.02-13.27-.02-5.01 0-10.01.01-15 .03h-.1c-4.51.01-9.02.03-13.54.06-3.23.02-6.45.04-9.68.08-17.17.13-34.35.36-51.52.67-4.75.08-9.51.17-14.26.26-21.82.43-43.65.92-65.47 1.62-.18 0-.36-.01-.54-.02-.33-.02-.66-.04-.98-.07l.01.09c-5.01-.18-10.72-1.76-13.92-5.78-1.89-2.39-2.36-6.28-1.22-9.13 1.69-4.19 6.54-6.38 10.67-7.28.62-.13 1.25-.25 1.89-.33l.02.2c.42-.08.85-.15 1.29-.21.18-.03.37-.05.55-.07.33-.03.65-.07.98-.09.17-.01.34-.03.51-.04.49-.02.99-.04 1.5-.04 0 0 .19-.01.52-.02.25-.01.59-.02 1.03-.03.04 0 .09-.01.14-.01 1.31-.04 3.38-.1 6.13-.18h.05c3.94-.12 9.25-.27 15.7-.44v-.03c8.42-.22 16.84-.42 25.26-.6v.02c6.47-.14 13.43-.29 20.79-.42.06-.01.12-.01.18-.01l3.56-.06c.04-.01.09-.01.13-.01 1.23-.02 2.48-.04 3.73-.07v-.02c6.39-.11 12.77-.22 19.15-.31l4.38-.06v.02h.02l6.86-.09h.15c6.95-.09 14.06-.17 21.28-.23h.05v-.01c15.03-.13 30.05-.19 45.08-.17 25.95.04 51.9.31 77.84.73 24.08.39 48.15.9 72.22 1.55 5.12.14 10.23.32 15.35.45 4.8 0 10.15 1.24 13.78 4.56z"/><path fill="#B7897C" d="M414.425 160.2c7.01.71 12.19 5.93 11.57 11.65l-1.42 12.99a24.152 24.152 0 00-2.87-.16s-.17-.01-.49-.02c-.27-.01-.65-.02-1.15-.03-.08-.01-.17-.01-.25-.01-.21-.01-.42-.02-.66-.02-.08 0-.16-.01-.25-.01-.69-.02-1.5-.04-2.42-.07h-.04c-1.93-.06-4.37-.13-7.26-.21h-.06c-1.43-.04-2.98-.08-4.64-.13h-.15l-2.41-.06c-.05 0-.1-.01-.15-.01-1.75-.04-3.6-.09-5.54-.14h-.1l1.64-14.98c.62-5.72 6.81-9.78 13.83-9.07l2.82.28zM422.055 207.46l-6.83 61.07c-.05.41-.12 2.87-.23 5.5-.63-.16-1.26-.31-1.9-.46-.61-.15-1.23-.3-1.85-.44-1.9-.45-3.86-.89-5.88-1.31-2.02-.43-4.1-.84-6.25-1.25-3.93-.76-8.06-1.48-12.38-2.17.06-.86.16-1.74.27-2.73l6.6-58.94c3.64.09 7.27.18 10.91.28 3.36.09 6.72.18 10.08.28 1.68.05 3.36.12 5.02.12.05-.01.1 0 .15 0 .44.01.81.02 1.11.03l.83.03c.12 0 .23-.01.35-.01zM357.405 154.71c7.04.46 12.39 5.49 11.97 11.23l-1.29 17.37c-5.43-.11-11.18-.23-17.18-.34h-.24c-1.15-.02-2.3-.04-3.47-.07h-.07c-2.44-.04-4.92-.09-7.43-.13l1.38-18.7c.42-5.74 6.47-10.02 13.5-9.55l2.83.19zM366.435 206.11l-4.38 58.83c0 .03-.01.07-.01.1-2.41-.28-4.86-.55-7.35-.8l-2.04-.21c-2.1-.22-4.24-.43-6.39-.63-1.48-.1-3.03-.21-4.6-.33l-1.58-.12-.42-.03c-.75-.05-1.51-.11-2.26-.17-.16-.01-.33-.02-.49-.04l-1.57-.12-1.55-.12 4.13-56.91c9.5.16 19.01.34 28.51.55zM303.785 152.58c7.05.23 12.58 5.08 12.37 10.83l-.44 19h-.02c-9.2-.12-18.69-.23-28.35-.31l.46-19.62c.21-5.75 6.1-10.23 13.14-9.99l2.84.09zM262.925 204.77v49.55c-.38-.46-.88-1.02-1.46-1.62l-.58-.58c-.25-.25-.52-.51-.79-.76-.16-.16-.33-.31-.49-.46-1.75-1.61-3.58-3.05-4.34-3.14 3.09 2.35 5.22 5.42 6.07 9.09.19.8.3 1.61.37 2.43-3.87-.04-7.77-.06-11.71-.06-3.46 0-6.91.01-10.33.04 3.07-5.3 6.21-9.61 6.21-9.61s-1.97-1.72-10.72 2.78c-.64-3.4.06-15.81 2.16-18.06-.11.08-.21.17-.32.27-.11.1-.23.21-.34.33-.65.65-1.36 1.56-2.1 2.64v-32.85h.1c9.43-.03 18.85-.03 28.27.01zM262.925 160.83v21.13c-2.63-.01-5.26-.01-7.89-.01-1.79-.01-3.59-.01-5.38-.01-5.04 0-10.08.01-15.1.03v-21.14c0-5.75 5.71-10.42 12.76-10.42h2.85c7.05 0 12.76 4.67 12.76 10.42z"/><path fill="#B7897C" d="M260.095 251.36c-.16-.16-.33-.31-.49-.46.16.15.33.3.49.46zM209.755 162.67l.2 19.45c-9.45.08-18.91.18-28.36.31l-.2-19.41c-.1-5.75 5.54-10.49 12.59-10.58l2.84-.03c7.05-.09 12.84 4.51 12.93 10.26zM163.955 262.44v.07l-.75.06c-.18.02-.36.03-.54.05l-1.73.15c-.48.04-.96.08-1.43.13-.16.01-.32.03-.48.04-.3.03-.59.05-.89.08l-1.01.09c-.26.03-.52.05-.78.07-1.02.09-1.99.18-2.89.27-.2.01-.39.03-.58.05-.38.03-.75.07-1.09.1-.17.01-.34.03-.5.05-.59.05-1.12.1-1.57.14-.17.02-.33.03-.47.05l-1.23.11c-1.29.13-2.57.26-3.84.4-2.85.3-5.64.62-8.39.94-.06-.33-.11-.65-.13-.98l-4.34-58.16h.08c.99-.03 2-.05 3.01-.07.19 0 .37-.01.56-.01l2.84-.06c.14 0 .28-.01.42-.01l2.96-.06c.16 0 .32-.01.48-.01 1.06-.02 2.12-.04 3.19-.07h.22c4.74-.09 9.66-.19 14.74-.28l4.14 56.86z"/><path fill="#B7897C" d="M163.205 262.57c-.18.02-.36.04-.54.05.18-.02.36-.03.54-.05zM159.505 262.9c.47-.05.95-.09 1.43-.13-.48.05-.95.09-1.43.13zM159.025 262.94c-.3.03-.6.06-.89.08.3-.03.59-.05.89-.08zM157.125 170.1l.94 12.7c-9.46.17-18.93.36-28.39.57l-1.34-18.06c-.43-5.74 4.93-10.77 11.96-11.23l2.84-.19c7.03-.46 13.08 3.81 13.5 9.55l.49 6.66zM157.125 263.11c-.26.03-.52.05-.78.07.26-.02.52-.04.78-.07zM153.455 263.45c-.2.02-.39.03-.58.05.19-.02.38-.04.58-.05zM151.785 263.6c-.17.02-.34.03-.5.05.16-.02.33-.04.5-.05zM149.715 263.79c-.17.02-.33.03-.47.05.14-.02.3-.03.47-.05zM144.175 264.35c-2.84.31-5.64.62-8.39.95v-.01c2.75-.32 5.54-.64 8.39-.94zM107.055 206.73l5.75 61.74a400.8 400.8 0 00-8.57 1.47 329.38 329.38 0 00-9.78 1.91c-3.4.72-6.61 1.46-9.65 2.23l-6.23-66.63c.34.01.68.02 1.01.02.17-.01.33-.01.5-.02.25.01.5.02.76.02h.03c.05-.01.21-.01.49-.02.22-.01.5-.02.86-.03h.01c.09 0 .2 0 .31-.01h.14l.88-.03h.09c.15-.01.3-.01.46-.02h.16c.16-.01.32-.01.48-.01.12-.01.24-.01.36-.02.55-.01 1.14-.03 1.79-.05l.94-.03c.18 0 .37-.01.56-.01.1-.01.2-.01.31-.01 1.14-.04 2.4-.07 3.77-.11.11 0 .21-.01.32-.01.97-.03 1.99-.06 3.06-.09.17 0 .33-.01.5-.01 1.76-.05 3.66-.1 5.68-.15.21-.01.42-.01.63-.02l1.01-.03c.2 0 .41-.01.61-.01.9-.03 1.82-.05 2.76-.07zM103.505 175.62l.91 8.35h-.07c-5.38.14-10.76.29-16.15.45-3.99.11-8.2-.08-12.2.51l-1.43-13.08c-.63-5.72 4.55-10.94 11.56-11.65l2.83-.28c7.01-.71 13.2 3.35 13.82 9.07l.73 6.63z"/><g fill="#9B746A"><path d="M421.705 207.47l-.83-.03c-.3-.01-.67-.02-1.11-.03-.05 0-.1-.01-.15 0-1.66 0-3.34-.07-5.02-.12-3.36-.1-6.72-.19-10.08-.28-3.64-.1-7.27-.19-10.91-.28l-1.117 9.974c.372.01.745.017 1.117.026v-.04c9.22.23 16.53.44 21.39.58h.16c.83.02 1.58.05 2.26.07h.02c.22 0 .43.01.63.02h.14c.53.02 1 .03 1.41.05.05-.01.1 0 .15 0 .394-.001.787-.007 1.179-.018l1.111-9.932c-.12 0-.23.01-.35.01zM337.925 205.56l-.725 9.989.725.011v-.03c5.05.09 9.95.18 14.69.26.08.01.17.01.26.01 2.26.04 4.49.09 6.68.13.12 0 .24 0 .36.01l3.07.06h.25c.83.023 1.646.038 2.459.054l.74-9.944c-9.499-.21-19.009-.39-28.509-.55zM299.505 205.02c-4.42-.05-8.84-.09-13.26-.12l-.357 9.998.357.002v-.01h.05c7.24.05 14.38.13 21.39.21h.09l6.576.085.374-9.975c-5.07-.07-10.15-.14-15.22-.19zM249.655 214.73c4.42 0 8.85.01 13.27.02v-9.98c-9.42-.04-18.84-.04-28.27-.01h-.1v10h.1c4.99-.02 9.99-.03 15-.03zM197.095 205.05h-.28c-2.28.02-4.55.05-6.81.08h-.24l-6.8.09h-.01l.342 9.983c9.347-.127 18.694-.232 28.039-.303.114-.001.227-.001.34-.003l-.34-9.997c-4.801.05-9.551.09-14.241.15zM145.075 205.86h-.22c-1.07.03-2.13.05-3.19.07-.16 0-.32.01-.48.01l-2.96.06c-.14 0-.28.01-.42.01l-2.84.06c-.19 0-.37.01-.56.01-1.01.02-2.02.04-3.01.07h-.08l.743 9.957c4.5-.095 8.999-.189 13.497-.277 4.75-.09 9.51-.18 14.26-.26l.727-.011-.727-9.979c-5.08.09-10 .19-14.74.28zM104.295 206.8c-.2 0-.41.01-.61.01l-1.01.03c-.21.01-.42.01-.63.02-2.02.05-3.92.1-5.68.15-.17 0-.33.01-.5.01-1.07.03-2.09.06-3.06.09-.11 0-.21.01-.32.01-1.37.04-2.63.07-3.77.11-.11 0-.21 0-.31.01-.19 0-.38.01-.56.01l-.94.03c-.65.02-1.24.04-1.79.05-.12.01-.24.01-.36.02-.16 0-.32 0-.48.01h-.16c-.16.01-.31.01-.46.02h-.09l-.88.03h-.14c-.11.01-.22.01-.31.01h-.01c-.36.01-.64.02-.86.03-.28.01-.44.01-.49.02h-.03c-.26 0-.51-.01-.76-.02-.17.01-.33.01-.5.02-.33 0-.67-.01-1.01-.02l.933 9.977.037.003c.18.01.36.02.54.02 9.297-.298 18.596-.552 27.895-.786l-.925-9.934c-.94.02-1.86.04-2.76.07z"/></g><path fill="#B7897C" d="M187.132 252.34l4.72-14.24 4.36-13.17s0 .01.01.01c-.01-.03-.01-.06-.01-.09 0-1 2.34-1.8 5.23-1.8 2.88 0 5.22.81 5.22 1.8l4.26 13.08 1.717 5.269-.013-.389-1.29-37.91c-4.8.05-9.55.09-14.24.15h-.28c-2.28.02-4.55.05-6.81.08h-.24l-6.8.09h-.01l1.852 54.148 2.324-7.028z"/><path fill="#312622" d="M448.425 292.55c0-6.85-12.32-13.22-33.43-18.52-.63-.16-1.26-.31-1.9-.46-.61-.15-1.23-.3-1.85-.44-1.9-.45-3.86-.89-5.88-1.31-2.02-.43-4.11-.84-6.25-1.25-3.93-.76-8.06-1.48-12.38-2.17-7.67-1.22-15.93-2.35-24.69-3.36-2.41-.28-4.86-.55-7.35-.8-.67-.08-1.36-.15-2.04-.21-2.1-.22-4.24-.43-6.39-.63-1.48-.1-3.03-.21-4.6-.33l-1.58-.12-.42-.03c-.75-.05-1.51-.11-2.26-.17-.16-.01-.33-.02-.49-.04l-1.57-.12-1.55-.12c-7.54-.59-13.9-1.12-13.9-1.12-.942-.059-1.902-.112-2.85-.169l13.121 31.234c.856 2.038-.23 4.435-2.434 5.361l-1.075.202a4.598 4.598 0 01-1.248.774l-18.43 3.404c-2.403.554-4.618.031-5.501-1.941l-3.685.29-16.092 1.25-10.889.854-14.957 1.164-13.831 1.081s.009-.004.005-.013c-.024.021-.052.032-.079.044-.922.387-2.566-1.46-3.685-4.125-1.115-2.655-1.275-5.126-.362-5.51l10.409-8.994 12.016-10.384 8.246-7.12 10.614-9.172a883.024 883.024 0 00-6.403-.142c2.16-3.7 4.32-6.67 4.32-6.67s-1.42-1.24-7.73 2c-.46-2.45-1.16-7.62.35-9.25-2.44 1.9-5.52 6.74-6.26 9.57-.11-.2-.3-.46-.54-.77-.38-.46-.88-1.02-1.46-1.62l-.58-.58c-.25-.25-.52-.51-.79-.76-.16-.16-.33-.31-.49-.46-1.75-1.61-3.58-3.05-4.34-3.14 3.09 2.35 5.22 5.42 6.07 9.09.19.8.3 1.61.37 2.43-3.87-.04-7.77-.06-11.71-.06-3.46 0-6.91.01-10.33.04 3.07-5.3 6.21-9.61 6.21-9.61s-1.97-1.72-10.72 2.78c-.64-3.4.06-15.81 2.16-18.06-.11.08-.21.17-.32.27-.11.1-.23.21-.34.33-.65.65-1.36 1.56-2.1 2.64-3.18 4.63-6.82 12.27-7.6 15.26-1.21-2.2-9.26-9.91-11.37-10.16 4.28 3.26 7.24 7.5 8.42 12.6.33 1.38.5 2.77.6 4.18-2.218.046-4.418.101-6.61.161l1.216 3.739 5.31 16.3.62 1.89c1.95.22 3.19 1.9 3.58 4.28l4 18.31c0 .51-.08 1-.23 1.45l.23 1.07c0 2.39-1.79 4.32-4 4.32h-55.18c-2.21 0-4-1.93-4-4.32l.23-1.07c-.15-.45-.23-.94-.23-1.45l4-18.31c.42-2.43 1.76-4.27 3.92-4.32l1.16-3.51 5.08-15.32.533-1.611c-4.77.281-9.453.596-14.039.931-1.17.06-3.5.24-6.24.48l-.75.06c-.18.02-.36.04-.54.05l-1.73.15c-.48.05-.95.09-1.43.13-.16.01-.32.03-.48.04-.3.03-.6.06-.89.08l-1.01.09c-.26.03-.52.05-.78.07-1.02.09-1.99.18-2.89.27-.2.02-.39.03-.58.05-.38.03-.75.07-1.09.1-.17.02-.34.03-.5.05-.59.05-1.12.1-1.57.14-.17.02-.33.03-.47.05l-1.23.11c-1.29.13-2.57.26-3.84.4-2.84.31-5.64.62-8.39.95v-.01c-8.13.97-15.81 2.03-22.98 3.18a400.8 400.8 0 00-8.57 1.47c-2.17.39-4.28.79-6.33 1.2-1.17.24-2.32.47-3.45.71-3.4.72-6.61 1.46-9.65 2.23-20.99 5.28-33.23 11.63-33.23 18.47 0 6.35 10.59 12.29 28.98 17.35-1.43 1.77-2.18 3.59-2.18 5.44 0 18.92 76.93 34.25 171.81 34.25 94.89 0 171.81-15.33 171.81-34.25 0-1.88-.77-3.73-2.24-5.53 18.19-5.028 28.67-10.938 28.67-17.258z" opacity=".1"/><path fill="#B7897C" d="M285.607 251.283l15.332-10.779c.47-.198.953-.314 1.426-.35l.897-.627c2.204-.926 4.676-.023 5.532 2.015l4.193 9.982 1.738-46.314c-5.07-.07-10.15-.14-15.22-.19-4.42-.05-8.84-.09-13.26-.12l-1.687 47.177a7.83 7.83 0 011.049-.794z"/><g><path fill="none" stroke="#312622" stroke-linecap="round" stroke-linejoin="round" stroke-miterlimit="10" stroke-width="1.417" d="M129.675 183.37v.02c6.47-.14 13.43-.29 20.79-.42.06-.01.12-.01.18-.01l3.56-.06c.04-.01.09-.01.13-.01 1.23-.02 2.48-.04 3.73-.07v-.02l-.94-12.7-.49-6.66c-.42-5.74-6.47-10.01-13.5-9.55l-2.84.19c-7.03.46-12.39 5.49-11.96 11.23l1.34 18.06zM181.595 182.43v.02h.02l6.86-.09h.15c6.95-.09 14.06-.17 21.28-.23h.05v-.01l-.2-19.45c-.09-5.75-5.88-10.35-12.93-10.26l-2.84.03c-7.05.09-12.69 4.83-12.59 10.58l.2 19.41zM262.925 181.96v-21.13c0-5.75-5.71-10.42-12.76-10.42h-2.85c-7.05 0-12.76 4.67-12.76 10.42v21.14c5.02-.02 10.06-.03 15.1-.03 1.79 0 3.59 0 5.38.01 2.63 0 5.26 0 7.89.01zM315.715 182.41l.44-19c.21-5.75-5.32-10.6-12.37-10.83l-2.84-.09c-7.04-.24-12.93 4.24-13.14 9.99l-.46 19.62c9.66.08 19.15.19 28.35.31h.02zM347.195 182.9c1.17.03 2.32.05 3.47.07h.24c6 .11 11.75.23 17.18.34l1.29-17.37c.42-5.74-4.93-10.77-11.97-11.23l-2.83-.19c-7.03-.47-13.08 3.81-13.5 9.55l-1.38 18.7c2.51.04 4.99.09 7.43.13h.07zM75.995 184.93l.02.2c.42-.08.85-.15 1.29-.21.18-.03.37-.05.55-.07.33-.03.65-.07.98-.09.17-.01.34-.03.51-.04.49-.02.99-.04 1.5-.04 0 0 .19-.01.52-.02.25-.01.59-.02 1.03-.03.04 0 .09-.01.14-.01 1.31-.04 3.38-.1 6.13-.18h.05c3.94-.12 9.25-.27 15.7-.44v-.03l-.91-8.35-.73-6.63c-.62-5.72-6.81-9.78-13.82-9.07l-2.83.28c-7.01.71-12.19 5.93-11.56 11.65l1.43 13.08zM401.925 184.12l2.41.06h.15c1.66.05 3.21.09 4.64.13h.06c2.89.08 5.33.15 7.26.21h.04c.92.03 1.73.05 2.42.07.09 0 .17.01.25.01.24 0 .45.01.66.02.08 0 .17 0 .25.01.5.01.88.02 1.15.03.32.01.49.02.49.02a24.152 24.152 0 012.87.16l1.42-12.99c.62-5.72-4.56-10.94-11.57-11.65l-2.82-.28c-7.02-.71-13.21 3.35-13.83 9.07l-1.64 14.98h.1c1.94.05 3.79.1 5.54.14.05 0 .1.01.15.01z"/><path fill="none" stroke="#312622" stroke-linecap="round" stroke-linejoin="round" stroke-miterlimit="10" stroke-width="1.417" d="M419.765 207.41c3.04-.01 6.05-.26 9-1.33 3.59-1.3 7.61-3.91 8.26-7.99.53-3.32-.28-6.54-2.8-8.85-3.63-3.32-8.98-4.56-13.78-4.56-5.12-.13-10.23-.31-15.35-.45-24.07-.65-48.14-1.16-72.22-1.55-25.94-.42-51.89-.69-77.84-.73-15.03-.02-30.05.04-45.08.17-9.45.08-18.91.18-28.36.31l-4.38.06c-6.38.09-12.76.2-19.15.31-9.46.17-18.93.36-28.39.57-8.42.18-16.84.38-25.26.6h-.07c-5.38.14-10.76.29-16.15.45-3.99.11-8.2-.08-12.2.51-.64.08-1.27.2-1.89.33-4.13.9-8.98 3.09-10.67 7.28-1.14 2.85-.67 6.74 1.22 9.13 3.2 4.02 8.91 5.6 13.92 5.78.34.01.68.02 1.01.02.17-.01.33-.01.5-.02 21.82-.7 43.65-1.19 65.47-1.62 4.75-.09 9.51-.18 14.26-.26 17.17-.31 34.35-.54 51.52-.67 3.23-.04 6.45-.06 9.68-.08 4.52-.03 9.03-.05 13.54-.06"/><path fill="none" stroke="#312622" stroke-linecap="round" stroke-linejoin="round" stroke-miterlimit="10" stroke-width="1.417" d="M234.655 204.76c9.43-.03 18.85-.03 28.27.01 7.78.02 15.55.07 23.32.13 4.42.03 8.84.07 13.26.12 5.07.05 10.15.12 15.22.19 7.73.1 15.47.21 23.2.35 9.5.16 19.01.34 28.51.55 2.59.04 5.19.1 7.78.16a4181 4181 0 0119.39.46c3.64.09 7.27.18 10.91.28 3.36.09 6.72.18 10.08.28 1.68.05 3.36.12 5.02.12M104.235 269.94c.68-.13 1.36-.25 2.05-.37M94.455 271.85c1.13-.24 2.28-.48 3.45-.71"/><path fill="none" stroke="#312622" stroke-linecap="round" stroke-linejoin="round" stroke-miterlimit="10" stroke-width="1.417" d="M112.805 268.47l-5.75-61.74c-.94.02-1.86.04-2.76.07-.2 0-.41.01-.61.01l-1.01.03c-.21.01-.42.01-.63.02-2.02.05-3.92.1-5.68.15-.17 0-.33.01-.5.01-1.07.03-2.09.06-3.06.09-.11 0-.21.01-.32.01-1.37.04-2.63.07-3.77.11-.11 0-.21 0-.31.01-.19 0-.38.01-.56.01l-.94.03c-.65.02-1.24.04-1.79.05-.12.01-.24.01-.36.02-.16 0-.32 0-.48.01h-.16c-.16.01-.31.01-.46.02h-.09l-.88.03h-.14c-.11.01-.22.01-.31.01h-.01c-.36.01-.64.02-.86.03-.28.01-.44.01-.49.02h-.03c-.26 0-.51-.01-.76-.02-.18 0-.36-.01-.54-.02-.33-.02-.66-.04-.98-.07l.01.09 6.23 66.63M236.655 234.97c.11-.12.23-.23.34-.33"/><path fill="none" stroke="#312622" stroke-linecap="round" stroke-linejoin="round" stroke-miterlimit="10" stroke-width="1.417" d="M262.925 254.32v-49.57c-4.42-.01-8.85-.02-13.27-.02-5.01 0-10.01.01-15 .03h-.1v32.85M260.885 252.12l.58.58M411.245 273.13c.62.14 1.24.29 1.85.44M399.115 270.57c2.15.41 4.23.82 6.25 1.25"/><path fill="none" stroke="#312622" stroke-linecap="round" stroke-linejoin="round" stroke-miterlimit="10" stroke-width="1.417" d="M414.995 274.03c.11-2.63.18-5.09.23-5.5l6.83-61.07c-.12 0-.23.01-.35.01l-.83-.03c-.3-.01-.67-.02-1.11-.03-.05 0-.1-.01-.15 0-.41-.02-.88-.03-1.41-.05h-.14c-.2-.01-.41-.02-.63-.02h-.02c-.68-.02-1.43-.05-2.26-.07h-.16c-4.86-.14-12.17-.35-21.39-.58v.04l-6.6 58.94c-.11.99-.21 1.87-.27 2.73M163.955 262.51v-.07l-4.14-56.86c-5.08.09-10 .19-14.74.28h-.22c-1.07.03-2.13.05-3.19.07-.16 0-.32.01-.48.01l-2.96.06c-.14 0-.28.01-.42.01l-2.84.06c-.19 0-.37.01-.56.01-1.01.02-2.02.04-3.01.07h-.08l4.34 58.16c.02.33.07.65.13.98M352.655 264.03l2.04.21M340.085 262.95l1.58.12M337.405 262.75c.75.06 1.51.12 2.26.17M335.345 262.59l1.57.12"/><path fill="none" stroke="#312622" stroke-linecap="round" stroke-linejoin="round" stroke-miterlimit="10" stroke-width="1.417" d="M362.045 265.04c0-.03.01-.07.01-.1l4.38-58.83v-.04c-1.05-.02-2.12-.04-3.2-.07h-.25l-3.07-.06c-.12-.01-.24-.01-.36-.01-2.19-.04-4.42-.09-6.68-.13-.09 0-.18 0-.26-.01-4.74-.08-9.64-.17-14.69-.26v.03l-4.13 56.91"/><g fill="none" stroke="#312622" stroke-linecap="round" stroke-linejoin="round" stroke-miterlimit="10" stroke-width="1.417"><path d="M414.995 274.03c-.63-.16-1.26-.31-1.9-.46-.61-.15-1.23-.3-1.85-.44-1.9-.45-3.86-.89-5.88-1.31-2.02-.43-4.11-.84-6.25-1.25-3.93-.76-8.06-1.48-12.38-2.17-7.67-1.22-15.93-2.35-24.69-3.36-2.41-.28-4.86-.55-7.35-.8-.67-.08-1.36-.15-2.04-.21-2.1-.22-4.24-.43-6.39-.63-1.48-.1-3.03-.21-4.6-.33l-1.58-.12-.42-.03c-.75-.05-1.51-.11-2.26-.17-.16-.01-.33-.02-.49-.04l-1.57-.12-1.55-.12c-7.54-.59-13.9-1.12-13.9-1.12-.942-.059-1.902-.112-2.85-.169M279.188 259.582a883.024 883.024 0 00-6.403-.142c2.16-3.7 4.32-6.67 4.32-6.67s-1.42-1.24-7.73 2c-.46-2.45-1.16-7.62.35-9.25-2.44 1.9-5.52 6.74-6.26 9.57-.11-.2-.3-.46-.54-.77-.38-.46-.88-1.02-1.46-1.62l-.58-.58c-.25-.25-.52-.51-.79-.76-.16-.16-.33-.31-.49-.46-1.75-1.61-3.58-3.05-4.34-3.14 3.09 2.35 5.22 5.42 6.07 9.09.19.8.3 1.61.37 2.43-3.87-.04-7.77-.06-11.71-.06-3.46 0-6.91.01-10.33.04 3.07-5.3 6.21-9.61 6.21-9.61s-1.97-1.72-10.72 2.78c-.64-3.4.06-15.81 2.16-18.06-.11.08-.21.17-.32.27-.11.1-.23.21-.34.33-.65.65-1.36 1.56-2.1 2.64-3.18 4.63-6.82 12.27-7.6 15.26-1.21-2.2-9.26-9.91-11.37-10.16 4.28 3.26 7.24 7.5 8.42 12.6.33 1.38.5 2.77.6 4.18-2.218.046-4.418.101-6.61.161l-2.154-6.621-4.92-15.1-4.26-13.08c0-.99-2.34-1.8-5.22-1.8-2.89 0-5.23.8-5.23 1.8 0 .03 0 .06.01.09-.01 0-.01-.01-.01-.01l-4.36 13.17-4.72 14.24-2.897 8.759c-4.77.281-9.453.596-14.039.931-1.17.06-3.5.24-6.24.48l-.75.06c-.18.02-.36.03-.54.05l-1.73.15c-.48.04-.96.08-1.43.13-.16.01-.32.03-.48.04-.3.03-.59.05-.89.08l-1.01.09c-.26.03-.52.05-.78.07-1.02.09-1.99.18-2.89.27-.2.01-.39.03-.58.05-.38.03-.75.07-1.09.1-.17.01-.34.03-.5.05-.59.05-1.12.1-1.57.14-.17.02-.33.03-.47.05l-1.23.11c-1.29.13-2.57.26-3.84.4-2.85.3-5.64.62-8.39.94-8.13.97-15.81 2.03-22.98 3.18a400.8 400.8 0 00-8.57 1.47c-2.17.39-4.28.79-6.33 1.2-1.17.24-2.32.47-3.45.71-3.4.72-6.61 1.46-9.65 2.23"/></g><path fill="none" stroke="#312622" stroke-linecap="round" stroke-linejoin="round" stroke-miterlimit="10" stroke-width="1.417" d="M187.132 252.34l4.72-14.24 4.36-13.17s0 .01.01.01c-.01-.03-.01-.06-.01-.09 0-1 2.34-1.8 5.23-1.8 2.88 0 5.22.81 5.22 1.8l4.26 13.08 1.717 5.269-.013-.389-1.29-37.91c-4.8.05-9.55.09-14.24.15h-.28c-2.28.02-4.55.05-6.81.08h-.24l-6.8.09h-.01l1.852 54.148 2.324-7.028zM285.607 251.283l15.332-10.779c.47-.198.953-.314 1.426-.35l.897-.627c2.204-.926 4.676-.023 5.532 2.015l4.193 9.982 1.738-46.314v-.02h-.01l-6.94-.09h-.09c-7.01-.08-14.15-.16-21.39-.21h-.05v.01l-1.687 47.177a7.83 7.83 0 011.049-.794z"/></g><g><path fill="#FFF" d="M224.522 279.69c-10.27 11.02-38.65 10.46-45.9-1.66l5.08-15.32c7.47 9.15 26.74 9.38 35.51.68l5.31 16.3zM191.852 238.1c5.72 2.77 13.21 2.72 19.07-.17l4.92 15.1c-8.22 5.43-21.37 5.2-28.71-.69l4.72-14.24z"/><path fill="#EA6429" d="M226.532 289.88l.01.02c-.21.4-.48.85-.83 1.32.34-.48.61-.93.82-1.34zM225.132 291.97c.21-.26.4-.51.58-.75-.16.24-.36.49-.58.75z"/><path fill="#EA6429" d="M175.712 290.83c-.33-.61-.56-1.26-.68-1.96l2.43-7.33 1.16-3.51c7.25 12.12 35.63 12.68 45.9 1.66l.62 1.89h-.01l1.61 4.92.49 1.5s-.11.76-.69 1.9l-.01-.02c-.21.41-.48.86-.82 1.34-.18.24-.37.49-.58.75-.11.12-.22.25-.34.38-.12.13-.24.26-.38.39-.52.54-1.13 1.07-1.86 1.59-.16.12-.32.24-.49.35-1.97 1.33-4.68 2.6-8.4 3.52-.34.08-.68.16-1.03.24-.45.1-.92.19-1.39.27-.35.07-.71.13-1.08.19-.58.09-1.18.18-1.8.25-.62.08-1.25.14-1.91.2-.04 0-.08.01-.13.01a64.76 64.76 0 01-5.2.24s-.62-.02-1.68-.09l-.51-.03c-.89-.06-2.01-.16-3.28-.31-.31-.03-.62-.07-.94-.11-.64-.08-1.32-.18-2.01-.29-.35-.05-.7-.11-1.05-.17-.53-.09-1.07-.19-1.62-.3l-.71-.15c-1.43-.3-2.88-.67-4.29-1.12-.32-.11-.65-.22-.97-.33-.01 0-.02 0-.02-.01a23.945 23.945 0 01-3.49-1.5c-.46-.24-.9-.5-1.32-.77-.42-.27-.82-.56-1.19-.86-.25-.2-.48-.41-.7-.62-.01.01-.01.01-.01 0-.33-.33-.64-.66-.91-1.01-.09-.12-.17-.24-.26-.36-.16-.24-.31-.49-.45-.74z"/><path fill="#EA6429" d="M224.792 292.35c.12-.13.23-.26.34-.38-.1.12-.21.25-.34.38zM224.412 292.74c.14-.13.26-.26.38-.39-.11.13-.24.27-.38.39zM222.062 294.68zM187.132 252.34c7.34 5.89 20.49 6.12 28.71.69l3.37 10.36c-8.77 8.7-28.04 8.47-35.51-.68l3.43-10.37zM212.632 298.44c.35-.08.69-.16 1.03-.24-.34.08-.68.16-1.03.24zM210.162 298.9zM208.362 299.15zM205.452 299.43z"/><path fill="#C75625" d="M201.122 299.6a64.76 64.76 0 005.2-.24c.05 0 .09-.01.13-.01.66-.06 1.3-.12 1.91-.2.62-.07 1.22-.16 1.8-.25.37-.06.73-.12 1.08-.19.47-.08.94-.17 1.39-.27.35-.08.69-.16 1.03-.24 3.72-.92 6.43-2.19 8.4-3.52.17-.11.34-.23.49-.35.73-.52 1.34-1.05 1.86-1.59.14-.12.27-.26.38-.39.13-.13.24-.26.34-.38.22-.26.42-.51.58-.75.35-.47.62-.92.83-1.32l.69 2.1s-1.62 11.36-26.11 11.6c0 0-24.33-.63-26.09-10.73l.68-2.04c.13.26.28.5.45.74.07.12.16.24.26.36.26.35.57.69.91 1.01 0 .01 0 .01.01 0 .22.23.45.43.7.62.37.31.77.6 1.19.86.42.28.86.53 1.32.77a23.945 23.945 0 003.49 1.5c0 .01.01.01.02.01.32.11.64.22.97.33 1.41.45 2.86.82 4.29 1.12l.71.15a56.462 56.462 0 002.67.47c.69.11 1.37.21 2.01.29.32.04.63.08.94.11 1.27.15 2.39.25 3.28.31l.51.03c1.06.07 1.68.09 1.68.09zM200.392 227.05c-.29-.02-.57-.05-.84-.09-.02-.01-.04-.01-.05-.01-.16-.03-.31-.06-.45-.09-.3-.06-.57-.14-.82-.23-.21-.07-.4-.15-.57-.24-.22-.1-.42-.22-.59-.34-.08-.05-.16-.11-.23-.17-.09-.07-.17-.15-.24-.23-.2-.23-.33-.47-.36-.7-.01 0-.01-.01-.02-.01-.01-.03-.01-.06-.01-.09 0-1 2.34-1.8 5.23-1.8 2.88 0 5.22.81 5.22 1.8 0 1-2.76 2.23-5.65 2.22-.21 0-.42-.01-.62-.02zM199.552 226.96z"/><path fill="#EA6429" d="M199.442 299.51zM197.662 226.39c.17.09.36.17.57.24.25.09.52.17.82.23.14.03.29.06.45.09.01 0 .03 0 .05.01a10.305 10.305 0 001.46.11c2.89.01 5.65-1.22 5.65-2.22l4.26 13.08c-5.86 2.89-13.35 2.94-19.07.17l4.36-13.17s0 .01.01.01c.02.24.16.48.38.71.07.08.15.16.24.23.07.06.15.12.23.17.17.12.37.24.59.34zM195.652 299.17c-.31-.03-.62-.07-.94-.11.32.04.63.08.94.11zM191.652 298.6c.35.06.7.12 1.05.17-.35-.05-.7-.11-1.05-.17zM189.322 298.15l.71.15-.71-.15zM185.032 297.03c-.33-.11-.65-.22-.97-.33.32.11.65.22.97.33zM183.002 296.31zM179.232 294.42c.42.27.86.53 1.32.77-.46-.24-.9-.49-1.32-.77zM178.042 293.56c.37.3.77.59 1.19.86-.42-.26-.82-.55-1.19-.86zM178.042 293.56c-.25-.19-.48-.39-.7-.62.22.21.45.42.7.62zM176.422 291.93c.27.35.58.68.91 1.01a7.76 7.76 0 01-.91-1.01zM176.162 291.57c.09.12.17.24.26.36-.1-.12-.19-.24-.26-.36zM175.712 290.83c.14.25.29.5.45.74-.17-.24-.32-.48-.45-.74z"/><path fill="#EA6429" d="M169.782 305.59l-.01.03c-.15-.45-.23-.94-.23-1.45l4-18.31c.42-2.43 1.76-4.27 3.92-4.32l-2.43 7.33c.12.7.35 1.35.68 1.96l-.68 2.04c1.76 10.1 26.09 10.73 26.09 10.73 24.49-.24 26.11-11.6 26.11-11.6l-.69-2.1c.58-1.14.69-1.9.69-1.9l-.49-1.5-1.6-4.92c1.95.22 3.19 1.9 3.58 4.28l4 18.31c0 .51-.08 1-.23 1.45l-.01-.03c-.24.74-.66 1.39-1.19 1.89-.08.07-.16.14-.24.2s-.17.13-.25.18c-.08.07-.17.12-.27.17a3.654 3.654 0 01-.78.32c-.06.02-.12.04-.18.05-.16.04-.32.07-.48.08-.12.01-.24.02-.37.02h-55.18c-.1 0-.2 0-.29-.01-.03 0-.05-.01-.08-.01-.16-.01-.32-.04-.48-.08a1.17 1.17 0 01-.2-.05c-.07-.02-.14-.04-.2-.07-.19-.06-.38-.15-.56-.25-.1-.05-.19-.1-.27-.17-.09-.05-.17-.12-.25-.18-.08-.06-.16-.13-.24-.2-.54-.5-.95-1.15-1.19-1.89z"/><path fill="#C75625" d="M171.732 308.03c.18.1.37.19.56.25.06.03.13.05.2.07.06.02.13.04.2.05.16.04.32.07.48.08.03 0 .05.01.08.01.09.01.19.01.29.01h55.18c.13 0 .25-.01.37-.02.16-.01.32-.04.48-.08.06-.01.12-.03.18-.05.17-.04.34-.1.5-.18.09-.04.19-.09.28-.14.1-.05.19-.1.27-.17.09-.04.17-.1.25-.18a4.285 4.285 0 001.44-2.06l.23 1.07c0 2.39-1.79 4.32-4 4.32h-55.18c-2.21 0-4-1.93-4-4.32l.23-1.07a4.285 4.285 0 001.44 2.06c.08.08.16.14.25.18.08.07.17.12.27.17z"/><g fill="none" stroke="#312622" stroke-linecap="round" stroke-linejoin="round" stroke-miterlimit="10" stroke-width="1.417"><path d="M230.252 308.17c-.16.07-.33.13-.5.18M231.052 307.68c-.08.06-.17.13-.25.18"/><path d="M170.972 307.48c-.54-.5-.95-1.15-1.19-1.89l-.01.03-.23 1.07c0 2.39 1.79 4.32 4 4.32h55.18c2.21 0 4-1.93 4-4.32l-.23-1.07-.01-.03c-.24.74-.66 1.39-1.19 1.89M171.462 307.86c-.09-.05-.17-.12-.25-.18M196.602 225.65c-.22-.23-.36-.47-.38-.71-.01-.03-.01-.06-.01-.09 0-1 2.34-1.8 5.23-1.8 2.88 0 5.22.81 5.22 1.8M200.392 227.05c-.29-.02-.58-.05-.84-.09M210.922 237.93c-5.86 2.89-13.35 2.94-19.07.17M187.132 252.34c7.34 5.89 20.49 6.12 28.71.69M178.622 278.03c7.25 12.12 35.63 12.68 45.9 1.66M219.212 263.39c-8.77 8.7-28.04 8.47-35.51-.68"/><path d="M177.462 281.54c-2.16.05-3.5 1.89-3.92 4.32l-4 18.31c0 .51.08 1 .23 1.45a4.285 4.285 0 001.44 2.06c.08.08.16.14.25.18.08.07.17.12.27.17.18.1.37.19.56.25.06.03.13.05.2.07.06.02.13.04.2.05.16.04.32.07.48.08.03 0 .05.01.08.01.09.01.19.01.29.01h55.18c.13 0 .25-.01.37-.02.16-.01.32-.04.48-.08.06-.01.12-.03.18-.05.17-.04.34-.1.5-.18.09-.04.19-.09.28-.14.1-.05.19-.1.27-.17.09-.04.17-.1.25-.18a4.285 4.285 0 001.44-2.06c.15-.45.23-.94.23-1.45l-4-18.31c-.39-2.38-1.63-4.06-3.58-4.28h-.01l1.61 4.92"/><path d="M206.662 224.85c0 1-2.76 2.23-5.65 2.22-.21 0-.42-.01-.62-.02-.29-.02-.57-.05-.84-.09-.02-.01-.04-.01-.05-.01-.16-.03-.31-.06-.45-.09-.3-.06-.57-.14-.82-.23-.21-.07-.4-.15-.57-.24-.22-.1-.42-.22-.59-.34-.08-.05-.16-.11-.23-.17-.09-.07-.17-.15-.24-.23-.2-.23-.33-.47-.36-.7-.01 0-.01-.01-.02-.01s-.01-.01-.01-.01l-4.36 13.17-4.72 14.24-3.43 10.37-5.08 15.32-1.16 3.51-2.43 7.33c.12.7.35 1.35.68 1.96.13.26.28.5.45.74.07.12.16.24.26.36.26.35.57.69.91 1.01 0 .01 0 .01.01 0 .22.23.45.43.7.62.37.31.77.6 1.19.86.42.28.86.53 1.32.77a23.945 23.945 0 003.49 1.5c0 .01.01.01.02.01.32.11.64.22.97.33 1.41.45 2.86.82 4.29 1.12l.71.15a56.462 56.462 0 002.67.47c.69.11 1.37.21 2.01.29.32.04.63.08.94.11 1.27.15 2.39.25 3.28.31l.51.03c1.06.07 1.68.09 1.68.09a64.76 64.76 0 005.2-.24c.05 0 .09-.01.13-.01.66-.06 1.3-.12 1.91-.2.62-.07 1.22-.16 1.8-.25.37-.06.73-.12 1.08-.19.47-.08.94-.17 1.39-.27.35-.08.69-.16 1.03-.24 3.72-.92 6.43-2.19 8.4-3.52.17-.11.34-.23.49-.35.73-.52 1.34-1.05 1.86-1.59.14-.12.27-.26.38-.39.13-.13.24-.26.34-.38.22-.26.42-.51.58-.75.35-.47.62-.92.83-1.32.58-1.14.69-1.9.69-1.9l-.49-1.5-1.6-4.92-.62-1.89-5.31-16.3-3.37-10.36-4.92-15.1-4.26-13.08z"/></g><g><path fill="#FFF" d="M281.545 257.545c14.138 5.2 24.613 31.582 16.247 42.96l-16.092 1.25c5.543-10.431-1.709-28.286-13.127-33.002l12.972-11.208zM255.855 303.773c.338-6.346-2.609-13.232-7.543-17.516l12.016-10.384c8.19 5.475 13.071 17.688 10.484 26.736l-14.957 1.164z"/><path fill="#EA6429" d="M290.162 251.745l.015-.017c.45.039.97.113 1.538.254a11.024 11.024 0 00-1.553-.237zM292.631 252.226a25.796 25.796 0 00-.916-.244c.283.054.591.142.916.244z"/><path fill="#EA6429" d="M310.721 298.23a6.36 6.36 0 01-1.544 1.386l-7.699.599-3.685.29c8.366-11.378-2.11-37.76-16.247-42.96l1.502-1.304.004.009 3.912-3.39 1.193-1.033s.743-.193 2.019-.1l-.015.017c.459.035.979.109 1.553.237.291.073.595.151.916.244.153.055.316.106.482.166s.333.121.507.199c.699.27 1.424.627 2.186 1.099.173.101.345.202.512.316 1.989 1.301 4.21 3.308 6.499 6.381.205.283.411.565.62.857.266.376.531.775.787 1.177a43.096 43.096 0 011.521 2.485c.314.541.613 1.098.924 1.683.016.037.04.07.06.116.136.247.267.506.401.775a65 65 0 011.834 3.926s.222.579.568 1.584l.17.482c.289.844.631 1.915.985 3.144.092.297.176.599.263.909.174.621.345 1.287.511 1.965a58.308 58.308 0 01.601 2.644l.137.713c.277 1.435.498 2.915.629 4.389.023.338.049.684.071 1.022.004.009.008.018-.001.022a23.808 23.808 0 01-.032 3.799 16.608 16.608 0 01-.199 1.515c-.086.492-.199.973-.332 1.43-.088.308-.192.601-.3.885.013.005.013.005.004.009a10.55 10.55 0 01-.579 1.23c-.076.129-.155.25-.231.379-.159.243-.331.478-.507.704z"/><path fill="#EA6429" d="M293.113 252.392c-.166-.06-.329-.111-.482-.166.149.046.311.097.482.166zM293.619 252.592a6.537 6.537 0 00-.507-.199c.163.05.343.116.507.199zM296.318 254.007c-.167-.114-.34-.215-.512-.316.168.092.345.202.512.316zM270.812 302.609c2.587-9.048-2.294-21.261-10.484-26.736l8.246-7.12c11.418 4.716 18.669 22.571 13.127 33.002l-10.889.854zM303.437 261.245c-.209-.292-.415-.574-.62-.857.205.282.411.565.62.857zM304.818 263.344zM305.745 264.906zM307.131 267.481z"/><path fill="#C75625" d="M308.965 271.407a64.714 64.714 0 00-2.235-4.701c-.019-.046-.044-.079-.06-.116a48.92 48.92 0 00-.924-1.683 43.975 43.975 0 00-.928-1.563 30.155 30.155 0 00-.593-.922 29.356 29.356 0 00-.787-1.177c-.209-.292-.415-.574-.62-.857-2.289-3.073-4.509-5.08-6.499-6.381a6.272 6.272 0 00-.512-.316 13.115 13.115 0 00-2.186-1.099 3.407 3.407 0 00-.507-.199 5.151 5.151 0 00-.482-.166 8.412 8.412 0 00-.916-.244 9.943 9.943 0 00-1.538-.254l1.669-1.449s11.101-2.906 20.807 19.579c0 0 8.843 22.675.213 28.209l-2.144.163c.189-.221.353-.452.508-.701.084-.111.159-.24.231-.379.222-.375.415-.793.579-1.23.009-.004.009-.004-.004-.009a5.8 5.8 0 00.3-.885c.143-.461.255-.942.332-1.43.095-.496.156-.998.199-1.515a24.044 24.044 0 00.032-3.799c.009-.004.005-.013.001-.022-.023-.338-.045-.675-.071-1.022a43.698 43.698 0 00-.629-4.389l-.137-.713a59.12 59.12 0 00-.601-2.644 61.489 61.489 0 00-.511-1.965c-.087-.311-.17-.612-.263-.909a66.462 66.462 0 00-.985-3.144l-.17-.482c-.348-1.007-.569-1.586-.569-1.586zM242.36 300.18c.094.275.175.545.242.809a16.426 16.426 0 01.101.5c.061.3.092.58.106.845.017.221.017.427-.001.618-.007.242-.04.472-.085.676a1.85 1.85 0 01-.068.278c-.03.11-.072.215-.119.31-.135.273-.305.486-.506.603.004.009-.005.013-.001.022-.024.021-.051.032-.079.044-.922.387-2.566-1.46-3.685-4.125-1.115-2.655-1.275-5.126-.362-5.51.922-.387 3.125 1.681 4.235 4.349.082.195.154.392.222.581zM242.602 300.989z"/><path fill="#EA6429" d="M309.532 272.991l.17.482-.17-.482zM242.809 302.952c.017-.192.017-.398.001-.618a5.719 5.719 0 00-.106-.845 21.314 21.314 0 00-.091-.45.101.101 0 01-.01-.05 10.328 10.328 0 00-.242-.809c-.068-.188-.14-.386-.222-.579-1.11-2.668-3.313-4.736-4.235-4.349l10.409-8.994c4.934 4.283 7.881 11.169 7.543 17.516l-13.831 1.081s.009-.004.005-.013c.214-.111.381-.333.507-.625.047-.096.089-.2.119-.31.028-.088.053-.185.068-.278a3.66 3.66 0 00.085-.677zM310.687 276.617c.092.297.176.599.263.909-.088-.311-.171-.612-.263-.909zM311.71 280.525zM312.198 282.848l-.137-.713.137.713zM312.827 287.236c.026.347.049.684.071 1.022-.022-.337-.048-.684-.071-1.022zM312.949 289.387zM312.667 293.595c.086-.492.156-.998.199-1.515a14.12 14.12 0 01-.199 1.515zM312.335 295.025c.133-.457.246-.938.332-1.43-.077.488-.189.969-.332 1.43zM312.335 295.025a5.874 5.874 0 01-.3.885c.108-.284.213-.577.3-.885zM311.46 297.15c.218-.384.402-.798.579-1.23a7.865 7.865 0 01-.579 1.23zM311.229 297.529c.076-.129.155-.25.231-.379a2.803 2.803 0 01-.231.379zM310.721 298.23c.176-.226.349-.461.508-.701-.156.25-.319.481-.508.701z"/><path fill="#EA6429" d="M326.625 297.981l.032-.002a4.598 4.598 0 01-1.248.774l-18.43 3.404c-2.403.554-4.618.031-5.501-1.941l7.699-.599a6.36 6.36 0 001.544-1.386l2.144-.163c8.63-5.534-.213-28.209-.213-28.209-9.707-22.486-20.807-19.579-20.807-19.579l-1.669 1.449c-1.276-.093-2.019.1-2.019.1l-1.193 1.033-3.916 3.381c-.552-1.883.516-3.677 2.559-4.958l15.332-10.78c.47-.198.953-.314 1.426-.35l-.024.021a4.525 4.525 0 012.203.365c.096.047.191.093.277.144.086.051.186.106.263.161.096.047.176.11.261.183.081.064.166.136.238.204.126.12.248.254.36.391.042.048.083.095.116.147.099.132.188.268.26.412.056.107.111.214.162.333l21.372 50.873a2.7 2.7 0 01.103.271c.012.028.01.05.022.078.053.151.087.311.112.474.018.068.027.141.031.204.009.072.017.145.013.212.018.198.009.408-.014.613a1.243 1.243 0 01-.052.315c-.011.102-.045.203-.069.3s-.058.198-.091.299a4.448 4.448 0 01-1.283 1.826z"/><path fill="#C75625" d="M328.12 295.238c.022-.205.032-.415.014-.613a1.194 1.194 0 00-.013-.212 1.189 1.189 0 00-.031-.204 2.66 2.66 0 00-.112-.474c-.012-.028-.01-.05-.022-.078a2.7 2.7 0 00-.103-.271l-21.372-50.873a3.969 3.969 0 00-.162-.333 2.635 2.635 0 00-.26-.412c-.032-.051-.074-.099-.116-.147a2.293 2.293 0 00-.36-.391 4.027 4.027 0 00-.238-.204 1.258 1.258 0 00-.261-.183.847.847 0 00-.263-.161c-.086-.051-.182-.097-.277-.144a4.291 4.291 0 00-2.18-.386l.897-.626c2.203-.926 4.676-.023 5.532 2.015l21.372 50.873c.856 2.038-.23 4.435-2.434 5.361l-1.076.202a4.281 4.281 0 001.341-2.126.829.829 0 00.069-.3 1.14 1.14 0 00.055-.313z"/><g fill="none" stroke="#312622" stroke-linecap="round" stroke-linejoin="round" stroke-miterlimit="10" stroke-width="1.417"><path d="M305.583 241.231c.126.12.248.254.36.391M304.822 240.684c.086.051.186.106.263.161"/><path d="M327.907 296.152a4.426 4.426 0 01-1.282 1.829l.032-.002 1.076-.202c2.203-.926 3.29-3.323 2.434-5.361l-21.372-50.873c-.856-2.038-3.329-2.94-5.532-2.015l-.897.626-.024.021a4.525 4.525 0 012.203.365M328.068 295.553c-.011.102-.045.203-.069.3M242.537 304.216c-.127.292-.294.514-.507.625-.024.021-.051.032-.079.044-.922.387-2.566-1.46-3.685-4.125-1.115-2.655-1.275-5.126-.362-5.51M242.36 300.18c.094.275.179.554.242.809M248.312 286.257c4.934 4.283 7.881 11.169 7.543 17.516M270.812 302.609c2.587-9.048-2.294-21.261-10.484-26.736M297.793 300.505c8.366-11.378-2.11-37.76-16.247-42.96M268.574 268.754c11.418 4.716 18.669 22.571 13.127 33.002"/><path d="M301.478 300.215c.883 1.972 3.098 2.495 5.501 1.941l18.43-3.404c.47-.198.891-.461 1.248-.774a4.281 4.281 0 001.341-2.126.829.829 0 00.069-.3 1.2 1.2 0 00.052-.315c.022-.205.032-.415.014-.613a1.194 1.194 0 00-.013-.212 1.189 1.189 0 00-.031-.204 2.66 2.66 0 00-.112-.474c-.012-.028-.01-.05-.022-.078a2.7 2.7 0 00-.103-.271l-21.372-50.873a3.969 3.969 0 00-.162-.333 2.635 2.635 0 00-.26-.412c-.032-.051-.074-.099-.116-.147a2.293 2.293 0 00-.36-.391 4.027 4.027 0 00-.238-.204 1.258 1.258 0 00-.261-.183.847.847 0 00-.263-.161c-.086-.051-.182-.097-.277-.144a4.291 4.291 0 00-2.18-.386 4.575 4.575 0 00-1.426.35l-15.332 10.78c-2.043 1.281-3.112 3.075-2.559 4.958l.004.009 3.912-3.39"/><path d="M237.903 295.251c.922-.387 3.125 1.681 4.235 4.349.081.194.153.391.222.579.094.275.175.545.242.809a16.426 16.426 0 01.101.5c.061.3.092.58.106.845.017.221.017.427-.001.618-.007.242-.04.472-.085.676a1.85 1.85 0 01-.068.278c-.03.11-.072.215-.119.31-.135.273-.305.486-.506.603.004.009-.005.013-.001.022s-.005.013-.005.013l13.831-1.081 14.957-1.164 10.889-.854 16.092-1.25 3.685-.29 7.699-.599a6.36 6.36 0 001.544-1.386c.189-.221.353-.452.508-.701.084-.111.159-.24.231-.379.222-.375.415-.793.579-1.23.009-.004.009-.004-.004-.009a5.8 5.8 0 00.3-.885c.143-.461.255-.942.332-1.43.095-.496.156-.998.199-1.515a24.044 24.044 0 00.032-3.799c.009-.004.005-.013.001-.022-.023-.338-.045-.675-.071-1.022a43.698 43.698 0 00-.629-4.389l-.137-.713a59.12 59.12 0 00-.601-2.644 61.489 61.489 0 00-.511-1.965c-.087-.311-.17-.612-.263-.909a66.462 66.462 0 00-.985-3.144l-.17-.482c-.346-1.004-.568-1.584-.568-1.584a64.714 64.714 0 00-1.834-3.926 23.073 23.073 0 00-.401-.775c-.019-.046-.044-.079-.06-.116a48.92 48.92 0 00-.924-1.683 43.975 43.975 0 00-.928-1.563 30.155 30.155 0 00-.593-.922 29.356 29.356 0 00-.787-1.177c-.209-.292-.415-.574-.62-.857-2.289-3.073-4.509-5.08-6.499-6.381a6.272 6.272 0 00-.512-.316 13.115 13.115 0 00-2.186-1.099 3.407 3.407 0 00-.507-.199 5.151 5.151 0 00-.482-.166 8.412 8.412 0 00-.916-.244 9.943 9.943 0 00-1.538-.254c-1.276-.093-2.019.1-2.019.1l-1.193 1.033-3.916 3.381-1.502 1.304-12.971 11.209-8.246 7.12-12.016 10.384-10.411 8.991z"/></g></g></g></svg>