<svg xmlns="http://www.w3.org/2000/svg" viewBox="0 0 500 500"><defs/><path fill="#FFF" d="M134.451 133.386c1.736 0 3.143-1.392 3.143-3.111s-1.407-3.111-3.143-3.111c-1.736 0-3.143 1.392-3.143 3.111 0 .148.01.296.03.435a6.041 6.041 0 01-.309-1.906c0-3.368 2.754-6.103 6.167-6.103 3.403 0 6.157 2.736 6.157 6.103s-2.754 6.103-6.157 6.103a6.138 6.138 0 01-4.8-2.281 3.13 3.13 0 002.055.76z"/><path fill="#E7E4D2" d="M156.224 112.726c-2.964-.385-19.029-8.967-11.026 6.34-5.698.207-21.673-13.006-23.828 11.357l-2.574-7.723c-2.584 4.464-2.784 6.152-6.007 7.723-3.263-5.481-2.744-16.146-.718-21.914 5.019-14.27 19.138-19.366 31.641-20.6 3.352 10.745 3.352 10.745 12.512 24.817zM186.129 139.637s-3.393 7.407-7.883 8.888c-4.49 1.481 5.159-1.768.329-19.899-.05-.188-.15-.533-.299-.988-.11-.365-.259-.81-.419-1.313a14.98 14.98 0 00-.17-.523 321.94 321.94 0 00-.888-2.736c-.07-.227-.14-.454-.23-.691-.259-.8-.539-1.639-.818-2.489-.239-.721-.489-1.462-.728-2.182-1.038-3.091-2.016-6.024-2.535-7.555-1.656 2.676-6.127 5.52-9.25 5.461 3.951-9.322 2.325-15.909 2.844-25.212h.05c8.172.563 66.975 21.657 84.786 92.691-2.195-.257-4.351-.672-6.416-1.284-.339-.109-.689-.207-1.028-.326a28.416 28.416 0 01-2.006-.751 17.02 17.02 0 01-.888-.385.583.583 0 01-.16-.069 22.83 22.83 0 01-.888-.435 21.684 21.684 0 01-1.926-1.076 7.311 7.311 0 01-.589-.375 15.072 15.072 0 01-.718-.484c-.06-.04-.12-.079-.18-.128a21.068 21.068 0 01-1.088-.82c-3.941-3.17-8.023-7.387-12.084-4.335-1.507 1.363-3.023 2.726-4.49 4.148-.349.326-.689.652-1.018.997-.02.01-.03.02-.04.04-.439.425-.878.869-1.287 1.313-.429.444-.848.889-1.247 1.343-.01.01-.02.02-.02.03a42.71 42.71 0 00-2.275 2.745c-1.387-2.123-2.874-3.871-3.532-5.106a3.285 3.285 0 01-.309-.78c-1.407 3.229-6.197 7.318-6.695 10.784.11-.918 1.247-12.265-6.167-29.399-8.132-18.842-9.738-19.099-9.738-19.099z"/><path fill="#FFF" d="M166.132 99.817c7.781.536 61.463 19.688 81.957 82.839a41.92 41.92 0 002.829.433c-17.811-71.034-76.614-92.128-84.786-92.691h-.05c-.519 9.303.03 9.419.05 9.419z"/><path fill="#E7E4D2" d="M417.277 248.317c1.068 7.723-.249 15.751-6.795 22.23-8.741 8.661-17.652 12.176-26.393 12.374-12.014.257-23.728-5.767-34.325-13.45.1-.375.21-.76.299-1.126.529-1.945 1.028-3.792 1.507-5.54.239-.879.469-1.738.689-2.568.11-.395.22-.79.319-1.185.2-.721.389-1.432.579-2.123.708-2.647 1.347-5.036 1.926-7.209.08-.306.16-.602.24-.899.08-.286.15-.573.229-.869.15-.563.299-1.106.439-1.639v-.02c.15-.533.279-1.057.409-1.56.2-.76.389-1.481.569-2.173.12-.435.229-.859.329-1.264.17-.662.329-1.304.489-1.906.12-.454.23-.879.329-1.294l.09-.365c.05-.178.09-.346.13-.514.08-.336.17-.672.249-.988.14-.573.269-1.116.389-1.62.04-.168.08-.336.12-.494.22-.968.409-1.787.569-2.508.03-.119.05-.237.07-.346.11-.504.2-.948.269-1.353.03-.148.06-.296.08-.435.04-.207.07-.405.1-.593.02-.128.04-.247.06-.365.12-.78.18-1.412.249-2.084 0-.049.01-.099.01-.148 0-.04.01-.079.01-.118.01-.069.01-.128.02-.198.1-1.086.15-2.163.15-3.239 0-.958-.04-1.916-.12-2.854-.02-.217-.03-.425-.06-.632 0-.04 0-.079-.01-.118-.03-.356-.08-.701-.12-1.047a.568.568 0 01-.02-.128 40.43 40.43 0 00-.539-2.943c0-.01 0-.02-.01-.039-.11-.494-.239-.997-.379-1.491a.258.258 0 00-.03-.118c-.12-.454-.259-.909-.409-1.353-.06-.188-.12-.385-.19-.573 3.892-2.252 6.516-6.429 6.516-11.219 0-7.17-5.877-12.996-13.132-12.996a13.15 13.15 0 00-9.39 3.93c-.24-.158-.479-.316-.728-.464a39.25 39.25 0 00-2.714-1.62c-.02-.02-.05-.03-.07-.039a45.995 45.995 0 00-7.204-3.17c4.52-5.836 11.665-9.609 19.737-9.609 13.65 0 24.726 10.824 24.726 24.185 0 5.451-6.586 20.995-7.713 25.745a20.18 20.18 0 00-.708 11.11c2.405 11.1 13.441 18.161 24.656 15.781s18.35-13.302 15.945-24.402a20.337 20.337 0 00-3.492-7.762c1.596 2.163 10.238 14.34 12.054 27.415z"/><path fill="#FFF" d="M351.809 182.42c12.368 0 22.622 8.885 24.44 20.493.183-.958.286-1.8.286-2.483 0-13.361-11.076-24.185-24.726-24.185-8.073 0-15.217 3.772-19.737 9.609a47.151 47.151 0 014.416 1.777c4.211-3.258 9.524-5.211 15.321-5.211zM358.794 211.432c.07.188.13.385.19.573.15.444.289.899.409 1.353.02.039.03.079.03.118.14.494.269.997.379 1.491.01.02.01.03.01.039.11.494.21.988.299 1.481.013.072.023.146.036.218 3.134-2.372 5.163-6.108 5.163-10.318 0-1.06-.143-2.085-.385-3.072-.859 3.457-3.11 6.369-6.131 8.117zM368.114 237.286c-.089-.41-.159-.819-.222-1.227a20.164 20.164 0 00.222 7.402c2.405 11.1 13.441 18.161 24.656 15.781 10.794-2.29 17.782-12.495 16.15-23.153-1.27 8.187-7.479 15.138-16.15 16.978-11.216 2.38-22.252-4.681-24.656-15.781z"/><path fill="#B7897C" d="M235.032 176.957c.359.286.718.563 1.088.82.06.049.12.089.18.128.239.168.469.336.718.484.19.138.389.267.589.375.629.395 1.267.751 1.926 1.076.289.158.589.306.888.435.05.03.11.059.16.069.289.138.589.267.888.385.659.286 1.327.533 2.006.751.339.128.679.237 1.028.326 8.023 2.4 17.302 1.837 25.734.207a124.125 124.125 0 0024.896-7.594c6.256-2.657 13.012-5.906 19.627-4.197 6.386 1.659 10.248 7.673 11.016 14.023 0 .03.01.059.01.089.02.158.04.326.05.484.01.138.03.277.03.415.02.178.03.356.03.533.08 1.629-.06 3.269-.419 4.849-2.046 8.987-9.4 16.275-17.971 20.58-8.581 4.306-18.32 6.014-27.939 7.209-15.606 1.936-31.541 2.657-47.018-.04-10.288-1.797-21.623-6.34-24.676-15.811-1.806-5.58-.18-11.752 2.954-16.778.269-.435.549-.859.848-1.284.269-.375.539-.751.818-1.116l.09-.118a49.997 49.997 0 012.265-2.765c0-.01.01-.02.02-.03.419-.454.828-.899 1.247-1.343.429-.444.858-.889 1.287-1.313.01-.02.02-.03.04-.04.339-.336.679-.672 1.018-.997 1.467-1.422 2.984-2.785 4.49-4.148 4.06-3.051 8.141 1.166 12.082 4.336z"/><path fill="#9B746A" d="M325.865 185.232c0-.138-.02-.276-.03-.415a7.936 7.936 0 00-.05-.484c0-.03-.01-.059-.01-.089a19.61 19.61 0 00-.521-2.676c-2.298 8.603-9.445 15.579-17.749 19.751-8.581 4.306-18.32 6.014-27.939 7.209-15.606 1.936-31.541 2.657-47.018-.039-10.288-1.797-21.623-6.34-24.676-15.811-.014-.044-.024-.088-.037-.132-.896 3.308-1.015 6.758.037 10.007 3.053 9.471 14.389 14.013 24.676 15.811 15.476 2.696 31.412 1.975 47.018.039 9.619-1.195 19.358-2.903 27.939-7.209 8.571-4.306 15.926-11.594 17.971-20.581a17.96 17.96 0 00.419-4.849c0-.176-.01-.354-.03-.532z"/><path fill="#B7897C" d="M177.857 126.325c.16.504.309.948.419 1.313l-55.25 32.737 4.361 7.091c-4.361 3.111-5.608 3.911-10.258 2.913l-17.382-28.303c1.706-3.911 4.321-5.757 7.793-6.913l10.148 16.512 57.335-33.972c.239.721.489 1.462.728 2.182.279.849.549 1.679.818 2.489.08.227.15.464.23.691.329.997.629 1.926.888 2.736.06.178.12.356.17.524z"/><path fill="#E3B787" d="M99.746 142.076l17.382 28.303c-.718.277-1.128.454-1.128.454-10.567 5.195-17.731 7.703-25.714 2.696-7.494-4.711-10.088-13.441-5.887-17.608 2.066-2.043 8.901-8.127 15.347-13.845zM172.488 110.149c-1.656 2.676-6.127 5.52-9.25 5.461 3.951-9.322 2.325-15.909 2.844-25.212h.05c-.229-.237-.359-.375-.359-.375S155.006 72.346 146.774 72c-.499 0-2.076 8.335-3.063 15.909 3.353 10.745 3.353 10.745 12.513 24.817-2.964-.385-19.029-8.967-11.026 6.34-5.698.207-21.673-13.006-23.828 11.357l-2.574-7.723c-2.584 4.464-2.784 6.152-6.007 7.723h-.01c-.04.099-2.165 2.005-5.239 4.74l10.148 16.512 57.336-33.972c-1.039-3.09-2.017-6.023-2.536-7.554z"/><path fill="#C19C74" d="M155.711 114.848a59.357 59.357 0 01-2.902-3.207c-5.403-1.904-13.872-4.55-7.612 7.426-5.382.196-19.926-11.564-23.34 7.659.117-.207 2.936 7.087 2.936 7.087 2.155-24.363 18.131-11.149 23.828-11.357-6.062-11.597 1.687-9.482 7.09-7.608zM303.913 268.097l10.088 97.738c-4.55 15.88-7.424 24.778-7.424 24.778l-12.134-117.587a90.47 90.47 0 004.52-2.212 95.051 95.051 0 003.283-1.768 74.282 74.282 0 001.667-.949zM167.659 254.163l12.473 99.179a4638.88 4638.88 0 00-5.298 37.221l-18.61-156.191c2.624 7.783 9.549 15.634 11.435 19.791z"/><path fill="#E3B787" d="M202.034 188.136c.499-3.466 5.289-7.555 6.695-10.784.05.227.16.494.309.78.639 1.244 2.085 3.052 3.443 5.234-.279.365-.549.741-.808 1.126-.299.425-.579.849-.848 1.284-3.133 5.027-4.76 11.199-2.954 16.778 3.053 9.471 14.389 14.013 24.676 15.811 15.476 2.696 31.412 1.975 47.018.04 9.619-1.195 19.358-2.903 27.939-7.209 8.571-4.306 15.925-11.594 17.971-20.58a17.96 17.96 0 00.419-4.849c0-.178-.01-.356-.03-.533 0-.138-.02-.277-.03-.415a7.936 7.936 0 00-.05-.484c0-.03-.01-.059-.01-.089.718.099 1.128.188 1.128.188 1.756.375 3.482.849 5.169 1.422l-.01.01a46.434 46.434 0 017.214 3.16c.02.01.05.02.07.039a46.808 46.808 0 012.714 1.62c.439.277.878.573 1.307.869a47.821 47.821 0 012.405 1.787c.239.178.469.365.688.563.14.109.269.217.399.336.11.079.21.168.309.257.269.247.539.484.808.721.04.039.08.079.12.109.09.089.19.168.279.257.21.207.409.405.619.593l.359.356.838.859c.09.089.17.178.239.257.299.326.609.662.908 1.007.15.168.299.346.439.514.23.267.449.533.669.81.02.03.04.059.07.089.05.059.1.118.14.178.239.296.459.593.689.899.13.168.249.336.369.504.19.257.369.523.559.79.03.059.07.109.1.158.03.039.05.069.08.109.15.227.299.464.449.691l.21.326c.03.059.07.109.1.168.18.277.349.563.509.859.06.089.12.188.17.286.03.049.06.099.08.148.12.188.229.385.329.583.2.365.399.741.589 1.126.02.04.04.069.05.099.2.405.399.82.589 1.234.03.059.06.119.08.178l.09.207c.15.346.289.691.429 1.037.04.089.08.168.11.257l.09.237c.12.316.239.632.349.958.11.296.22.602.309.909.15.444.279.899.409 1.353.02.04.03.079.03.118.14.494.269.988.379 1.491.01.02.01.03.01.039.11.494.21.978.299 1.481.09.484.17.968.24 1.462 0 .04.01.089.02.128.04.346.09.691.12 1.047.01.039.01.079.01.118.03.207.05.425.06.632.08.938.12 1.896.12 2.854 0 1.076-.05 2.153-.15 3.239-.01.069-.01.128-.02.198 0 .04-.01.079-.01.118 0 .049-.01.099-.01.148-.07.672-.13 1.304-.249 2.084-.02.119-.04.237-.06.365-.03.188-.06.385-.1.593-.02.138-.05.286-.08.435-.07.405-.16.849-.269 1.353-.02.109-.05.227-.07.346-.16.721-.349 1.541-.569 2.508-.04.158-.08.326-.12.494l-.389 1.62c-.08.316-.17.652-.249.988-.05.168-.09.346-.13.514l-.09.365c-.11.415-.22.849-.329 1.294-.16.602-.319 1.244-.489 1.906-.11.405-.22.83-.329 1.264l-.569 2.173c-.13.504-.269 1.017-.409 1.56v.02c-.15.533-.289 1.076-.439 1.639-.08.296-.15.583-.229.869l-.24.899c-.579 2.173-1.217 4.562-1.926 7.209-.19.691-.379 1.402-.579 2.123-.1.395-.21.79-.319 1.185-.22.83-.449 1.689-.689 2.568-.479 1.748-.978 3.595-1.507 5.54-6.326 23.326-16.634 60.843-33.507 122.268l-2.554-24.778-10.088-97.738c-.549.326-1.108.642-1.666.948a96.798 96.798 0 01-3.283 1.768c-1.507.77-3.013 1.501-4.52 2.192v.02c-39.804 18.368-80.735 8.671-91.002 3.921-4.111 7.851-18.63 113.617-18.63 113.617l-4.68-37.221-12.473-99.179c-1.886-4.158-8.811-12.009-11.435-19.79-3.892-11.554-2.205-40.124-2.205-46.089 0-21.756-15.436-22.872-26.632-20.818l-4.361-7.091 55.25-32.737c.15.454.249.8.299.988 4.83 18.131-4.82 21.38-.329 19.899 4.49-1.481 7.883-8.888 7.883-8.888s1.607.257 9.739 19.099c7.412 17.129 6.275 28.476 6.165 29.395z"/><path fill="#C19C74" d="M208.73 184.154c.05.227.16.494.309.78.276.518.704 1.132 1.203 1.821.188-.331.382-.658.583-.98.269-.435.549-.859.848-1.284.259-.385.529-.76.808-1.126-1.357-2.183-2.804-3.99-3.443-5.234a3.285 3.285 0 01-.309-.78c-1.407 3.229-6.197 7.318-6.695 10.784.11-.918 1.247-12.265-6.167-29.399-8.132-18.842-9.739-19.099-9.739-19.099s-2.628 5.731-6.319 8.118c-.841 7.292-4.743 8.622-1.564 7.573 4.49-1.481 7.883-8.888 7.883-8.888s4.762 8.959 8.912 21.775c5.175 15.981 3.71 30.458 3.601 31.376.499-3.466 7.491-11.455 10.089-15.437zM179.084 254.163c-1.886-4.158-8.811-12.009-11.435-19.79-3.891-11.554-2.205-40.124-2.205-46.089 0-20.986-14.362-22.765-25.427-21.022 7.57 1.543 14.002 6.981 14.002 21.022 0 5.965-1.686 34.535 2.205 46.089 2.624 7.782 9.549 15.633 11.435 19.79l12.473 99.179 4.68 37.221s2.688-19.584 6.079-42.521l-11.807-93.879zM315.338 268.097c-.549.326-1.107.642-1.666.948a96.798 96.798 0 01-3.283 1.768c-1.507.77-3.013 1.501-4.52 2.192v.02c-.461.213-.923.403-1.384.608l9.517 92.201 2.554 24.778 8.307-30.241-9.525-92.274zM325.476 200.49a17.96 17.96 0 00.419-4.849c0-.178-.01-.355-.03-.533 0-.138-.02-.276-.03-.415a7.936 7.936 0 00-.05-.484c0-.03-.01-.059-.01-.089a19.61 19.61 0 00-.521-2.676c-2.298 8.603-9.445 15.579-17.749 19.751-8.581 4.306-18.32 6.014-27.939 7.209-15.606 1.936-31.541 2.657-47.018-.039-10.288-1.797-21.623-6.34-24.676-15.811-.014-.044-.024-.088-.037-.132-.896 3.308-1.015 6.758.037 10.007 3.053 9.471 14.389 14.013 24.676 15.811 15.476 2.696 31.412 1.975 47.018.039 9.619-1.195 19.358-2.903 27.939-7.209 8.571-4.305 15.926-11.593 17.971-20.58z"/><path fill="#E7E4D2" d="M156.224 112.726c-2.964-.385-19.029-8.967-11.026 6.34-5.698.207-21.673-13.006-23.828 11.357l-2.574-7.723c-2.584 4.464-2.784 6.152-6.007 7.723-3.263-5.481-2.744-16.146-.718-21.914 5.019-14.27 19.138-19.366 31.641-20.6 3.352 10.745 3.352 10.745 12.512 24.817z"/><path fill="#FFF" d="M119.221 115.587c4.411-12.541 15.849-17.993 27.043-19.969-.779-2.023-1.501-4.337-2.553-7.709-12.503 1.234-26.622 6.33-31.641 20.6-2.026 5.767-2.545 16.433.718 21.914 2.662-1.297 3.264-2.679 4.848-5.633.144-3.435.727-6.759 1.585-9.203z"/><path fill="#FFF" stroke="#312622" stroke-linecap="round" stroke-linejoin="round" stroke-miterlimit="10" stroke-width="1.417" d="M131.338 130.71a6.041 6.041 0 01-.309-1.906c0-3.368 2.754-6.103 6.167-6.103 3.403 0 6.157 2.736 6.157 6.103s-2.754 6.103-6.157 6.103a6.138 6.138 0 01-4.8-2.281l-1.058-1.916z"/><path fill="#312622" d="M92.653 166.015s-.001-.164.019-.444c.034-.284.034-.668.049-1.099-.015-.222.007-.456-.019-.699a7.21 7.21 0 00-.081-.745c-.02-.255-.114-.501-.171-.75a4.757 4.757 0 00-.277-.718c-.115-.227-.231-.456-.386-.655-.139-.211-.306-.398-.471-.584-.19-.156-.35-.347-.547-.481-.184-.151-.376-.276-.558-.397-.178-.128-.363-.21-.521-.309a5.255 5.255 0 00-.429-.228c-.245-.124-.39-.21-.39-.21s.157-.034.441-.067c.142-.016.318-.04.516-.02.198.015.434.005.674.074.496.083 1.065.306 1.612.678.253.208.541.411.753.694.242.258.418.578.583.893.153.326.266.663.333 1.005.061.339.096.681.079 1.002a3.79 3.79 0 01-.112.912c-.038.287-.16.537-.238.77-.081.233-.208.436-.299.611-.087.182-.199.307-.281.421-.169.223-.279.346-.279.346z"/><path fill="none" stroke="#312622" stroke-linecap="round" stroke-linejoin="round" stroke-miterlimit="10" stroke-width="1.417" d="M358.325 210.138c.12.316.239.632.349.958M357.696 208.608c.15.346.289.691.429 1.037M356.938 206.988c.2.405.399.82.589 1.234M355.97 205.181c.07.099.12.198.18.306.05.089.1.178.15.277.2.365.399.741.589 1.126M355.72 204.746c.06.089.12.188.17.286M354.902 203.393l.21.326M354.373 202.593c.02.03.04.059.07.089M351.779 199.167c.23.267.449.533.669.81"/><path fill="none" stroke="#312622" stroke-linecap="round" stroke-linejoin="round" stroke-miterlimit="10" stroke-width="1.417" d="M358.794 211.432c3.892-2.252 6.516-6.429 6.516-11.219 0-7.17-5.877-12.996-13.132-12.996a13.15 13.15 0 00-9.39 3.93M112.788 130.423c-3.263-5.481-2.744-16.146-.718-21.914 5.019-14.27 19.138-19.366 31.641-20.6M303.913 268.097c-.559.326-1.108.642-1.666.948M298.964 270.813c-1.507.77-3.013 1.501-4.52 2.192v.02l12.134 117.587s2.874-8.898 7.424-24.778M156.224 234.373l18.61 156.191s2.285-16.65 5.298-37.221M177.687 125.802c.06.178.12.356.17.523M175.751 119.886c.279.849.549 1.679.818 2.489.08.227.15.464.23.691M240.58 180.344c.299.138.589.267.888.385a28.92 28.92 0 002.006.751c.339.119.689.217 1.028.326 2.066.612 4.221 1.027 6.416 1.284-17.811-71.034-76.614-92.128-84.786-92.691M239.533 179.84c.289.148.589.296.888.435M236.3 177.905c.239.168.469.336.718.484.19.138.389.257.589.375M235.032 176.957c.359.286.718.563 1.088.82M217.441 177.766c.339-.336.679-.672 1.018-.997M214.866 180.462c.419-.454.828-.899 1.247-1.343.429-.444.858-.889 1.287-1.313M212.581 183.257a49.997 49.997 0 012.265-2.765M209.039 178.132c.639 1.244 2.085 3.052 3.443 5.234.01 0 .01.01.01.01"/><path fill="none" stroke="#312622" stroke-linecap="round" stroke-linejoin="round" stroke-miterlimit="10" stroke-width="1.417" d="M325.775 184.245c-.768-6.35-4.63-12.364-11.016-14.023-6.616-1.708-13.371 1.541-19.627 4.197a124.125 124.125 0 01-24.896 7.594c-8.432 1.629-17.712 2.192-25.734-.207a9.652 9.652 0 01-1.028-.326 21.088 21.088 0 01-2.006-.751 13.99 13.99 0 01-.888-.385.583.583 0 01-.16-.069 10.405 10.405 0 01-.888-.435 21.684 21.684 0 01-1.926-1.076 5.453 5.453 0 01-.589-.375 15.072 15.072 0 01-.718-.484c-.06-.04-.12-.079-.18-.128a21.068 21.068 0 01-1.088-.82c-3.941-3.17-8.023-7.387-12.084-4.335M325.835 184.818a7.936 7.936 0 00-.05-.484M325.895 185.766c0-.178-.01-.356-.03-.533"/><path fill="none" stroke="#312622" stroke-linecap="round" stroke-linejoin="round" stroke-miterlimit="10" stroke-width="1.417" d="M222.949 172.621c-1.507 1.363-3.023 2.726-4.49 4.148-.349.326-.689.652-1.018.997-.02.01-.03.02-.04.04-.439.425-.878.869-1.287 1.313-.429.444-.848.889-1.247 1.343-.01.01-.02.02-.02.03a42.71 42.71 0 00-2.275 2.745c-.03.039-.06.079-.09.128-.279.365-.549.741-.808 1.126-.299.425-.579.849-.848 1.284M99.746 142.076c-6.446 5.718-13.281 11.801-15.347 13.845-4.201 4.167-1.607 12.897 5.887 17.608 7.983 5.007 15.147 2.498 25.714-2.696 0 0 .409-.178 1.128-.454M175.023 117.704c-1.038-3.091-2.016-6.024-2.535-7.555-1.656 2.676-6.127 5.52-9.25 5.461 3.951-9.322 2.325-15.909 2.844-25.212h.05c-.229-.237-.359-.375-.359-.375S155.006 72.346 146.774 72c-.499 0-2.075 8.335-3.063 15.909 3.353 10.745 3.353 10.745 12.513 24.817-2.964-.385-19.029-8.967-11.026 6.34-5.698.207-21.673-13.006-23.828 11.357l-2.574-7.723c-2.584 4.464-2.784 6.152-6.007 7.723h-.01c-.04.099-2.165 2.005-5.239 4.74M178.276 127.638c-.11-.365-.259-.81-.419-1.313a14.98 14.98 0 00-.17-.523 321.94 321.94 0 00-.888-2.736c-.07-.227-.14-.454-.23-.691-.259-.8-.539-1.639-.818-2.489-.239-.721-.489-1.462-.728-2.182l-57.335 33.972-10.148-16.512c-3.472 1.155-6.087 3.002-7.793 6.913l17.382 28.303c4.65.997 5.897.198 10.258-2.913M352.258 260.237c-.22.83-.449 1.689-.689 2.568M353.156 256.928c-.19.691-.379 1.402-.579 2.123M355.321 248.82c-.08.296-.16.593-.24.899M355.99 246.312c-.14.533-.289 1.076-.439 1.639M356.399 244.732c-.13.504-.259 1.027-.409 1.56M357.297 241.295c-.1.405-.21.83-.329 1.264M358.115 238.096c-.1.415-.21.839-.329 1.294M358.335 237.217c-.04.168-.08.336-.13.514M359.093 234.116c-.04.158-.08.326-.12.494-.12.504-.249 1.047-.389 1.62M359.732 231.262c-.02.109-.04.227-.07.346M360.081 229.474c-.02.138-.05.286-.08.435M360.241 228.516c-.02.119-.04.237-.06.365M360.5 226.285c0 .049-.01.099-.01.148M360.53 225.969c-.01.069-.01.128-.02.198M360.5 219.243c.03.207.04.415.06.632.08.938.12 1.896.12 2.854M360.37 218.078c.04.346.09.691.12 1.047M359.811 215.007c.11.494.21.978.299 1.481.09.484.17.968.24 1.462M359.422 213.476c.14.494.269.988.379 1.491M358.504 210.612c.06.168.12.326.17.484.11.296.22.602.309.909.15.444.279.899.409 1.353M358.325 210.138c.05.128.1.247.14.365M358.025 209.368c.03.099.07.188.1.277.04.089.08.168.11.257M357.606 208.4l.09.207c.08.168.15.346.22.514M356.938 206.988c.13.247.249.504.369.751M355.89 205.033c.03.049.06.099.08.148.12.188.229.385.329.583M355.211 203.887c.18.277.349.563.509.859M353.715 201.645c.19.257.369.523.559.79.03.059.07.109.1.158.03.039.05.069.08.109M352.657 200.243c.239.296.459.593.689.899M352.447 199.976c.02.03.04.059.07.089M351.779 199.167c.22.257.439.523.659.79M350.432 197.646c.299.326.609.662.908 1.007M349.354 196.53l.838.859M348.376 195.582c.21.207.409.405.619.593M347.169 194.495c.269.247.539.484.808.721.04.039.08.079.12.109M346.46 193.903c.14.109.269.217.399.336M339.346 189.064a46.808 46.808 0 012.714 1.62c.439.277.878.573 1.307.869a47.821 47.821 0 012.405 1.787"/><path fill="none" stroke="#312622" stroke-linecap="round" stroke-linejoin="round" stroke-miterlimit="10" stroke-width="1.417" d="M404.993 220.596c.08.099.15.198.229.306a20.336 20.336 0 013.492 7.762c2.405 11.1-4.73 22.022-15.945 24.402s-22.252-4.681-24.656-15.781a20.19 20.19 0 01.708-11.11c1.128-4.75 7.713-20.294 7.713-25.745 0-13.362-11.076-24.185-24.726-24.185-8.072 0-15.217 3.772-19.737 9.609l-.01.01a46.434 46.434 0 017.214 3.16"/><path fill="none" stroke="#312622" stroke-linecap="round" stroke-linejoin="round" stroke-miterlimit="10" stroke-width="1.417" d="M350.063 268.344c-.09.365-.2.751-.299 1.126 10.597 7.683 22.312 13.707 34.325 13.45 8.741-.198 17.652-3.713 26.393-12.374 6.546-6.478 7.863-14.507 6.795-22.23-1.816-13.075-10.457-25.252-12.054-27.414-.11-.158-.19-.257-.229-.306-.02-.03-.03-.04-.03-.04"/><path fill="none" stroke="#312622" stroke-linecap="round" stroke-linejoin="round" stroke-miterlimit="10" stroke-width="1.417" d="M202.034 188.136c.11-.918 1.247-12.265-6.167-29.399-8.132-18.842-9.739-19.099-9.739-19.099s-3.393 7.407-7.883 8.888c-4.49 1.481 5.159-1.768.329-19.899-.05-.188-.15-.533-.299-.988l-55.25 32.737 4.361 7.091c11.196-2.054 26.632-.938 26.632 20.818 0 5.965-1.686 34.535 2.205 46.089 2.624 7.782 9.549 15.633 11.435 19.79l12.473 99.179 4.68 37.221s14.518-105.766 18.63-113.617c10.268 4.75 51.199 14.448 91.002-3.921a90.47 90.47 0 004.52-2.212 95.051 95.051 0 003.283-1.768 53.667 53.667 0 001.666-.948L314 365.836l2.554 24.778c16.873-61.426 27.181-98.942 33.507-122.268.529-1.945 1.028-3.792 1.507-5.54.239-.879.469-1.738.689-2.568.11-.395.22-.79.319-1.185.2-.721.389-1.432.579-2.123.708-2.647 1.347-5.036 1.926-7.209l.24-.899c.08-.286.15-.573.229-.869.15-.563.289-1.106.439-1.639v-.02c.14-.543.279-1.057.409-1.56a791.918 791.918 0 00.898-3.437c.17-.662.329-1.304.489-1.906.11-.444.22-.879.329-1.294l.09-.365c.04-.168.08-.346.13-.514.08-.336.17-.672.249-.988l.389-1.62c.04-.168.08-.336.12-.494.22-.968.409-1.787.569-2.508.02-.119.05-.237.07-.346.11-.504.2-.948.269-1.353.03-.148.06-.296.08-.435.04-.207.07-.405.1-.593.02-.128.04-.247.06-.365.12-.78.18-1.412.249-2.084 0-.049.01-.099.01-.148 0-.04.01-.079.01-.118.01-.069.01-.128.02-.198.1-1.086.15-2.163.15-3.239 0-.958-.04-1.916-.12-2.854a6.751 6.751 0 00-.06-.632c0-.04 0-.079-.01-.118-.03-.356-.08-.701-.12-1.047a.568.568 0 01-.02-.128 40.43 40.43 0 00-.539-2.943c0-.01 0-.02-.01-.039-.11-.494-.239-.997-.379-1.491a.258.258 0 00-.03-.118c-.12-.454-.259-.909-.409-1.353-.06-.188-.12-.385-.19-.573a2.256 2.256 0 00-.12-.336 9.299 9.299 0 00-.17-.484c-.01-.03-.02-.069-.04-.109a5.458 5.458 0 00-.14-.365l-.09-.237-.21-.533c-.04-.079-.07-.168-.11-.247-.1-.247-.2-.484-.309-.721-.02-.059-.05-.118-.08-.178-.07-.158-.15-.316-.22-.484-.12-.247-.24-.504-.369-.751-.01-.03-.03-.059-.05-.099-.18-.375-.379-.751-.589-1.126a1.883 1.883 0 00-.15-.277c-.08-.158-.17-.306-.259-.454-.05-.099-.1-.198-.17-.286-.16-.286-.329-.573-.509-.859-.03-.059-.07-.109-.1-.168l-.21-.326c-.15-.227-.299-.464-.449-.691 0-.01-.01-.01-.01-.02-.06-.079-.11-.168-.17-.247-.18-.267-.369-.523-.559-.79-.12-.168-.24-.336-.369-.504-.22-.306-.449-.602-.689-.899-.04-.059-.09-.118-.14-.178a.544.544 0 00-.07-.089c0-.01-.01-.02-.01-.02-.22-.267-.429-.533-.659-.79a20.03 20.03 0 00-.439-.514c-.289-.346-.599-.672-.908-1.007a33.532 33.532 0 00-1.077-1.116 60.25 60.25 0 01-.359-.356c-.2-.198-.409-.395-.619-.593-.09-.089-.19-.168-.279-.257-.04-.04-.08-.069-.12-.109a27.688 27.688 0 00-.808-.721c-.1-.089-.2-.178-.309-.257a6.44 6.44 0 00-.399-.336 9.58 9.58 0 00-.688-.563 38.389 38.389 0 00-2.405-1.787c-.19-.138-.379-.267-.579-.405-.24-.158-.479-.316-.728-.464a39.25 39.25 0 00-2.714-1.62c-.02-.02-.05-.03-.07-.039a45.995 45.995 0 00-7.204-3.17 45.773 45.773 0 00-5.169-1.422s-.409-.089-1.128-.188c0 .03.01.059.01.089.02.158.04.326.05.484.01.138.03.277.03.415.02.178.03.356.03.533.08 1.629-.06 3.269-.419 4.849-2.046 8.987-9.4 16.275-17.971 20.58-8.581 4.306-18.32 6.014-27.939 7.209-15.606 1.936-31.541 2.657-47.018-.04-10.288-1.797-21.623-6.34-24.676-15.811-1.806-5.58-.18-11.752 2.954-16.778.269-.435.549-.859.848-1.284.269-.375.539-.751.818-1.116l.09-.118c0-.01-.01-.01-.01-.02-1.387-2.123-2.874-3.871-3.532-5.106a3.285 3.285 0 01-.309-.78c-1.403 3.234-6.193 7.322-6.692 10.789 0 .02-.01.039-.01.059"/><path fill="#312622" d="M137.594 130.275c0 1.718-1.407 3.111-3.143 3.111a3.134 3.134 0 01-2.056-.76 5.839 5.839 0 01-1.058-1.916 3.063 3.063 0 01-.03-.435c0-1.718 1.407-3.111 3.143-3.111 1.737 0 3.144 1.393 3.144 3.111z"/><path fill="#FFF" d="M335.275 199.367s.526.106 1.423.343c.454.091.976.327 1.589.609.3.145.652.277.972.466.319.189.645.407.992.627.722.415 1.38 1.006 2.105 1.615.69.636 1.401 1.338 2.061 2.122.643.796 1.309 1.628 1.863 2.547.616.886 1.086 1.87 1.603 2.829.427 1 .915 1.977 1.227 3.003.172.507.342 1.009.492 1.511l.369 1.507c.259.983.334 1.979.476 2.894.059.936.148 1.809.098 2.627-.031.816-.047 1.554-.18 2.21-.111.653-.173 1.215-.333 1.669-.27.908-.455 1.4-.455 1.4s-.058-.545-.106-1.452c.005-.45-.136-1.005-.19-1.624-.051-.619-.238-1.313-.357-2.061-.125-.749-.392-1.545-.559-2.389-.272-.831-.49-1.715-.817-2.603l-.467-1.357-.546-1.365c-.342-.926-.801-1.822-1.204-2.737-.463-.886-.884-1.798-1.397-2.636-.468-.869-1.007-1.667-1.513-2.458-.235-.412-.549-.744-.798-1.122-.271-.358-.502-.748-.792-1.06-.576-.628-1.054-1.313-1.608-1.818-.533-.539-1.012-1.05-1.489-1.419-.47-.387-.863-.789-1.269-1.025-.766-.523-1.19-.853-1.19-.853z"/><g><path fill="#B7897C" d="M224.066 334.894c.319 1.363.499 2.745.599 4.138-4.201.089-8.352.198-12.463.336.359-.02.718-.03 1.088-.039l-.579-16.769 2.954-.099c4.27 3.209 7.214 7.406 8.401 12.433zM415.66 241.225c6.167 1.264 10.527 6.044 9.948 11.258l-1.407 12.828a31.092 31.092 0 00-1.387-.118c-.489-.03-.978-.049-1.477-.049 0 0-.17 0-.489-.01-.269-.01-.659-.02-1.148-.039h-.259c-.2-.01-.419-.02-.649-.02-.09-.01-.17-.01-.259-.01-.679-.02-1.487-.049-2.405-.069h-.04a55.22 55.22 0 00-1.377-.04c2.844-5.234 3.343-11.021 2.564-16.63-.338-2.42-.906-4.8-1.615-7.101z"/><path fill="#B7897C" d="M414.692 264.995c1.796.049 3.592.109 5.388.148 4.79 0 10.128 1.225 13.74 4.513 2.525 2.281 3.323 5.451 2.804 8.73-.649 4.039-4.66 6.617-8.242 7.891-2.854 1.017-5.738 1.294-8.671 1.323h-.11c-.489-.02-1.078-.03-1.766-.049-.04 0-.09-.01-.13-.01-.21 0-.419-.01-.639-.02h-.01c-.679-.02-1.427-.04-2.255-.059-.06 0-.11 0-.17-.01-4.84-.138-12.134-.336-21.334-.563v.04c-6.446-.168-12.902-.316-19.348-.464-2.584-.059-5.179-.109-7.763-.158v-.03c-1.058-.02-2.125-.049-3.193-.069h-.259c-1.008-.02-2.026-.039-3.053-.069h-.359c-2.185-.049-4.41-.089-6.675-.128-.08 0-.17-.01-.259-.01-2.325-.039-4.69-.089-7.095-.128 1.676-6.113 3.153-11.564 4.47-16.403 10.597 7.683 22.312 13.717 34.325 13.45 8.751-.188 17.652-3.713 26.403-12.364 1.767-1.759 3.144-3.615 4.201-5.561z"/><path fill="#B7897C" d="M414.233 287.482c1.806.049 3.592.128 5.368.119h.11c.309.01.569.02.788.03.549.01.838.02.838.02.12 0 .23-.01.349-.01l-6.825 60.319c-.04.405-.12 2.824-.22 5.432-.649-.158-1.307-.316-1.976-.474a144.793 144.793 0 00-3.692-.859 280.368 280.368 0 00-5.987-1.274 656.01 656.01 0 00-3.313-.652c-.329-.059-.659-.118-.988-.188-.669-.128-1.357-.257-2.046-.375a322.337 322.337 0 00-4.371-.78 551.871 551.871 0 00-5.827-.958c.06-.849.16-1.718.269-2.696l6.586-58.206c3.632.079 7.254.178 10.886.277 3.356.087 6.699.176 10.051.275z"/><path fill="#9B746A" d="M403.26 297.081c5.381.089 10.747.178 16.129.276l1.197.023 1.102-9.74c-.12 0-.229.01-.349.01 0 0-.289-.01-.838-.02-.22-.01-.479-.02-.788-.03h-.11c-1.776.01-3.562-.069-5.368-.118-3.353-.099-6.695-.188-10.048-.276-3.632-.099-7.254-.198-10.886-.277l-1.129 9.977c3.693.057 7.388.112 11.088.175z"/><path fill="#B7897C" d="M366.188 286.307l-4.38 58.097c0 .04 0 .079-.01.109a743.867 743.867 0 00-15.746-1.62c-.988-.069-2.006-.138-3.033-.217-.509-.039-1.038-.069-1.557-.109a1358.97 1358.97 0 01-7.843-.593l1.347-18.388c4.071-14.813 7.464-27.237 10.318-37.685 6.964.119 13.939.257 20.904.406z"/><path fill="#9B746A" d="M342.639 295.777c6.717.114 16.088.248 22.806.39l.743-9.861a5026.04 5026.04 0 00-20.905-.405c-2.854 10.449-1.739 6.477-2.644 9.876z"/><path fill="#B7897C" d="M286.161 285.122l-1.946 54.137a884.082 884.082 0 00-11.475-.277c2.155-3.654 4.311-6.587 4.311-6.587s-1.417-1.225-7.713 1.975c-.459-2.419-1.158-7.525.349-9.135-2.435 1.876-5.508 6.656-6.246 9.451-.11-.198-.299-.454-.539-.76v-48.933c7.753.02 15.506.069 23.259.129z"/><path fill="#9B746A" d="M286.161 285.122c-7.753-.059-15.506-.109-23.259-.128v9.875c7.635.019 15.27.068 22.904.126l.355-9.873z"/><path fill="#B7897C" d="M243.694 283.769c15.307 0 33.138-2.627 50.75-10.754l1.257 12.176-9.479-.089h-.06v.02c-7.753-.059-15.506-.109-23.259-.128v-.02c-4.41-.01-8.831-.02-13.241-.02-1.996 0-3.981 0-5.967.01v-1.195zM235.132 284.983h-.539c-4.5.01-9.01.03-13.511.059-3.223.02-6.446.04-9.669.069-3.393.03-6.795.059-10.188.099.898-4.246 1.656-7.179 2.225-8.266 5.728 2.647 20.974 6.824 40.243 6.824v1.195c-2.863.001-5.717.01-8.561.02z"/><path fill="#B7897C" d="M234.593 284.983v32.441c-3.173 4.572-6.805 12.117-7.584 15.06-1.207-2.163-9.24-9.787-11.345-10.024l-2.954.099-1.297-37.438v-.01c3.223-.03 6.446-.049 9.669-.069 4.501-.029 9.011-.049 13.511-.059z"/><path fill="#9B746A" d="M221.083 285.043c-3.223.02-6.446.039-9.669.069v.01l.342 9.863c3.109-.028 6.218-.048 9.327-.067 4.5-.03 9.01-.049 13.511-.059v-9.875c-4.501.009-9.011.029-13.511.059z"/><path fill="#B7897C" d="M157.331 250.745l.938 12.571c-.599.01-1.187.02-1.776.039l-1.946.03h-.14c-1.187.02-2.365.049-3.542.069l-4.939.089c-1.118.02-2.225.039-3.333.069-4.221.079-8.442.158-12.663.247l-1.327-17.835c-.429-5.669 4.919-10.636 11.934-11.09l2.834-.188c7.015-.464 13.042 3.763 13.471 9.431l.489 6.568zM164.146 341.935v.079c-.529.049-1.078.089-1.626.138l-1.726.148c-1.587.138-3.203.286-4.73.425-.279.02-.549.04-.818.069-.968.089-1.886.168-2.724.247-.539.049-1.048.089-1.507.138l-.329.03c-.2.02-.389.039-.569.049-.239.02-.469.049-.669.069l-1.217.109c-4.171.415-8.232.859-12.194 1.323a7.768 7.768 0 01-.13-.968l-4.331-57.436c.03-.01.05-.01.08-.01l3.003-.059c.18-.01.369-.01.549-.01l2.844-.059c.14-.01.269-.01.409-.01l2.964-.059c.16-.01.319-.01.479-.01 1.048-.03 2.105-.049 3.173-.069h.229c4.73-.099 9.639-.188 14.708-.277l4.132 56.143zM81.735 287.64c.22-.01.499-.02.848-.03h.01c.1 0 .21-.01.309-.01h.15c.259-.01.559-.02.868-.03h.1c.15-.01.299-.01.459-.02h.16c.15-.01.309-.01.479-.02.11 0 .239 0 .359-.01.539-.01 1.138-.03 1.786-.049l.938-.03c.18 0 .369-.01.559-.02h.309c1.138-.04 2.395-.069 3.762-.109.1-.01.21-.01.319-.01.958-.03 1.986-.059 3.053-.089.16 0 .329-.01.499-.01 1.756-.049 3.642-.099 5.658-.158.21 0 .419-.01.639-.01l1.008-.03c.2 0 .399-.01.609-.02.898-.02 1.816-.039 2.754-.069l5.728 60.981c-.788.128-1.567.247-2.345.385-1.118.178-2.215.365-3.303.553-.249.039-.509.079-.758.128-1.038.178-2.075.365-3.093.553-.609.109-1.217.217-1.816.336-1.207.227-2.385.454-3.552.681-1.167.237-2.315.464-3.443.701-.14.03-.279.059-.409.089-.649.138-1.297.276-1.926.415-1.537.336-3.023.672-4.48 1.017-.429.099-.858.198-1.277.306-.509.118-1.018.247-1.527.375l-6.216-65.81c.339.01.679.02 1.008.02.17-.01.329-.01.499-.01.249.01.509.01.758.01h.03c.048.004.198.004.487-.006z"/><path fill="#B7897C" d="M145.786 286.03c-21.773.425-43.555.918-65.328 1.61l-.549-.03c-.329-.01-.649-.039-.968-.059l.01.079c-4.999-.178-10.707-1.728-13.89-5.708-1.886-2.35-2.365-6.192-1.217-9.006 1.686-4.138 6.526-6.301 10.647-7.189a24.227 24.227 0 011.876-.336l.02.198c.429-.079.858-.138 1.287-.198.19-.03.369-.049.559-.069.319-.04.649-.069.978-.089.17-.02.329-.03.499-.039.499-.03.998-.049 1.507-.049 0 0 .18 0 .509-.01.259-.01.599-.02 1.038-.039h.13c1.317-.04 3.383-.099 6.117-.178.02 0 .04 0 .06-.01 3.931-.109 9.23-.257 15.666-.425v-.03c8.402-.217 16.794-.415 25.195-.593v.02c4.041-.089 8.272-.178 12.663-.267 1.098-.02 2.215-.04 3.333-.069l4.939-.089c1.227-.02 2.455-.049 3.682-.069l1.946-.03 3.183-.059 2.664 22.437c-.778.01-1.547.03-2.325.04-4.741.088-9.491.167-14.231.256z"/><path fill="#B7897C" d="M103.817 256.206l.918 8.246h-.07a7689.4 7689.4 0 00-16.115.435c-3.981.118-8.192-.069-12.184.504l-1.427-12.907c-.619-5.649 4.55-10.804 11.545-11.505l2.824-.277c6.995-.701 13.171 3.308 13.79 8.957l.719 6.547z"/><path fill="#FFF" d="M301.348 339.881v.01c-2.804-.118-5.638-.237-8.492-.346 2.855.099 5.689.218 8.492.336zM292.857 339.545zM255.897 327.685c-.07-.03-.13-.059-.19-.089.06.02.12.049.19.089zM255.708 327.596zM255.538 327.527a.875.875 0 00-.15-.049c.05.009.1.019.15.049z"/><path fill="#312622" d="M261.315 336.425c-.848-3.634-2.984-6.656-6.057-8.977.04 0 .09.01.13.03.05.01.1.03.15.049.06.02.11.04.17.069.06.03.12.059.19.089 1.646.869 4.909 3.851 6.596 5.767.07.089.15.168.21.247l.2.227c.239.306.429.563.539.76.738-2.795 3.812-7.574 6.246-9.451-1.507 1.61-.808 6.715-.349 9.135 6.296-3.2 7.713-1.975 7.713-1.975s-2.155 2.933-4.311 6.587c3.862.069 7.683.158 11.475.277 2.904.079 5.787.178 8.641.286 2.854.109 5.688.227 8.492.346l5.229 50.72s2.884-8.888 7.424-24.778l2.554 24.778c5.049-18.359 9.499-34.574 13.441-48.923 1.157.089 2.375.188 3.622.286 2.544.198 5.229.405 7.843.593.529.039 1.048.079 1.557.109 1.028.079 2.046.148 3.033.217a743.867 743.867 0 0115.746 1.62c8.751.997 16.993 2.103 24.646 3.318 1.976.316 3.921.632 5.827.958 1.477.257 2.934.514 4.371.78.689.118 1.367.247 2.046.375.329.069.659.128.988.188 1.128.217 2.225.435 3.313.652 2.056.425 4.061.849 5.987 1.274a422.674 422.674 0 015.668 1.333C435.717 358.625 448 364.915 448 371.68c0 6.241-10.457 12.078-28.608 17.045 1.457 1.778 2.235 3.605 2.235 5.461 0 18.675-76.753 33.814-171.438 33.814S78.752 412.861 78.752 394.186c0-1.827.748-3.624 2.165-5.372C62.577 383.817 52 377.951 52 371.68c0-6.755 12.213-13.026 33.168-18.24.509-.128 1.018-.257 1.527-.375.419-.099.848-.207 1.277-.306a307.122 307.122 0 016.406-1.432c.13-.03.269-.059.409-.089 1.128-.237 2.275-.464 3.443-.701 1.167-.227 2.345-.454 3.552-.681.599-.109 1.207-.227 1.816-.336 1.018-.188 2.046-.365 3.093-.553.249-.049.509-.089.758-.128 1.088-.188 2.185-.375 3.303-.553.778-.138 1.557-.257 2.345-.385 7.154-1.146 14.818-2.192 22.94-3.14 3.961-.464 8.023-.909 12.194-1.323 0 0 .449-.039 1.217-.109.2-.02.429-.04.669-.069.18-.01.369-.03.569-.049l.329-.03c.459-.04.968-.089 1.507-.138.838-.069 1.756-.158 2.724-.247.269-.02.539-.049.818-.069 1.527-.138 3.143-.286 4.73-.425l1.726-.148c.549-.049 1.098-.089 1.626-.138a428.25 428.25 0 014.859-.385l5.827 48.943s2.285-16.65 5.298-37.221l4.68 37.221s3.333-24.244 7.244-50.365c6.576-.336 13.301-.622 20.146-.839 4.111-.138 8.262-.247 12.463-.336-.1-1.392-.279-2.775-.599-4.138-1.187-5.027-4.131-9.224-8.402-12.433 2.105.237 10.138 7.861 11.345 10.024.778-2.943 4.41-10.488 7.584-15.06.21-.316.429-.612.639-.889.13-.168.249-.336.379-.494.11-.138.22-.286.339-.415.489-.602.968-1.076 1.397-1.412-2.095 2.232-2.794 14.487-2.155 17.845 8.731-4.444 10.697-2.745 10.697-2.745s-3.133 4.256-6.197 9.49c3.413-.03 6.845-.039 10.308-.039 3.921 0 7.813.02 11.685.059-.078-.812-.178-1.612-.368-2.402z" opacity=".1"/><path fill="#FFF" d="M160.794 342.301l1.726-.148-1.726.148zM110.752 348.285zM106.691 348.967c-1.048.188-2.075.365-3.093.553 1.018-.188 2.055-.376 3.093-.553zM103.598 349.52c-.609.109-1.217.227-1.816.336a89.978 89.978 0 011.816-.336zM87.972 352.759c-.429.099-.858.207-1.277.306.419-.109.848-.208 1.277-.306z"/><g fill="#9B746A"><path d="M160.015 295.649c.242-.003.483-.008.724-.012l-.724-9.843c-5.069.089-9.978.178-14.708.277h-.229c-1.068.02-2.126.039-3.173.069-.16 0-.319 0-.479.01l-2.964.059c-.14 0-.269 0-.409.01l-2.844.059c-.18 0-.369 0-.549.01l-3.003.059c-.03 0-.05 0-.08.01l.741 9.825c4.49-.095 8.979-.187 13.468-.275 4.74-.09 9.49-.169 14.229-.258zM104.616 286.988c-.21.01-.409.02-.609.02l-1.008.03c-.22 0-.429.01-.639.01-2.016.059-3.901.109-5.658.158-.17 0-.339.01-.499.01-1.068.03-2.096.059-3.053.089-.11 0-.219 0-.319.01-1.367.039-2.624.069-3.762.109h-.309c-.19.01-.379.02-.559.02l-.938.03c-.649.02-1.247.04-1.786.049-.12.01-.249.01-.359.01-.17.01-.329.01-.479.02h-.16c-.16.01-.309.01-.459.02h-.1c-.309.01-.609.02-.868.03h-.15c-.1 0-.21.01-.309.01h-.01c-.349.01-.629.02-.848.03-.289.01-.439.01-.489.01h-.03c-.249 0-.509 0-.758-.01-.17 0-.329 0-.499.01-.329 0-.669-.01-1.008-.02l.931 9.854.027.002.549.03a4234.31 4234.31 0 0127.833-.78l-.922-9.816c-.937.026-1.855.045-2.753.065z"/></g><g><path fill="none" stroke="#000" stroke-linecap="round" stroke-linejoin="round" stroke-miterlimit="10" stroke-width="1.417" d="M156.493 263.356c.589-.02 1.177-.03 1.776-.039l-.938-12.571-.489-6.567c-.429-5.669-6.456-9.895-13.471-9.431l-2.834.188c-7.015.454-12.363 5.422-11.934 11.09l1.327 17.835v.02c4.041-.089 8.272-.178 12.663-.267 1.098-.02 2.215-.04 3.333-.069"/><path fill="none" stroke="#000" stroke-linecap="round" stroke-linejoin="round" stroke-miterlimit="10" stroke-width="1.417" d="M150.865 263.455c1.177-.02 2.355-.049 3.542-.069h.14M76.367 265.39l.02.198c.429-.079.858-.138 1.287-.198.19-.03.369-.049.559-.069.319-.04.649-.069.978-.089.17-.02.329-.03.499-.039.499-.03.998-.049 1.507-.049 0 0 .18 0 .509-.01.259-.01.599-.02 1.038-.039h.13c1.317-.04 3.383-.099 6.117-.178.02 0 .04 0 .06-.01 3.931-.109 9.23-.257 15.666-.425v-.03l-.918-8.246-.718-6.547c-.619-5.649-6.795-9.658-13.79-8.957l-2.824.277c-6.995.701-12.164 5.856-11.545 11.505l1.425 12.906zM94.787 351.238c1.128-.237 2.275-.464 3.443-.701M92.452 351.742c.629-.138 1.277-.277 1.926-.415"/><path fill="none" stroke="#000" stroke-linecap="round" stroke-linejoin="round" stroke-miterlimit="10" stroke-width="1.417" d="M113.097 347.9l-5.728-60.981c-.938.03-1.856.049-2.754.069-.21.01-.409.02-.609.02l-1.008.03c-.22 0-.429.01-.639.01-2.016.059-3.902.109-5.658.158-.17 0-.339.01-.499.01-1.068.03-2.095.059-3.053.089-.11 0-.22 0-.319.01-1.367.04-2.624.069-3.762.109h-.309c-.19.01-.379.02-.559.02l-.938.03c-.649.02-1.247.039-1.786.049-.12.01-.249.01-.359.01-.17.01-.329.01-.479.02h-.16c-.16.01-.309.01-.459.02h-.1c-.309.01-.609.02-.868.03h-.15c-.1 0-.21.01-.309.01h-.01c-.349.01-.629.02-.848.03-.289.01-.439.01-.489.01h-.03c-.249 0-.509 0-.758-.01l-.549-.03c-.329-.01-.649-.039-.968-.059l.01.079 6.216 65.81M235.232 316.535c.13-.178.249-.336.379-.494.11-.148.22-.286.339-.415M234.593 284.983v32.441M262.493 333.452c.08.089.15.168.21.247.08.079.14.158.2.227v-48.953c-4.41-.01-8.831-.02-13.241-.02-1.996 0-3.981 0-5.967.01-2.864 0-5.718.01-8.561.02M399.675 350.132c1.118.217 2.225.435 3.313.652 2.056.415 4.051.839 5.987 1.274 1.257.277 2.495.563 3.692.859M392.271 348.789c1.487.257 2.944.514 4.371.78.689.118 1.377.247 2.046.375M419.602 287.6c-.489-.02-1.078-.03-1.766-.049-.04 0-.09-.01-.13-.01-.21 0-.419-.01-.639-.02h-.01c-.679-.02-1.427-.04-2.255-.059-.06 0-.11 0-.17-.01-4.84-.138-12.134-.336-21.334-.563v.04l-6.586 58.206c-.11.978-.21 1.847-.269 2.696M414.642 353.391c.1-2.607.18-5.027.22-5.432l6.825-60.319c-.12 0-.229.01-.349.01 0 0-.289-.01-.838-.02-.22-.01-.479-.02-.788-.03M150.686 343.209l.329-.03c.459-.049.968-.089 1.507-.138.838-.079 1.756-.158 2.724-.247.269-.03.539-.049.818-.069M149.448 343.328c.2-.02.429-.049.669-.069"/><path fill="none" stroke="#000" stroke-linecap="round" stroke-linejoin="round" stroke-miterlimit="10" stroke-width="1.417" d="M164.146 342.014v-.079l-4.131-56.142c-5.069.089-9.978.178-14.708.277h-.229c-1.068.02-2.125.039-3.173.069-.16 0-.319 0-.479.01l-2.964.059c-.14 0-.269 0-.409.01l-2.844.059c-.18 0-.369 0-.549.01l-3.003.059c-.03 0-.05 0-.08.01l4.331 57.436c.02.326.07.652.13.968"/><path fill="none" stroke="#000" stroke-linecap="round" stroke-linejoin="round" stroke-miterlimit="10" stroke-width="1.417" d="M160.015 285.773c.778-.01 1.547-.03 2.325-.04l-2.664-22.437-3.183.059-1.946.03c-1.227.02-2.455.049-3.682.069l-4.939.089c-1.118.02-2.225.039-3.333.069-4.221.079-8.442.158-12.663.247-8.402.178-16.794.375-25.195.593h-.07a7689.4 7689.4 0 00-16.115.435c-3.981.118-8.192-.069-12.184.504-.629.089-1.257.198-1.876.336-4.121.889-8.961 3.052-10.647 7.189-1.148 2.815-.669 6.656 1.217 9.006 3.183 3.98 8.891 5.53 13.89 5.708.339.01.679.02 1.008.02.17-.01.329-.01.499-.01 21.773-.691 43.555-1.185 65.328-1.61 4.741-.089 9.491-.168 14.23-.257zM345.283 285.902c6.965.119 13.94.257 20.905.405 2.584.049 5.179.099 7.763.158 6.446.148 12.902.296 19.348.464 3.632.079 7.254.178 10.886.277 3.353.089 6.695.178 10.048.276 1.806.049 3.592.128 5.368.119h.11c2.934-.03 5.817-.306 8.671-1.323 3.582-1.274 7.594-3.851 8.242-7.891.519-3.279-.279-6.449-2.804-8.73-3.612-3.289-8.951-4.513-13.74-4.513-1.796-.04-3.592-.099-5.388-.148-1.058 1.945-2.435 3.802-4.201 5.56-8.751 8.651-17.652 12.176-26.403 12.364-12.014.267-23.728-5.767-34.325-13.45M349.763 269.469c-1.317 4.839-2.794 10.29-4.47 16.403M349.763 269.469c.04-.128.07-.247.11-.385a5.56 5.56 0 01-.11.385zM295.701 285.191l-1.257-12.176c-17.612 8.128-35.443 10.754-50.75 10.754-19.268 0-34.515-4.177-40.243-6.824-.569 1.086-1.327 4.019-2.225 8.266 3.393-.039 6.795-.069 10.188-.099 3.223-.03 6.446-.049 9.669-.069 4.5-.03 9.01-.049 13.511-.059h.539c9.25-.03 18.51-.03 27.77.01 7.753.02 15.506.069 23.259.128l9.539.089"/><path fill="none" stroke="#000" stroke-linecap="round" stroke-linejoin="round" stroke-miterlimit="10" stroke-width="1.417" d="M212.202 339.368c.359-.02.718-.03 1.088-.039l-.579-16.769-1.297-37.438c-3.423.03-6.815.059-10.188.099-2.505 11.87-6.027 34.031-9.17 54.987M301.348 339.881L295.7 285.21v-.02l-9.479-.089h-.06v.02l-1.946 54.137M361.797 344.513c.01-.03.01-.069.01-.109l4.38-58.097v-.03c-1.058-.02-2.125-.049-3.193-.069h-.259c-1.008-.02-2.026-.039-3.053-.069h-.359c-2.185-.049-4.41-.089-6.675-.128-.08 0-.17-.01-.259-.01-2.325-.039-4.69-.089-7.095-.128 0 .01-.01.02-.01.03-2.854 10.448-6.246 22.872-10.318 37.685l-1.347 18.388M341.461 342.567c.519.039 1.048.069 1.557.109"/><path fill="#B7897C" d="M407.643 240.765a20.77 20.77 0 01-10.387 10.795l.21-1.904c.498-4.645 4.778-8.173 10.177-8.891z"/><path fill="none" stroke="#000" stroke-linecap="round" stroke-linejoin="round" stroke-miterlimit="10" stroke-width="1.417" d="M407.643 240.765c-5.398.718-9.679 4.246-10.178 8.891l-.21 1.904a20.768 20.768 0 0010.388-10.795zM415.66 241.225c.708 2.301 1.277 4.681 1.616 7.1.778 5.609.279 11.396-2.564 16.63.479.01.948.02 1.377.04h.04c.918.02 1.726.049 2.405.069.09 0 .17 0 .259.01.229 0 .449.01.649.02h.259c.489.02.878.03 1.148.039.319.01.489.01.489.01.499 0 .988.02 1.477.049.469.03.928.069 1.387.118l1.407-12.828c.578-5.213-3.782-9.993-9.949-11.257zM414.642 353.391a422.674 422.674 0 00-5.668-1.333 461.47 461.47 0 00-5.987-1.274 491.992 491.992 0 00-3.313-.652c-.329-.059-.659-.118-.988-.188-.679-.128-1.357-.257-2.046-.375a389.483 389.483 0 00-4.371-.78 551.871 551.871 0 00-5.827-.958c-7.653-1.215-15.895-2.321-24.646-3.318a743.867 743.867 0 00-15.746-1.62c-.988-.069-2.006-.138-3.033-.217a94.648 94.648 0 01-1.557-.109 1358.97 1358.97 0 01-7.843-.593c-1.247-.099-2.465-.198-3.622-.286-3.941 14.349-8.392 30.565-13.441 48.923L314 365.833c-4.54 15.89-7.424 24.778-7.424 24.778l-5.229-50.72v-.01c-2.804-.119-5.638-.237-8.492-.336a788.368 788.368 0 00-8.641-.286 884.082 884.082 0 00-11.475-.277c2.155-3.654 4.311-6.587 4.311-6.587s-1.417-1.225-7.713 1.975c-.459-2.419-1.158-7.525.349-9.135-2.435 1.876-5.508 6.656-6.246 9.451-.11-.198-.299-.454-.539-.76l-.2-.227c-.06-.079-.14-.158-.21-.247-1.686-1.916-4.949-4.898-6.596-5.767-.07-.04-.13-.069-.19-.089a.759.759 0 00-.17-.069c-.05-.03-.1-.039-.15-.049a.308.308 0 00-.13-.03c3.073 2.321 5.209 5.343 6.057 8.977.19.79.289 1.59.369 2.4-3.872-.039-7.763-.059-11.685-.059-3.462 0-6.895.01-10.308.039 3.063-5.234 6.197-9.49 6.197-9.49s-1.966-1.699-10.697 2.745c-.639-3.358.06-15.613 2.155-17.845-.429.336-.908.81-1.397 1.412-.12.128-.23.276-.339.415-.13.158-.249.326-.379.494-.21.277-.429.573-.639.889-3.173 4.572-6.805 12.117-7.584 15.06-1.207-2.163-9.24-9.787-11.345-10.024 4.271 3.21 7.214 7.407 8.402 12.433.319 1.363.499 2.745.599 4.138-4.201.089-8.352.198-12.463.336a1049.4 1049.4 0 00-20.146.839c-3.911 26.121-7.244 50.365-7.244 50.365l-4.68-37.221a4638.88 4638.88 0 00-5.298 37.221l-5.827-48.943c-1.257.089-2.964.227-4.859.385-.529.049-1.078.089-1.626.138l-1.726.148c-1.587.138-3.203.286-4.73.425-.279.02-.549.049-.818.069-.968.089-1.886.178-2.724.247-.539.049-1.048.099-1.507.138l-.329.03c-.2.02-.389.039-.569.049-.239.03-.469.049-.669.069l-1.217.109c-4.171.415-8.232.859-12.194 1.323-8.122.948-15.786 1.995-22.94 3.14-.788.128-1.567.247-2.345.385-1.118.178-2.215.365-3.303.553-.249.039-.509.079-.758.128-1.038.178-2.075.365-3.093.553-.609.109-1.217.217-1.816.336-1.207.227-2.385.454-3.552.681-1.167.237-2.315.464-3.443.701-.14.03-.279.059-.409.089-.649.138-1.297.276-1.926.415-1.537.336-3.023.672-4.48 1.017-.429.099-.858.198-1.277.306-.509.118-1.018.247-1.527.375"/></g></g></svg>