<?xml version="1.0" standalone="no"?>
<!DOCTYPE svg PUBLIC "-//W3C//DTD SVG 20010904//EN"
 "http://www.w3.org/TR/2001/REC-SVG-20010904/DTD/svg10.dtd">
<svg version="1.0" xmlns="http://www.w3.org/2000/svg"
 width="700.000000pt" height="700.000000pt" viewBox="0 0 700.000000 700.000000"
 preserveAspectRatio="xMidYMid meet">
<metadata>
Created by potrace 1.11, written by Peter Selinger 2001-2013
</metadata>
<g transform="translate(0.000000,700.000000) scale(0.100000,-0.100000)"
fill="#000000" stroke="none">
<path d="M2046 5992 c-7 -11 -23 -84 -31 -142 -10 -72 -12 -76 -51 -78 -56 -4
-179 -47 -233 -81 -67 -44 -128 -111 -159 -179 -24 -51 -26 -69 -27 -177 0
-71 5 -128 11 -139 10 -16 6 -23 -25 -50 -20 -17 -49 -38 -64 -46 -26 -13 -69
-56 -79 -77 -1 -4 -32 -35 -68 -67 -150 -137 -168 -156 -172 -188 -8 -50 11
-105 53 -152 87 -99 193 -115 344 -52 54 23 104 38 125 37 22 -1 56 9 85 25
72 38 180 38 259 0 60 -29 88 -61 112 -128 13 -35 17 -98 19 -338 1 -162 6
-312 9 -332 4 -21 13 -66 20 -100 16 -74 13 -85 -15 -57 -32 32 -88 51 -148
50 -110 -1 -168 -30 -202 -98 -21 -43 -21 -86 -3 -259 2 -28 0 -44 -9 -47 -6
-2 -83 -5 -169 -6 l-158 -2 -1 38 c0 21 -2 45 -3 53 -2 8 -6 42 -10 75 -12
108 -66 157 -178 161 -80 3 -130 -9 -176 -44 -65 -49 -68 -64 -48 -264 4 -35
2 -36 -36 -46 -96 -25 -143 -84 -139 -176 2 -59 118 -142 193 -138 24 1 25 -2
32 -83 8 -84 15 -166 21 -220 2 -22 6 -71 10 -110 3 -38 8 -86 10 -105 2 -19
7 -67 10 -105 3 -39 8 -84 10 -100 2 -17 6 -66 10 -110 4 -47 13 -86 21 -95
10 -10 14 -10 14 -2 0 7 9 12 21 12 11 0 29 5 40 10 14 8 19 7 19 -2 0 -8 3
-9 8 -3 6 9 39 18 155 40 9 2 22 7 27 10 6 3 10 0 10 -7 0 -9 3 -9 8 -2 4 6
27 14 52 17 25 4 59 9 75 13 17 3 53 7 80 9 28 1 57 5 65 8 8 3 38 8 65 11 28
3 77 9 110 13 33 4 90 8 127 8 36 0 64 3 61 8 -4 7 30 9 140 11 26 1 47 4 47
7 0 13 30 4 35 -10 4 -15 22 -166 23 -201 0 -8 8 -67 17 -130 9 -63 18 -135
21 -160 3 -25 8 -74 12 -109 13 -122 32 -81 58 124 3 28 8 59 10 70 2 11 7 40
10 65 8 68 10 79 15 84 2 3 15 -79 27 -182 13 -103 24 -196 27 -207 2 -11 4
-24 4 -28 1 -5 5 -6 10 -3 7 5 16 53 37 206 3 19 8 42 11 50 6 15 7 32 11 103
1 21 5 36 10 34 4 -3 8 24 9 60 1 36 5 73 9 82 7 16 8 31 12 104 1 21 6 36 11
33 4 -3 6 5 4 18 -5 26 -8 26 304 30 68 0 123 5 123 9 0 5 5 5 10 2 21 -13 14
56 -11 115 l-19 45 33 -38 34 -39 15 24 c8 12 21 40 27 61 8 22 17 34 23 31 6
-4 8 -2 5 3 -4 6 4 31 18 55 l25 43 -3 -32 c-1 -18 -4 -33 -7 -33 -3 0 -5 -29
-5 -65 0 -36 2 -65 5 -66 31 -5 50 -4 50 2 0 9 26 19 64 26 31 5 31 6 -16 -64
-37 -55 -36 -70 4 -67 18 1 39 -3 47 -9 12 -9 13 -9 7 1 -8 14 19 12 43 -2 9
-6 12 -5 7 2 -8 14 76 12 86 -3 5 -6 8 -6 8 2 0 8 13 12 35 11 21 -1 32 -5 28
-12 -3 -6 3 -3 13 6 16 16 17 23 7 60 -9 33 -9 39 0 27 18 -24 46 -31 42 -11
-1 9 8 33 21 52 17 24 24 29 25 17 1 -9 3 -21 4 -27 1 -5 3 -19 4 -31 1 -15 7
-19 24 -17 12 2 24 6 27 9 3 4 15 10 28 14 l23 7 -26 -41 c-14 -23 -24 -45
-21 -49 3 -5 40 -9 83 -10 294 -9 308 -10 309 -29 1 -10 3 -20 4 -23 4 -13 8
-42 14 -115 14 -165 16 -188 22 -196 3 -5 -1 -9 -8 -9 -9 0 -10 -2 -2 -8 7 -4
15 -38 18 -77 4 -38 9 -99 13 -135 4 -36 7 -80 8 -97 1 -89 38 -15 91 185 10
34 19 61 20 59 4 -4 11 -49 19 -122 11 -104 17 -150 20 -154 9 -9 24 12 30 42
3 17 13 55 21 82 8 28 44 158 80 290 80 297 73 275 85 275 6 0 8 -3 6 -7 -3
-5 20 -8 51 -8 85 -1 284 -17 377 -31 17 -2 48 -6 70 -9 65 -7 208 -26 235
-31 14 -2 41 -7 60 -10 19 -3 42 -7 50 -9 8 -3 33 -7 55 -11 22 -3 89 -16 150
-29 60 -13 112 -22 115 -19 2 3 5 17 6 32 1 27 12 149 19 207 2 17 7 57 10 90
4 33 8 71 10 85 2 14 9 70 15 125 13 124 17 157 25 220 3 28 8 72 11 100 2 27
8 52 12 55 4 4 29 12 57 19 99 25 146 73 147 152 1 65 -43 117 -125 146 l-48
18 5 45 c19 155 19 156 1 190 -21 41 -49 66 -93 86 -22 10 -38 27 -49 52 -45
112 -126 252 -144 252 -13 0 -12 -3 17 -59 44 -84 37 -231 -11 -231 -42 0
-100 -56 -115 -111 -12 -43 -53 -59 -140 -55 -102 5 -193 69 -236 164 -39 86
-34 132 31 327 80 236 81 306 9 421 -116 185 -378 218 -542 69 -39 -35 -43
-36 -76 -25 -27 9 -37 19 -47 48 -20 63 -65 118 -114 142 -71 34 -141 29 -265
-21 -118 -48 -200 -76 -270 -94 -36 -9 -76 -20 -90 -25 -33 -13 -128 -23 -219
-24 -85 -1 -79 -7 -114 109 -122 398 -369 740 -707 977 -133 94 -363 203 -437
207 -7 1 -28 25 -47 54 -41 61 -118 145 -162 175 -36 25 -80 37 -88 24z m2983
-1655 c86 -57 98 -192 23 -260 -20 -18 -21 -17 -53 45 -20 38 -62 92 -105 135
-58 58 -70 74 -59 83 44 36 136 35 194 -3z m-2084 -1348 c3 -4 8 -53 10 -110
2 -57 6 -198 10 -314 4 -115 8 -231 9 -257 2 -27 3 -48 2 -49 -1 0 -63 -3
-140 -6 -131 -5 -138 -4 -133 13 5 16 15 80 33 199 3 17 9 55 14 85 5 30 11
69 13 85 10 68 57 326 63 346 3 11 17 15 58 15 30 -1 57 -4 61 -7z m725 -309
c0 -187 -4 -320 -9 -320 -5 0 -11 4 -13 8 -6 15 -75 62 -81 56 -4 -4 11 -26
32 -51 37 -41 59 -89 47 -101 -8 -7 -266 -9 -266 -2 0 3 16 30 35 60 19 30 35
58 35 63 0 13 -74 7 -104 -8 -15 -8 -32 -15 -37 -15 -14 0 -10 108 5 175 15
64 14 74 -7 57 -10 -9 -12 27 -12 194 l0 204 187 0 188 0 0 -320z m461 300 c0
-8 2 -24 3 -35 2 -11 6 -54 10 -95 4 -41 9 -91 11 -110 5 -34 28 -257 41 -395
3 -38 7 -74 8 -80 1 -9 -42 -11 -177 -6 l-39 1 7 168 c11 278 13 352 17 463
l2 106 58 -1 c45 0 58 -4 59 -16z m-1864 -18 c1 -9 5 -39 8 -67 3 -27 10 -84
15 -125 5 -41 12 -100 15 -130 4 -30 8 -70 10 -87 3 -18 8 -57 11 -85 3 -29 7
-64 10 -78 2 -14 6 -57 10 -95 6 -69 6 -70 -17 -72 -21 -2 -24 2 -25 30 -1 37
-14 215 -19 267 -2 19 -6 80 -10 135 -3 55 -8 120 -10 145 -14 156 -16 194 -9
187 4 -4 9 -15 11 -25z m-432 -3 c2 -9 6 -65 9 -125 4 -60 9 -129 11 -154 3
-25 7 -74 10 -110 2 -36 7 -94 9 -130 3 -36 8 -105 12 -155 3 -49 8 -93 11
-97 2 -5 -2 -8 -9 -8 -7 0 -42 -5 -78 -10 -36 -5 -87 -12 -115 -15 -27 -3 -62
-8 -77 -11 -26 -5 -28 -3 -29 28 0 18 -2 41 -4 50 -2 9 -6 54 -10 100 -4 46
-9 97 -10 113 -2 17 -6 66 -10 110 -3 44 -8 91 -10 105 -4 25 -10 91 -20 210
-4 36 -8 74 -9 85 -2 11 -2 22 -1 25 2 3 74 5 161 5 137 0 157 -2 159 -16z
m3662 12 c1 -1 0 -7 -2 -13 -2 -7 -7 -35 -9 -63 -4 -44 -11 -103 -32 -285 -2
-25 -7 -61 -9 -80 -2 -19 -7 -60 -10 -90 -3 -30 -8 -71 -10 -90 -7 -59 -17
-143 -20 -173 -1 -15 -4 -30 -6 -32 -2 -1 -75 7 -163 18 l-158 21 7 121 c4 66
9 134 10 150 2 17 6 71 10 120 3 50 8 110 10 135 5 61 18 242 18 258 0 11 34
13 181 9 100 -3 182 -6 183 -6z m-831 -673 c-2 -29 -4 -58 -5 -65 -1 -7 -7
-10 -14 -7 -11 4 -11 16 2 64 9 33 17 60 18 60 2 0 2 -24 -1 -52z"/>
<path d="M3196 2247 c3 -10 9 -15 12 -12 3 3 0 11 -7 18 -10 9 -11 8 -5 -6z"/>
<path d="M4789 2143 c-13 -16 -12 -17 4 -4 16 13 21 21 13 21 -2 0 -10 -8 -17
-17z"/>
<path d="M5393 2085 c0 -8 4 -12 9 -9 5 3 6 10 3 15 -9 13 -12 11 -12 -6z"/>
<path d="M2236 2038 c3 -5 10 -6 15 -3 13 9 11 12 -6 12 -8 0 -12 -4 -9 -9z"/>
<path d="M3466 2038 c3 -4 9 -8 15 -8 5 0 9 4 9 8 0 5 -7 9 -15 9 -8 0 -12 -4
-9 -9z"/>
<path d="M2033 1995 c0 -8 4 -12 9 -9 5 3 6 10 3 15 -9 13 -12 11 -12 -6z"/>
<path d="M4636 1993 c-6 -14 -5 -15 5 -6 7 7 10 15 7 18 -3 3 -9 -2 -12 -12z"/>
<path d="M3985 1980 c-3 -6 1 -7 9 -4 18 7 21 14 7 14 -6 0 -13 -4 -16 -10z"/>
<path d="M1630 1966 c0 -2 7 -7 16 -10 8 -3 12 -2 9 4 -6 10 -25 14 -25 6z"/>
<path d="M2110 1966 c0 -2 7 -7 16 -10 8 -3 12 -2 9 4 -6 10 -25 14 -25 6z"/>
<path d="M1875 1921 c-3 -5 -2 -12 3 -15 5 -3 9 1 9 9 0 17 -3 19 -12 6z"/>
<path d="M4150 1921 c0 -6 4 -13 10 -16 6 -3 7 1 4 9 -7 18 -14 21 -14 7z"/>
<path d="M5276 1882 c-3 -5 1 -9 9 -9 8 0 12 4 9 9 -3 4 -7 8 -9 8 -2 0 -6 -4
-9 -8z"/>
<path d="M1000 1800 c-9 -6 -10 -10 -3 -10 6 0 15 5 18 10 8 12 4 12 -15 0z"/>
<path d="M1705 1800 c-3 -6 1 -7 9 -4 18 7 21 14 7 14 -6 0 -13 -4 -16 -10z"/>
<path d="M3145 1800 c-3 -6 1 -7 9 -4 18 7 21 14 7 14 -6 0 -13 -4 -16 -10z"/>
<path d="M3680 1780 c-9 -6 -10 -10 -3 -10 6 0 15 5 18 10 8 12 4 12 -15 0z"/>
<path d="M3395 1761 c-3 -5 -2 -12 3 -15 5 -3 9 1 9 9 0 17 -3 19 -12 6z"/>
<path d="M1867 1719 c7 -7 15 -10 18 -7 3 3 -2 9 -12 12 -14 6 -15 5 -6 -5z"/>
<path d="M4190 1720 c0 -5 5 -10 10 -10 6 0 10 5 10 10 0 6 -4 10 -10 10 -5 0
-10 -4 -10 -10z"/>
<path d="M4975 1721 c-3 -5 -2 -12 3 -15 5 -3 9 1 9 9 0 17 -3 19 -12 6z"/>
<path d="M2150 1681 c0 -6 4 -13 10 -16 6 -3 7 1 4 9 -7 18 -14 21 -14 7z"/>
<path d="M1100 1626 c0 -2 8 -10 18 -17 15 -13 16 -12 3 4 -13 16 -21 21 -21
13z"/>
<path d="M5260 1626 c0 -2 8 -10 18 -17 15 -13 16 -12 3 4 -13 16 -21 21 -21
13z"/>
<path d="M2315 1609 c-4 -6 -5 -12 -2 -15 2 -3 7 2 10 11 7 17 1 20 -8 4z"/>
<path d="M3276 1607 c3 -10 9 -15 12 -12 3 3 0 11 -7 18 -10 9 -11 8 -5 -6z"/>
<path d="M4595 1601 c-3 -5 -2 -12 3 -15 5 -3 9 1 9 9 0 17 -3 19 -12 6z"/>
<path d="M4710 1521 c0 -6 4 -13 10 -16 6 -3 7 1 4 9 -7 18 -14 21 -14 7z"/>
<path d="M5510 1521 c0 -6 4 -13 10 -16 6 -3 7 1 4 9 -7 18 -14 21 -14 7z"/>
<path d="M5426 1502 c-3 -5 1 -9 9 -9 8 0 12 4 9 9 -3 4 -7 8 -9 8 -2 0 -6 -4
-9 -8z"/>
<path d="M1310 1486 c0 -2 7 -7 16 -10 8 -3 12 -2 9 4 -6 10 -25 14 -25 6z"/>
<path d="M3560 1480 c-9 -6 -10 -10 -3 -10 6 0 15 5 18 10 8 12 4 12 -15 0z"/>
<path d="M4355 1441 c-3 -5 -2 -12 3 -15 5 -3 9 1 9 9 0 17 -3 19 -12 6z"/>
<path d="M2609 1403 c-13 -16 -12 -17 4 -4 9 7 17 15 17 17 0 8 -8 3 -21 -13z"/>
<path d="M5010 1401 c0 -6 4 -13 10 -16 6 -3 7 1 4 9 -7 18 -14 21 -14 7z"/>
<path d="M1670 1361 c0 -6 4 -13 10 -16 6 -3 7 1 4 9 -7 18 -14 21 -14 7z"/>
<path d="M2440 1320 c-9 -6 -10 -10 -3 -10 6 0 15 5 18 10 8 12 4 12 -15 0z"/>
<path d="M1795 1291 c-3 -5 -2 -12 3 -15 5 -3 9 1 9 9 0 17 -3 19 -12 6z"/>
<path d="M4236 1287 c3 -10 9 -15 12 -12 3 3 0 11 -7 18 -10 9 -11 8 -5 -6z"/>
<path d="M1550 1246 c0 -2 7 -7 16 -10 8 -3 12 -2 9 4 -6 10 -25 14 -25 6z"/>
<path d="M4800 1240 c-9 -6 -10 -10 -3 -10 6 0 15 5 18 10 8 12 4 12 -15 0z"/>
<path d="M3233 1195 c0 -8 4 -12 9 -9 5 3 6 10 3 15 -9 13 -12 11 -12 -6z"/>
<path d="M3916 1193 c-6 -14 -5 -15 5 -6 7 7 10 15 7 18 -3 3 -9 -2 -12 -12z"/>
<path d="M4556 1193 c-6 -14 -5 -15 5 -6 7 7 10 15 7 18 -3 3 -9 -2 -12 -12z"/>
<path d="M1906 1178 c3 -5 10 -6 15 -3 13 9 11 12 -6 12 -8 0 -12 -4 -9 -9z"/>
<path d="M2665 1160 c-3 -6 1 -7 9 -4 18 7 21 14 7 14 -6 0 -13 -4 -16 -10z"/>
<path d="M3145 1160 c-3 -6 1 -7 9 -4 18 7 21 14 7 14 -6 0 -13 -4 -16 -10z"/>
<path d="M2495 1089 c-4 -6 -5 -12 -2 -15 2 -3 7 2 10 11 7 17 1 20 -8 4z"/>
<path d="M3313 1035 c0 -8 4 -12 9 -9 5 3 6 10 3 15 -9 13 -12 11 -12 -6z"/>
</g>
</svg>
